<?xml version="1.0" encoding="utf-8"?>
<!-- Generator: Adobe Illustrator 14.0.0, SVG Export Plug-In  -->
<!DOCTYPE svg PUBLIC "-//W3C//DTD SVG 1.1//EN" "http://www.w3.org/Graphics/SVG/1.1/DTD/svg11.dtd" [
	<!ENTITY ns_flows "http://ns.adobe.com/Flows/1.0/">
]>
<svg version="1.1"
	 xmlns="http://www.w3.org/2000/svg" xmlns:xlink="http://www.w3.org/1999/xlink" xmlns:a="http://ns.adobe.com/AdobeSVGViewerExtensions/3.0/"
	 x="0px" y="0px" width="211px" height="277px" viewBox="1010.634 504.591 211 277"
	 enable-background="new 1010.634 504.591 211 277" xml:space="preserve">
<defs>
</defs>
<rect x="0.005" fill="none" width="1356.11" height="857.008"/>
<rect y="4" fill="none" width="1356.114" height="857.008"/>
<path fill="#2B2B2B" d="M1213.227,739.481c-5.113,42.678-35.584,41.625-73.783,37.047c-38.198-4.577-65.021-42.886-59.904-85.564
	c5.113-42.678,40.226-73.563,78.425-68.986C1196.164,626.555,1218.341,696.803,1213.227,739.481"/>
<path fill="#2B2B2B" d="M1189.689,624.638c0,5.563-4.511,10.073-10.074,10.073c-5.565,0-10.074-4.51-10.074-10.073
	c0-5.564,4.509-10.074,10.074-10.074C1185.179,614.563,1189.689,619.073,1189.689,624.638"/>
<path fill="#2B2B2B" d="M1174.195,623.529c0,3.372-2.732,6.105-6.104,6.105c-3.373,0-6.107-2.733-6.107-6.105
	s2.734-6.105,6.107-6.105C1171.463,617.424,1174.195,620.157,1174.195,623.529"/>
<g>
	<rect x="1185.26" y="669.136" fill="none" width="15.57" height="91.127"/>
	<path fill="#FFFFFF" d="M1187.195,760.263l-1.937-2.291c26.166-22.141,3.253-87.17,3.019-87.824l2.824-1.012
		c0.061,0.167,6.033,16.979,8.568,36.398C1203.112,731.932,1198.917,750.345,1187.195,760.263"/>
</g>
<rect x="1106.855" y="522.468" fill="#2B2B2B" width="4.938" height="63.843"/>
<rect x="1071.479" y="522.468" fill="#2B2B2B" width="4.938" height="63.843"/>
<path fill="#2B2B2B" d="M1129.151,778.83L1129.151,778.83c4.636,0,8.393-3.757,8.393-8.393v-7.568c0-4.636-3.757-8.393-8.393-8.393
	c-4.635,0-8.392,3.757-8.392,8.393v7.568C1120.76,775.073,1124.517,778.83,1129.151,778.83"/>
<path fill="#2B2B2B" d="M1054.119,778.83L1054.119,778.83c4.635,0,8.393-3.757,8.393-8.393v-7.568c0-4.636-3.758-8.393-8.393-8.393
	s-8.393,3.757-8.393,8.393v7.568C1045.727,775.073,1049.484,778.83,1054.119,778.83"/>
<path fill="#F6C60C" d="M1061.454,771.651h60.362c18.497,0,33.492-14.995,33.492-33.492V608.615
	c0-18.497-14.995-33.492-33.492-33.492h-60.362c-18.497,0-33.491,14.995-33.491,33.492v129.544
	C1027.963,756.656,1042.957,771.651,1061.454,771.651"/>
<path fill="#2B2B2B" d="M1121.816,773.15h-60.362c-19.295,0-34.991-15.696-34.991-34.991V608.614
	c0-19.295,15.696-34.991,34.991-34.991h60.362c19.295,0,34.992,15.696,34.992,34.991v129.545
	C1156.809,757.454,1141.111,773.15,1121.816,773.15 M1061.454,576.623c-17.641,0-31.991,14.352-31.991,31.991v129.545
	c0,17.641,14.351,31.991,31.991,31.991h60.362c17.641,0,31.992-14.351,31.992-31.991V608.614c0-17.64-14.352-31.991-31.992-31.991
	H1061.454z"/>
<path fill="#2B2B2B" d="M1068.034,528.392h47.201c4.505,0,8.157-3.651,8.157-8.156s-3.652-8.156-8.157-8.156h-47.201
	c-4.505,0-8.155,3.651-8.155,8.156S1063.529,528.392,1068.034,528.392"/>
<rect x="1056.212" y="633.41" fill="#2B2B2B" width="70.847" height="3"/>
<rect x="1056.212" y="671.887" fill="#2B2B2B" width="70.847" height="3"/>
<rect x="1056.212" y="710.363" fill="#2B2B2B" width="70.847" height="3"/>
<g>
	<rect x="1033.97" y="607.661" fill="none" width="3" height="129.087"/>
	<rect x="1033.97" y="607.661" fill="#FFFFFF" width="3" height="129.087"/>
</g>
</svg>
