<?xml version="1.0" encoding="UTF-8" standalone="no"?>
<svg
   xmlns:dc="http://purl.org/dc/elements/1.1/"
   xmlns:cc="http://creativecommons.org/ns#"
   xmlns:rdf="http://www.w3.org/1999/02/22-rdf-syntax-ns#"
   xmlns:svg="http://www.w3.org/2000/svg"
   xmlns="http://www.w3.org/2000/svg"
   viewBox="0 0 1808.1467 1142.6772"
   height="1142.6772"
   width="1808.1467"
   xml:space="preserve"
   id="svg2"
   version="1.1"><metadata
     id="metadata8"><rdf:RDF><cc:Work
         rdf:about=""><dc:format>image/svg+xml</dc:format><dc:type
           rdf:resource="http://purl.org/dc/dcmitype/StillImage" /></cc:Work></rdf:RDF></metadata><defs
     id="defs6"><clipPath
       id="clipPath18"
       clipPathUnits="userSpaceOnUse"><path
         id="path16"
         d="M 0,857.008 H 1356.114 V 0 H 0 Z" /></clipPath><clipPath
       id="clipPath140"
       clipPathUnits="userSpaceOnUse"><path
         id="path138"
         d="m 156.492,236.345 h 82.269 V 93.1732 h -82.269 z" /></clipPath><clipPath
       id="clipPath156"
       clipPathUnits="userSpaceOnUse"><path
         id="path154"
         d="m 210.085,358.382 h 18.11 V 251.106 h -18.11 z" /></clipPath><clipPath
       id="clipPath172"
       clipPathUnits="userSpaceOnUse"><path
         id="path170"
         d="m 869.466,204.881 h 3 v -57.626 h -3 z" /></clipPath><clipPath
       id="clipPath248"
       clipPathUnits="userSpaceOnUse"><path
         id="path246"
         d="m 946.854,191.367 h 3 V 83.8235 h -3 z" /></clipPath><clipPath
       id="clipPath262"
       clipPathUnits="userSpaceOnUse"><path
         id="path260"
         d="m 1185.26,191.872 h 15.57 v -91.127 h -15.57 z" /></clipPath><clipPath
       id="clipPath318"
       clipPathUnits="userSpaceOnUse"><path
         id="path316"
         d="M 550.678,488.895 H 666.592 V 312.023 H 550.678 Z" /></clipPath><clipPath
       id="clipPath334"
       clipPathUnits="userSpaceOnUse"><path
         id="path332"
         d="m 655.817,609.177 h 78.393 v -32.67 h -78.393 z" /></clipPath><clipPath
       id="clipPath350"
       clipPathUnits="userSpaceOnUse"><path
         id="path348"
         d="M 464.294,548.513 H 493.81 V 411.411 h -29.516 z" /></clipPath><clipPath
       id="clipPath470"
       clipPathUnits="userSpaceOnUse"><path
         id="path468"
         d="m 318.415,530.422 h 56.298 V 132.907 h -56.298 z" /></clipPath><clipPath
       id="clipPath486"
       clipPathUnits="userSpaceOnUse"><path
         id="path484"
         d="m 386.03,721.074 h 28.699 V 698.096 H 386.03 Z" /></clipPath><clipPath
       id="clipPath616"
       clipPathUnits="userSpaceOnUse"><path
         id="path614"
         d="m 878.321,582.964 h 7.589 v -42.828 h -7.589 z" /></clipPath><clipPath
       id="clipPath632"
       clipPathUnits="userSpaceOnUse"><path
         id="path630"
         d="m 887.393,503.733 h 4.659 v -18.908 h -4.659 z" /></clipPath><clipPath
       id="clipPath648"
       clipPathUnits="userSpaceOnUse"><path
         id="path646"
         d="M 895.623,472.798 H 1007.08 V 101.469 H 895.623 Z" /></clipPath><clipPath
       id="clipPath664"
       clipPathUnits="userSpaceOnUse"><path
         id="path662"
         d="m 963.174,456.87 h 41.216 V 246.113 h -41.216 z" /></clipPath><clipPath
       id="clipPath680"
       clipPathUnits="userSpaceOnUse"><path
         id="path678"
         d="m 1033.97,253.347 h 3 V 124.26 h -3 z" /></clipPath></defs><g
     transform="matrix(1.3333333,0,0,-1.3333333,0,1142.6773)"
     id="g10"><g
       id="g12"><g
         clip-path="url(#clipPath18)"
         id="g14"><g
           transform="translate(433.7904,293.4085)"
           id="g20"><path
             id="path22"
             style="fill:#8948c6;fill-opacity:1;fill-rule:nonzero;stroke:none"
             d="m 0,0 c 0,-7.295 5.914,-13.209 13.209,-13.209 7.295,0 13.209,5.914 13.209,13.209 0,7.296 -5.914,13.209 -13.209,13.209 C 5.914,13.209 0,7.296 0,0" /></g><g
           transform="translate(446.9994,305.1175)"
           id="g24"><path
             id="path26"
             style="fill:#2b2b2b;fill-opacity:1;fill-rule:nonzero;stroke:none"
             d="m 0,0 c -6.457,0 -11.709,-5.253 -11.709,-11.709 0,-6.456 5.252,-11.709 11.709,-11.709 6.457,0 11.709,5.253 11.709,11.709 C 11.709,-5.253 6.457,0 0,0 m 0,-26.418 c -8.11,0 -14.709,6.599 -14.709,14.709 C -14.709,-3.599 -8.11,3 0,3 8.11,3 14.709,-3.599 14.709,-11.709 14.709,-19.819 8.11,-26.418 0,-26.418" /></g><g
           transform="translate(462.5219,245.097)"
           id="g28"><path
             id="path30"
             style="fill:#f6c60c;fill-opacity:1;fill-rule:nonzero;stroke:none"
             d="m 0,0 c -0.681,-5.802 3.471,-11.057 9.273,-11.737 5.802,-0.681 11.057,3.47 11.737,9.272 C 21.691,3.338 17.539,8.593 11.737,9.272 5.936,9.953 0.681,5.802 0,0" /></g><g
           transform="translate(473.0204,252.9417)"
           id="g32"><path
             id="path34"
             style="fill:#2b2b2b;fill-opacity:1;fill-rule:nonzero;stroke:none"
             d="m 0,0 c -4.537,0 -8.467,-3.406 -9.009,-8.02 -0.583,-4.97 2.987,-9.489 7.958,-10.072 4.969,-0.583 9.489,2.987 10.073,7.957 0.283,2.408 -0.39,4.782 -1.893,6.686 C 5.626,-1.547 3.472,-0.344 1.064,-0.062 0.707,-0.021 0.351,0 0,0 m 0.031,-21.156 c -0.475,0 -0.952,0.028 -1.431,0.084 -3.204,0.376 -6.07,1.977 -8.07,4.509 -2,2.531 -2.894,5.689 -2.518,8.893 0.376,3.204 1.977,6.069 4.508,8.069 2.531,2 5.69,2.891 8.894,2.519 3.203,-0.376 6.069,-1.977 8.069,-4.508 2,-2.531 2.894,-5.69 2.518,-8.894 -0.376,-3.204 -1.977,-6.07 -4.508,-8.07 -2.153,-1.701 -4.76,-2.602 -7.462,-2.602" /></g><g
           transform="translate(439.1215,83.93)"
           id="g36"><path
             id="path38"
             style="fill:#8948c6;fill-opacity:1;fill-rule:nonzero;stroke:none"
             d="M 0,0 C 0,0 1.243,84.02 66.253,144.835 65.205,145.884 29.683,86.866 23.327,31.967 23.263,31.593 37.942,71.599 70.447,97.731 69.398,95.554 47.879,56.005 44.484,23.353 44.233,23.204 54.719,40.685 77.787,58.683 76.738,57.806 62.059,26.078 63.107,0 62.059,-1.752 0,0 0,0" /></g><g
           transform="translate(501.496,85.2034)"
           id="g40"><path
             id="path42"
             style="fill:#2b2b2b;fill-opacity:1;fill-rule:nonzero;stroke:none"
             d="M 0,0 Z M -60.816,0.184 C -39.479,-0.401 -6.876,-0.945 -0.803,-0.157 -1.251,19.376 6.458,41.29 11.12,51.992 -6.794,36.861 -15.434,23.273 -16.428,21.642 l -0.049,-0.468 -1.859,-1.103 -0.798,1.162 c -0.266,0.391 -0.372,0.702 -0.229,1.188 2.514,23.732 14.26,50.96 22.696,68.009 -24.409,-22.185 -37.303,-51.124 -40.847,-59.954 -0.424,-1.06 -1.081,-1.472 -1.942,-1.228 l -1.299,0.367 0.23,1.333 c 3.305,28.573 14.403,57.554 23.129,76.821 3.957,8.736 8.517,17.752 12.388,24.723 C -54.9,78.486 -60.273,10.979 -60.816,0.184 m 45.293,-3.746 c -4.145,0 -9.296,0.041 -15.712,0.131 -15.477,0.217 -31.027,0.654 -31.182,0.659 l -1.479,0.041 0.021,1.48 c 0.004,0.212 0.412,21.539 8.81,50.014 7.717,26.169 23.952,63.928 57.492,95.494 0.368,0.402 0.668,0.651 0.889,0.728 l 0.889,0.31 0.734,-0.673 1.097,-1.097 -1.133,-1.059 c -0.257,-0.24 -0.514,-0.482 -0.769,-0.723 -4.836,-6.283 -31.585,-53.115 -40.076,-100.347 6.963,14.416 20.89,38.395 43.075,56.231 l 5.169,4.156 -2.878,-5.975 C 9.347,95.646 9.163,95.289 8.885,94.753 1.273,80.059 -11.425,52.902 -15.53,28.297 c 1.16,1.572 2.664,3.522 4.521,5.755 5.018,6.034 13.515,15.19 25.499,24.54 l 1.885,-2.333 c 0.102,0.085 0.154,0.155 0.156,0.158 C 15.5,55.023 1.198,24.498 2.232,-1.213 L 2.25,-1.66 2.02,-2.044 C 1.509,-2.897 1.108,-3.562 -15.523,-3.562" /></g><g
           transform="translate(452.2557,82.428)"
           id="g44"><path
             id="path46"
             style="fill:#f6c60c;fill-opacity:1;fill-rule:nonzero;stroke:none"
             d="M 0,0 C 0,0 -5.392,204.007 -250.855,314.104 -250.959,310.958 -279.651,180.09 -176.179,0.689 -172.388,2.574 0,0 0,0" /></g><g
           transform="translate(312.3358,85.3011)"
           id="g48"><path
             id="path50"
             style="fill:#2b2b2b;fill-opacity:1;fill-rule:nonzero;stroke:none"
             d="m 0,0 c 42.489,0 109.966,-0.929 138.341,-1.35 -0.556,9.05 -4.738,56.205 -33.214,113.718 -18.532,37.43 -43.578,71.863 -74.442,102.345 -38.174,37.702 -85.418,69.436 -140.433,94.338 -5.413,-33.655 -15.544,-153.377 74.3,-309.637 C -31.044,-0.16 -17.685,0 0,0 m -35.591,-3.526 -0.018,-0.01 c 0.006,0.004 0.012,0.007 0.018,0.01 m 177.052,-0.87 -1.564,0.023 C 72.105,-3.36 -30.333,-2.316 -35.679,-3.57 l -1.175,-0.584 -0.704,1.221 c -91.212,158.141 -80.533,279.449 -75.087,312.861 0.119,0.729 0.198,1.19 0.212,1.377 l 0.17,2.119 1.942,-0.825 C -54.167,287.413 -5.991,255.172 32.87,216.771 63.976,186.035 89.214,151.31 107.886,113.558 139.695,49.242 141.406,-2.32 141.419,-2.833 Z" /></g><g
           transform="translate(201.4012,396.5316)"
           id="g52"><path
             id="path54"
             style="fill:#f6c60c;fill-opacity:1;fill-rule:nonzero;stroke:none"
             d="M 0,0 161.399,-314.104" /></g><g
           transform="translate(361.4667,81.7425)"
           id="g56"><path
             id="path58"
             style="fill:#2b2b2b;fill-opacity:1;fill-rule:nonzero;stroke:none"
             d="m 0,0 -161.399,314.104 2.668,1.371 L 2.668,1.371 Z" /></g><g
           transform="translate(321.7792,321.5521)"
           id="g60"><path
             id="path62"
             style="fill:#f6c60c;fill-opacity:1;fill-rule:nonzero;stroke:none"
             d="M 0,0 -39.678,-82.072" /></g><g
           transform="translate(283.4515,238.8265)"
           id="g64"><path
             id="path66"
             style="fill:#2b2b2b;fill-opacity:1;fill-rule:nonzero;stroke:none"
             d="m 0,0 -2.701,1.307 39.678,82.072 2.701,-1.307 z" /></g><g
           transform="translate(395.0404,239.4798)"
           id="g68"><path
             id="path70"
             style="fill:#f6c60c;fill-opacity:1;fill-rule:nonzero;stroke:none"
             d="M 0,0 -49.326,-117.953" /></g><g
           transform="translate(347.0985,120.9476)"
           id="g72"><path
             id="path74"
             style="fill:#2b2b2b;fill-opacity:1;fill-rule:nonzero;stroke:none"
             d="m 0,0 -2.768,1.158 49.326,117.953 2.768,-1.158 z" /></g><g
           transform="translate(314.5404,176.3489)"
           id="g76"><path
             id="path78"
             style="fill:#f6c60c;fill-opacity:1;fill-rule:nonzero;stroke:none"
             d="M 0,0 -90.607,21.2" /></g><g
           transform="translate(314.1986,174.888)"
           id="g80"><path
             id="path82"
             style="fill:#2b2b2b;fill-opacity:1;fill-rule:nonzero;stroke:none"
             d="m 0,0 -90.607,21.2 0.684,2.922 90.607,-21.2 z" /></g><g
           transform="translate(340.0878,83.93)"
           id="g84"><path
             id="path86"
             style="fill:#8948c6;fill-opacity:1;fill-rule:nonzero;stroke:none"
             d="M 0,0 C 0,0 -21.354,150.374 -195.727,180.907 -195.399,178.985 -196.539,96.002 -111.442,0 -109.376,1.615 0,0 0,0" /></g><g
           transform="translate(258.3231,86.1497)"
           id="g88"><path
             id="path90"
             style="fill:#2b2b2b;fill-opacity:1;fill-rule:nonzero;stroke:none"
             d="m 0,0 c 7.121,0 15.925,-0.034 26.83,-0.114 23.267,-0.17 46.607,-0.488 53.154,-0.58 -1.437,7.84 -8.599,41.071 -32.022,76.768 -15.653,23.858 -35.404,44.14 -58.706,60.283 -28.682,19.872 -62.865,33.5 -101.627,40.524 1.05,-21.871 10.329,-94.884 83.257,-177.474 C -26.714,-0.274 -20.041,0 0,0 m -29.864,-4.27 -0.936,1.055 c -75.137,84.766 -83.757,159.875 -84.609,180.876 -0.017,0.422 -0.026,0.698 -0.039,0.821 l -0.204,1.975 1.948,-0.292 c 39.99,-7.002 75.23,-20.929 104.742,-41.393 C 14.664,122.391 34.685,101.812 50.545,77.606 77.552,36.393 83.196,-1.63 83.25,-2.009 l 0.247,-1.736 -1.754,0.025 c -42.046,0.622 -105.701,1.168 -110.694,0.164 z" /></g><g
           transform="translate(144.3607,264.8372)"
           id="g92"><path
             id="path94"
             style="fill:#f6c60c;fill-opacity:1;fill-rule:nonzero;stroke:none"
             d="M 0,0 145.499,-181.123" /></g><g
           transform="translate(288.6898,82.7747)"
           id="g96"><path
             id="path98"
             style="fill:#2b2b2b;fill-opacity:1;fill-rule:nonzero;stroke:none"
             d="m 0,0 -145.499,181.123 2.339,1.879 L 2.339,1.879 Z" /></g><g
           transform="translate(226.7333,234.304)"
           id="g100"><path
             id="path102"
             style="fill:#f6c60c;fill-opacity:1;fill-rule:nonzero;stroke:none"
             d="M 0,0 -13.874,-54.738" /></g><g
           transform="translate(214.3138,179.1976)"
           id="g104"><path
             id="path106"
             style="fill:#2b2b2b;fill-opacity:1;fill-rule:nonzero;stroke:none"
             d="m 0,0 -2.908,0.736 13.873,54.739 2.909,-0.737 z" /></g><g
           transform="translate(281.3959,193.6087)"
           id="g108"><path
             id="path110"
             style="fill:#f6c60c;fill-opacity:1;fill-rule:nonzero;stroke:none"
             d="M 0,0 -15.267,-77.712" /></g><g
           transform="translate(267.601,115.6077)"
           id="g112"><path
             id="path114"
             style="fill:#2b2b2b;fill-opacity:1;fill-rule:nonzero;stroke:none"
             d="M 0,0 -2.943,0.578 12.323,78.29 15.267,77.712 Z" /></g><g
           transform="translate(240.3949,145.2894)"
           id="g116"><path
             id="path118"
             style="fill:#f6c60c;fill-opacity:1;fill-rule:nonzero;stroke:none"
             d="M 0,0 -57.62,1.599" /></g><g
           transform="translate(240.3534,143.7903)"
           id="g120"><path
             id="path122"
             style="fill:#2b2b2b;fill-opacity:1;fill-rule:nonzero;stroke:none"
             d="m 0,0 -57.62,1.599 0.083,2.998 57.62,-1.599 z" /></g><path
           id="path124"
           style="fill:#2b2b2b;fill-opacity:1;fill-rule:nonzero;stroke:none"
           d="M 545.274,80.678 H 192.909 v 3 h 352.365 z" /><g
           transform="translate(412.765,82.554)"
           id="g126"><path
             id="path128"
             style="fill:#2b2b2b;fill-opacity:1;fill-rule:nonzero;stroke:none"
             d="m 0,0 c -0.117,1.162 -11.274,117.161 24.98,200.672 l 2.752,-1.195 C -8.207,116.692 2.869,1.455 2.985,0.301 Z" /></g><g
           transform="translate(428.8324,79.3206)"
           id="g130"><path
             id="path132"
             style="fill:#2b2b2b;fill-opacity:1;fill-rule:nonzero;stroke:none"
             d="m 0,0 -3,0.049 c 0.016,0.936 1.964,94.308 38.627,157.41 l 2.594,-1.508 C 1.956,93.535 0.015,0.928 0,0" /></g><g
           id="g134"><g
             id="g136" /><g
             id="g148"><g
               style="opacity:0.25"
               id="g146"
               clip-path="url(#clipPath140)"><g
                 id="g144"
                 transform="translate(236.5331,93.1732)"><path
                   id="path142"
                   style="fill:#ffffff;fill-opacity:1;fill-rule:nonzero;stroke:none"
                   d="m 0,0 c -63.839,70.754 -79.887,141.823 -80.042,142.533 l 2.932,0.639 C -76.957,142.47 -61.047,72.139 2.228,2.01 Z" /></g></g></g></g><g
           id="g150"><g
             id="g152" /><g
             id="g164"><g
               style="opacity:0.25"
               id="g162"
               clip-path="url(#clipPath156)"><g
                 id="g160"
                 transform="translate(225.2713,251.1058)"><path
                   id="path158"
                   style="fill:#ffffff;fill-opacity:1;fill-rule:nonzero;stroke:none"
                   d="m 0,0 c -14.279,61.96 -15.179,106.78 -15.187,107.226 l 3,0.05 c 0.008,-0.443 0.908,-44.973 15.111,-106.602 z" /></g></g></g></g><g
           id="g166"><g
             id="g168" /><g
             id="g178"><g
               style="opacity:0.25"
               id="g176"
               clip-path="url(#clipPath172)"><path
                 id="path174"
                 style="fill:#ffffff;fill-opacity:1;fill-rule:nonzero;stroke:none"
                 d="m 872.466,147.255 h -3 v 57.626 h 3 z" /></g></g></g><g
           transform="translate(1213.2269,121.5267)"
           id="g180"><path
             id="path182"
             style="fill:#2b2b2b;fill-opacity:1;fill-rule:nonzero;stroke:none"
             d="m 0,0 c -5.114,-42.678 -35.584,-41.625 -73.783,-37.047 -38.199,4.577 -65.021,42.886 -59.905,85.564 5.114,42.678 40.226,73.564 78.425,68.987 C -17.063,112.926 5.114,42.678 0,0" /></g><g
           transform="translate(943.2816,197.3519)"
           id="g184"><path
             id="path186"
             style="fill:#8948c6;fill-opacity:1;fill-rule:nonzero;stroke:none"
             d="M 0,0 V 14.447 H -13.956 V 0 H -30.541 V -114.641 H 16.586 L 16.586,0 Z" /></g><g
           transform="translate(914.2406,84.2112)"
           id="g188"><path
             id="path190"
             style="fill:#2b2b2b;fill-opacity:1;fill-rule:nonzero;stroke:none"
             d="M 0,0 H 44.127 V 111.641 H 27.541 v 14.447 H 16.585 V 111.641 H 0 Z M 47.127,-3 H -3 v 117.641 h 16.585 v 14.447 h 16.956 v -14.447 h 16.586 z" /></g><g
           transform="translate(889.8754,212.4319)"
           id="g192"><path
             id="path194"
             style="fill:#f6c60c;fill-opacity:1;fill-rule:nonzero;stroke:none"
             d="M 0,0 V 16.347 H -13.956 V 0 H -30.541 V -129.721 H 16.585 L 16.585,0 Z" /></g><g
           transform="translate(860.8344,84.2112)"
           id="g196"><path
             id="path198"
             style="fill:#2b2b2b;fill-opacity:1;fill-rule:nonzero;stroke:none"
             d="M 0,0 H 44.126 V 126.721 H 27.541 v 16.346 H 16.585 V 126.721 H 0 Z M 47.126,-3 H -3 v 132.721 h 16.585 v 16.346 h 16.956 v -16.346 h 16.585 z" /></g><path
           id="path200"
           style="fill:#2b2b2b;fill-opacity:1;fill-rule:nonzero;stroke:none"
           d="m 1218.382,80.678 h -401.94 v 3 h 401.94 z" /><g
           transform="translate(897.5795,83.93)"
           id="g202"><path
             id="path204"
             style="fill:#f6c60c;fill-opacity:1;fill-rule:nonzero;stroke:none"
             d="M 0,0 V 61.359 H 37.725 V -0.778 Z" /></g><g
           transform="translate(899.0795,85.3997)"
           id="g206"><path
             id="path208"
             style="fill:#2b2b2b;fill-opacity:1;fill-rule:nonzero;stroke:none"
             d="M 0,0 34.725,-0.717 V 58.39 H 0 Z M 37.725,-3.779 -3,-2.939 V 61.39 h 40.725 z" /></g><g
           transform="translate(931.0668,117.2601)"
           id="g210"><path
             id="path212"
             style="fill:#2b2b2b;fill-opacity:1;fill-rule:nonzero;stroke:none"
             d="m 0,0 c 0,-5.926 -4.804,-10.729 -10.729,-10.729 -5.925,0 -10.729,4.803 -10.729,10.729 0,5.925 4.804,10.729 10.729,10.729 C -4.804,10.729 0,5.925 0,0" /></g><g
           transform="translate(852.8422,83.93)"
           id="g214"><path
             id="path216"
             style="fill:#8948c6;fill-opacity:1;fill-rule:nonzero;stroke:none"
             d="M 0,0 3,30.29 0,61.359 H 37.724 L 40.725,30.29 37.724,-0.778 Z" /></g><g
           transform="translate(854.4945,85.3958)"
           id="g218"><path
             id="path220"
             style="fill:#2b2b2b;fill-opacity:1;fill-rule:nonzero;stroke:none"
             d="m 0,0 34.712,-0.716 2.853,29.54 -2.856,29.57 H -10e-4 L 2.854,28.822 2.841,28.677 Z m 37.431,-3.772 -40.736,0.84 3.146,31.758 -3.145,32.568 h 40.738 l 3.145,-32.57 -0.014,-0.144 z" /></g><g
           transform="translate(886.3285,117.2601)"
           id="g222"><path
             id="path224"
             style="fill:#ffffff;fill-opacity:1;fill-rule:nonzero;stroke:none"
             d="m 0,0 c 0,-5.926 -4.804,-10.729 -10.729,-10.729 -5.925,0 -10.729,4.803 -10.729,10.729 0,5.925 4.804,10.729 10.729,10.729 C -4.804,10.729 0,5.925 0,0" /></g><g
           transform="translate(875.6,126.4886)"
           id="g226"><path
             id="path228"
             style="fill:#2b2b2b;fill-opacity:1;fill-rule:nonzero;stroke:none"
             d="m 0,0 c -5.089,0 -9.229,-4.14 -9.229,-9.229 0,-5.088 4.14,-9.229 9.229,-9.229 5.089,0 9.229,4.141 9.229,9.229 C 9.229,-4.14 5.089,0 0,0 m 0,-21.458 c -6.743,0 -12.229,5.486 -12.229,12.229 C -12.229,-2.485 -6.743,3 0,3 6.743,3 12.229,-2.485 12.229,-9.229 12.229,-15.972 6.743,-21.458 0,-21.458" /></g><g
           transform="translate(1189.6898,236.3704)"
           id="g230"><path
             id="path232"
             style="fill:#2b2b2b;fill-opacity:1;fill-rule:nonzero;stroke:none"
             d="m 0,0 c 0,-5.564 -4.511,-10.074 -10.075,-10.074 -5.565,0 -10.074,4.51 -10.074,10.074 0,5.564 4.509,10.074 10.074,10.074 C -4.511,10.074 0,5.564 0,0" /></g><g
           transform="translate(1174.1957,237.4788)"
           id="g234"><path
             id="path236"
             style="fill:#2b2b2b;fill-opacity:1;fill-rule:nonzero;stroke:none"
             d="m 0,0 c 0,-3.372 -2.733,-6.106 -6.105,-6.106 -3.373,0 -6.107,2.734 -6.107,6.106 0,3.372 2.734,6.105 6.107,6.105 C -2.733,6.105 0,3.372 0,0" /></g><g
           transform="translate(911.5131,232.8099)"
           id="g238"><path
             id="path240"
             style="fill:#2b2b2b;fill-opacity:1;fill-rule:nonzero;stroke:none"
             d="m 0,0 c -0.187,0.224 -18.596,22.646 -6.435,51.413 11.73,27.744 13.843,34.366 3.223,55.886 l 2.69,1.328 C 10.616,86.058 8.019,77.895 -3.671,50.245 -15.101,23.208 2.123,2.138 2.298,1.929 Z" /></g><g
           id="g242"><g
             id="g244" /><g
             id="g254"><g
               style="opacity:0.25"
               id="g252"
               clip-path="url(#clipPath248)"><path
                 id="path250"
                 style="fill:#ffffff;fill-opacity:1;fill-rule:nonzero;stroke:none"
                 d="m 949.854,83.824 h -3 v 107.543 h 3 z" /></g></g></g><g
           id="g256"><g
             id="g258" /><g
             id="g270"><g
               style="opacity:0.25"
               id="g268"
               clip-path="url(#clipPath262)"><g
                 id="g266"
                 transform="translate(1187.1957,100.7454)"><path
                   id="path264"
                   style="fill:#ffffff;fill-opacity:1;fill-rule:nonzero;stroke:none"
                   d="m 0,0 -1.937,2.291 c 26.166,22.14 3.253,87.17 3.019,87.824 l 2.824,1.012 C 3.966,90.96 9.939,74.148 12.474,54.728 15.917,28.331 11.721,9.918 0,0" /></g></g></g></g><g
           transform="translate(906.4789,439.9105)"
           id="g272"><path
             id="path274"
             style="fill:#f6c60c;fill-opacity:1;fill-rule:nonzero;stroke:none"
             d="m 0,0 c 0,-125.431 -101.682,-227.111 -227.112,-227.111 -125.43,0 -227.111,101.68 -227.111,227.111 0,125.43 101.681,227.111 227.111,227.111 C -101.682,227.111 0,125.43 0,0" /></g><g
           transform="translate(679.3671,665.5218)"
           id="g276"><path
             id="path278"
             style="fill:#2b2b2b;fill-opacity:1;fill-rule:nonzero;stroke:none"
             d="m 0,0 c -60.263,0 -116.919,-23.468 -159.531,-66.08 -42.613,-42.612 -66.08,-99.269 -66.08,-159.531 0,-60.263 23.467,-116.919 66.08,-159.532 42.612,-42.612 99.268,-66.08 159.531,-66.08 60.263,0 116.919,23.468 159.532,66.08 42.612,42.613 66.08,99.269 66.08,159.532 0,60.262 -23.468,116.919 -66.08,159.531 C 116.919,-23.468 60.263,0 0,0 m 0,-454.223 c -61.064,0 -118.474,23.78 -161.653,66.959 -43.179,43.179 -66.958,100.588 -66.958,161.653 0,61.064 23.779,118.473 66.958,161.653 C -118.474,-20.78 -61.064,3 0,3 c 61.064,0 118.474,-23.78 161.653,-66.958 43.179,-43.18 66.959,-100.589 66.959,-161.653 0,-61.065 -23.78,-118.474 -66.959,-161.653 C 118.474,-430.443 61.064,-454.223 0,-454.223" /></g><g
           transform="translate(742.3031,658.1854)"
           id="g280"><path
             id="path282"
             style="fill:#8948c6;fill-opacity:1;fill-rule:nonzero;stroke:none"
             d="m 0,0 -14.658,-13.392 2.02,-30.816 -16.166,-9.093 -16.671,7.072 -22.733,-2.02 -23.743,-26.27 c 0,0 -2.021,-9.093 0,-10.103 2.02,-1.01 12.629,-7.073 12.629,-7.073 l 16.386,13.135 c 0,0 4.832,-13.135 2.811,-13.135 -2.021,0 -16.166,-6.567 -16.166,-6.567 h -18.691 l -14.651,-9.093 c 0,0 2.526,29.3 0,29.3 -2.526,0 -15.155,-3.536 -15.155,-3.536 v -12.63 l 2.02,-13.134 -2.02,-7.073 10.103,3.536 -8.083,-15.155 -2.02,-6.567 c 0,0 -25.764,5.051 -25.764,3.031 0,-2.021 -5.557,-23.744 -5.557,-23.744 l 12.629,-6.062 16.671,6.062 8.083,12.63 20.712,6.567 9.599,-4.041 c 0,0 15.661,-9.094 15.155,-10.609 -0.505,-1.515 1.01,-10.609 1.01,-10.609 l 9.282,14.65 -12.312,12.125 c 0,0 10.48,3.536 12.312,-2.526 1.833,-6.062 5.369,-17.176 5.874,-19.702 0.505,-2.527 7.577,-4.547 7.577,-4.547 l 4.547,11.619 3.536,4.547 7.074,-16.166 h 23.743 c 0,0 2.525,-14.145 3.031,-15.66 0.505,-1.516 -6.062,-6.063 -2.526,-10.104 3.536,-4.042 -21.218,6.568 -21.218,6.568 l -15.155,-2.527 -26.269,-2.02 -19.703,14.144 -5.557,8.589 h -51.528 l -12.629,-15.661 -11.62,-10.012 c 0,0 -23.238,-29.892 -23.238,-33.431 v -23.746 l 11.114,-33.342 13.64,-12.629 c 0,0 28.29,6.061 30.311,6.061 2.021,0 25.259,0.506 26.774,-1.514 1.516,-2.022 12.63,-10.61 12.63,-10.61 0,0 1.018,-34.352 4.045,-36.878 3.027,-2.526 18.688,-23.238 17.678,-25.764 -1.011,-2.526 3.031,-30.311 3.031,-30.311 l 10.103,-17.681 9.599,-6.062 32.836,2.525 18.692,21.723 13.64,21.218 c 0,0 12.124,10.608 12.124,12.63 v 34.351 l 18.187,22.734 18.187,30.311 c 0,0 2.02,12.124 0,13.134 -2.021,1.011 -30.311,9.599 -31.827,11.62 -1.515,2.021 -23.744,23.458 -23.744,23.458 l -9.093,24.534 c 0,0 10.104,-4.042 10.609,-5.557 0.506,-1.516 16.166,-26.775 18.186,-27.785 2.021,-1.01 19.198,-12.629 19.198,-12.629 0,0 18.186,7.072 21.722,11.619 3.536,4.546 11.619,22.103 11.619,22.103 l -4.041,10.228 -23.744,8.083 -9.093,14.145 32.837,-8.083 h 21.723 c 1.516,0 11.619,-4.042 11.619,-4.042 l 27.279,-46.476 8.084,2.021 v 44.455 l 7.072,14.146 11.619,3.536 2.89,0.474 c 0,0 -16.513,124.315 -158.477,167.503" /></g><g
           transform="translate(669.9735,524.7703)"
           id="g284"><path
             id="path286"
             style="fill:#2b2b2b;fill-opacity:1;fill-rule:nonzero;stroke:none"
             d="M 0,0 10.415,-10.255 C 10.182,-9.499 9.951,-8.75 9.727,-8.026 9.063,-5.877 8.43,-3.827 7.926,-2.159 7.666,-1.297 7.174,-0.704 6.38,-0.294 4.694,0.577 2.054,0.384 0,0 m 41.186,-43.619 0.404,-0.173 c 6.744,-2.89 14.548,-5.905 18.336,-6.967 -1.002,2.981 1.14,5.907 2.395,7.622 0.323,0.441 0.749,1.022 0.911,1.337 -0.559,2.119 -2.158,10.906 -2.774,14.326 h -23.47 l -6.455,14.755 -1.856,-2.385 -4.965,-12.688 -1.311,0.375 c -1.865,0.534 -8.001,2.519 -8.636,5.696 -0.272,1.361 -1.562,5.644 -2.893,9.978 l -11.626,-18.351 -0.645,3.874 c -0.528,3.164 -1.31,8.443 -1.079,10.679 -1.334,1.484 -8.23,5.923 -14.278,9.439 l -9.001,3.79 -19.669,-6.236 -8.064,-12.6 -11.923,-4.336 h 40.545 l 5.847,-9.036 19.027,-13.66 25.657,1.973 z m 31.228,-22.739 c 0.002,-0.007 0.003,-0.013 0.006,-0.019 -0.003,0.006 -0.004,0.013 -0.006,0.019 m 0.111,-0.223 z m 20.173,-25.748 c 0.007,-0.003 0.013,-0.006 0.02,-0.01 -0.007,0.004 -0.014,0.007 -0.02,0.01 m -2.654,-127.929 z m -84.3,-51.176 8.862,-5.596 31.724,2.44 18.218,21.173 13.699,21.308 0.16,0.14 c 5.149,4.506 10.981,10.175 11.611,11.642 v 34.737 l 18.452,23.065 17.988,29.98 c 0.832,5.121 1.084,10.151 0.576,11.347 -0.967,0.393 -4.534,1.567 -7.992,2.705 -17.952,5.91 -23.149,7.904 -24.177,9.276 -1.059,1.411 -14.685,14.694 -23.585,23.277 l -0.246,0.238 -10.387,28.025 3.139,-1.256 c 10.749,-4.301 11.275,-5.881 11.473,-6.477 0.849,-2.052 15.328,-25.163 17.51,-26.956 2.142,-1.126 15.217,-9.936 18.637,-12.246 5.427,2.159 17.785,7.553 20.352,10.855 3.036,3.903 9.746,18.168 11.172,21.23 l -3.549,8.984 -23.583,8.028 -11.412,17.753 36.317,-8.94 h 21.541 c 1.629,0 9.057,-2.901 12.176,-4.149 l 0.477,-0.191 26.971,-45.951 5.857,1.465 v 43.639 l 7.519,15.038 12.43,3.769 1.415,0.232 c -1.123,6.505 -6.761,34.224 -25.641,65.663 -12.616,21.01 -28.594,39.551 -47.489,55.109 -23.421,19.286 -51.428,34.023 -83.25,43.808 L 59.215,119.402 61.25,88.363 43.619,78.445 26.615,85.659 4.84,83.724 -18.24,58.188 c -0.756,-3.573 -1.014,-7.234 -0.571,-8.125 1.944,-0.996 9.131,-5.083 11.676,-6.535 l 17.217,13.801 0.719,-1.956 C 15.274,43.213 14.129,41.572 13.753,41.033 13.393,40.516 12.829,40.22 12.205,40.22 10.954,40.126 3.317,36.878 -3.33,33.792 l -0.3,-0.139 h -18.595 l -16.83,-10.446 0.257,2.981 c 0.999,11.584 1.516,24.492 0.775,27.607 -2.421,-0.337 -8.604,-1.92 -12.935,-3.111 V 39.309 l 2.053,-13.346 -1.316,-4.603 10.998,3.849 -9.824,-18.42 -2.375,-7.72 -1.325,0.26 c -9.95,1.951 -21.104,3.668 -24.096,3.486 -0.668,-4.044 -3.95,-17.075 -5.179,-21.906 l 10.952,-5.258 15.601,5.674 8.102,12.658 21.756,6.899 10.279,-4.341 C 1.384,-13.166 0.89,-14.648 0.493,-15.84 c -0.139,-0.611 0.095,-3.116 0.473,-5.933 l 6.481,10.23 -13.187,12.985 2.31,0.78 c 0.71,0.239 7.055,2.279 11.181,0.153 1.524,-0.786 2.549,-2.019 3.047,-3.666 0.502,-1.664 1.134,-3.708 1.795,-5.85 1.835,-5.942 3.732,-12.085 4.114,-13.992 0.144,-0.721 2.524,-2.05 5.221,-2.987 l 4.114,10.515 5.217,6.708 7.692,-17.577 h 24.017 l 0.221,-1.236 c 0.969,-5.427 2.634,-14.42 2.978,-15.45 0.413,-1.24 -0.398,-2.347 -1.425,-3.75 -2.008,-2.743 -2.73,-4.316 -1.396,-5.84 1.133,-1.294 0.649,-2.268 0.389,-2.626 -0.739,-1.016 -1.745,-2.4 -22.922,6.654 l -14.854,-2.47 -26.814,-2.062 -20.377,14.629 -5.268,8.141 h -49.995 l -12.368,-15.298 -11.505,-9.914 c -10.962,-14.106 -22.479,-30.071 -22.834,-32.452 l 0.003,-23.442 10.915,-32.746 12.786,-11.839 c 6.107,1.305 27.883,5.931 29.863,5.931 0.197,0 0.598,0.005 1.162,0.012 24.988,0.3 26.087,-1.159 26.813,-2.126 1.015,-1.354 8.112,-7.051 12.347,-10.323 l 0.561,-0.434 0.021,-0.708 c 0.477,-16.09 1.936,-33.885 3.551,-35.812 1.782,-1.484 6.785,-7.847 10.566,-13.118 8.49,-11.836 7.845,-13.448 7.499,-14.314 -0.468,-1.744 1.19,-16.203 3.082,-29.257 z m 8.1,-8.663 -10.334,6.526 -10.43,18.253 -0.041,0.281 c -1.204,8.28 -3.861,27.555 -3.006,30.876 -0.351,3.129 -14.153,21.738 -17.179,24.264 -3.13,2.611 -4.224,26.384 -4.562,37.277 -2.399,1.865 -10.536,8.245 -12.245,10.326 -0.714,0.354 -4.51,1.309 -24.484,1.062 -0.582,-0.007 -0.995,-0.012 -1.198,-0.012 -1.556,-0.043 -19.226,-3.72 -29.996,-6.028 l -0.762,-0.163 -14.494,13.42 -11.312,33.938 v 23.989 c 0,3.658 16.472,25.242 23.554,34.352 l 0.205,0.216 11.516,9.923 12.994,16.113 h 2.292 l -9.9,4.753 0.305,1.191 c 2.645,10.339 5.475,22.046 5.51,23.378 0,0.515 0.237,1.008 0.651,1.349 0.563,0.462 2.255,1.854 25.576,-2.656 l 1.734,5.543 6.275,11.764 -9.209,-3.223 2.725,9.541 -1.987,13.038 v 13.768 l 1.095,0.307 c 1.313,0.367 12.905,3.591 15.56,3.591 0.524,0 1.019,-0.224 1.392,-0.631 1.962,-2.139 1.176,-16.912 0.348,-27.323 l 12.482,7.747 h 18.789 c 3.985,1.846 12.218,5.571 15.494,6.401 -0.105,1.594 -1.222,5.549 -2.515,9.312 L -6.85,39.912 -7.736,40.418 c -0.106,0.061 -10.596,6.053 -12.556,7.033 -2.537,1.268 -1.832,7.101 -0.794,11.771 l 0.086,0.386 24.403,27 23.692,2.106 16.338,-6.931 14.7,8.269 -2.006,30.593 15.822,14.454 0.817,-0.249 c 32.571,-9.909 61.227,-24.938 85.17,-44.67 19.165,-15.794 35.366,-34.615 48.154,-55.941 21.783,-36.323 26.161,-67.816 26.203,-68.13 l 0.192,-1.442 -4.228,-0.693 -10.906,-3.319 -6.626,-13.253 V -97.87 l -10.308,-2.578 -27.587,47.001 c -4.492,1.784 -9.694,3.677 -10.614,3.746 l -21.877,-10e-4 -0.176,0.043 -29.181,7.184 6.773,-10.538 23.906,-8.138 4.532,-11.469 -0.269,-0.582 c -0.333,-0.723 -8.196,-17.768 -11.798,-22.397 -3.683,-4.737 -20.461,-11.358 -22.362,-12.097 l -0.733,-0.284 -0.652,0.44 c -6.871,4.649 -17.609,11.822 -19.027,12.53 -0.558,0.279 -1.718,0.859 -10.255,14.238 -3.139,4.921 -7.888,12.598 -8.613,14.236 -0.61,0.646 -3.497,2.101 -6.647,3.487 l 7.772,-20.969 c 3.166,-3.055 21.757,-21.016 23.602,-23.331 1.636,-1.337 15.896,-6.031 22.769,-8.294 5.146,-1.694 7.865,-2.595 8.582,-2.953 3.012,-1.505 1.354,-11.453 0.809,-14.723 l -0.047,-0.28 -18.449,-30.722 -17.857,-22.322 v -33.825 c 0,-2.657 -9.2,-10.752 -12.476,-13.619 L 66.89,-255.294 47.794,-277.487 Z" /></g><g
           transform="translate(795.8441,316.4261)"
           id="g288"><path
             id="path290"
             style="fill:#8948c6;fill-opacity:1;fill-rule:nonzero;stroke:none"
             d="m 0,0 c 0,0 -7.578,-17.682 -9.094,-18.187 -1.515,-0.504 -14.65,4.041 -17.176,-7.578 -2.526,-11.619 -6.567,-19.196 -3.031,-21.216 3.536,-2.022 7.072,-2.527 7.072,-2.527 l 17.682,24.754 7.578,15.661 z" /></g><g
           transform="translate(780.3412,297.1771)"
           id="g292"><path
             id="path294"
             style="fill:#2b2b2b;fill-opacity:1;fill-rule:nonzero;stroke:none"
             d="m 0,0 c -4.817,0 -8.16,-1.588 -9.301,-6.834 -0.794,-3.651 -1.721,-6.861 -2.54,-9.693 -1.41,-4.88 -2.628,-9.094 -1.213,-9.903 2.223,-1.27 4.474,-1.901 5.668,-2.172 l 17.047,23.866 7.257,14.997 -1.599,4.795 C 8.837,0.29 7.533,-0.144 6.883,-0.36 6.267,-0.567 5.525,-0.474 4.181,-0.303 2.69,-0.114 1.292,0 0,0 m -6.035,-31.873 -0.902,0.129 c -0.157,0.022 -3.864,0.57 -7.605,2.71 -3.465,1.978 -2.158,6.498 -0.181,13.34 0.805,2.786 1.718,5.944 2.491,9.497 C -9.906,4.504 0.602,3.176 4.557,2.673 4.979,2.62 5.473,2.558 5.798,2.532 c 1.303,1.707 5.15,9.897 8.326,17.308 l 1.555,3.626 4.471,-13.414 -7.973,-16.429 z" /></g><g
           transform="translate(631.66,658.1854)"
           id="g296"><path
             id="path298"
             style="fill:#8948c6;fill-opacity:1;fill-rule:nonzero;stroke:none"
             d="m 0,0 10.609,-2.278 c 0,0 11.114,-12.629 8.588,-16.165 -2.526,-3.536 -16.166,-16.166 -16.166,-16.166 0,0 -21.723,-13.135 -24.249,-12.63 -2.526,0.506 -31.321,-9.598 -34.352,-11.114 -3.031,-1.515 -10.609,-4.546 -10.609,-4.546 l 4.547,15.66 c 0,0 19.197,7.578 23.238,10.104 4.041,2.526 16.166,15.156 18.187,18.186 2.02,3.032 6.567,9.094 0,7.073 -6.567,-2.021 -22.228,-8.588 -22.228,-8.588 0,0 -13.135,-17.682 -16.166,-17.682 -3.031,0 -23.744,-20.712 -27.785,-24.753 -4.041,-4.042 -15.66,-20.207 -15.66,-20.207 0,0 -18.187,-1.011 -20.713,0 -2.526,1.01 -12.424,-0.47 -13.358,-1.769 C -137.05,-86.174 -86.891,-10.352 0,0" /></g><g
           transform="translate(572.9471,621.5291)"
           id="g300"><path
             id="path302"
             style="fill:#2b2b2b;fill-opacity:1;fill-rule:nonzero;stroke:none"
             d="M 0,0 Z M 0.114,-2.989 H 0.112 Z m 37.674,-6.122 c 0.001,0 0.001,0 0.002,-10e-4 -10e-4,10e-4 -10e-4,10e-4 -0.002,10e-4 M -66.903,-44.638 c 1.462,0 2.693,-0.131 3.414,-0.42 1.373,-0.538 10.784,-0.39 19.358,0.067 2.155,2.982 11.709,16.12 15.398,19.808 C -4.107,-0.554 -1.108,-0.002 0.036,0.01 1.929,0.602 9.29,9.301 15.074,17.087 l 0.245,0.33 0.379,0.159 c 0.642,0.269 15.804,6.618 22.366,8.638 0.999,0.307 3.652,1.124 4.888,-0.549 1.337,-1.81 -0.276,-4.478 -2.7,-8.051 L 39.754,16.875 C 37.728,13.837 25.486,0.982 21.114,-1.751 17.396,-4.075 1.838,-10.307 -1.684,-11.706 l -3.478,-11.98 c 2.454,1.011 5.866,2.447 7.634,3.332 1.553,0.776 31.247,11.708 35.21,11.259 1.963,0.156 13.255,6.366 23.155,12.346 4.715,4.37 13.94,13.157 15.852,15.834 0.849,1.188 -2.458,7.351 -8.169,13.932 l -9.877,2.12 c -73.445,-8.864 -120.671,-65.315 -132.089,-80.435 2.134,0.417 4.552,0.66 6.543,0.66 m -9.965,-5.404 -2.186,0.841 0.15,1.159 c 0.01,0.08 0.125,0.302 0.341,0.655 l -0.059,0.044 c 0.07,0.097 0.159,0.192 0.266,0.285 2.753,4.288 15.722,21.456 35.753,38.608 21.38,18.307 56.282,41.252 101.139,46.596 l 0.248,0.029 11.337,-2.434 0.327,-0.372 C 74.026,31.303 82.035,21.407 79.13,17.341 76.545,13.722 63.325,1.466 62.763,0.946 L 62.52,0.763 C 52.382,-5.366 39.748,-12.568 37.201,-12.053 c -0.016,0 -0.034,0.001 -0.052,0.001 -2.935,0 -30.049,-9.343 -33.335,-10.986 -3.052,-1.526 -10.411,-4.473 -10.723,-4.598 l -2.855,-1.142 5.609,19.32 0.685,0.27 c 0.191,0.076 19.115,7.556 22.994,9.981 3.73,2.332 15.735,14.749 17.734,17.747 l 0.512,0.759 c 0.694,1.023 2.188,3.223 2.568,4.368 -0.289,-0.033 -0.733,-0.118 -1.391,-0.32 C 33.088,21.543 19.661,15.978 17.236,14.967 11.132,6.773 3.35,-2.805 0.202,-2.987 -0.452,-3.174 -4.576,-5.265 -26.612,-27.304 -30.521,-31.213 -42,-47.165 -42.116,-47.326 l -0.418,-0.582 -0.716,-0.04 c -4.344,-0.242 -18.723,-0.948 -21.353,0.105 -1.872,0.75 -10.193,-0.395 -11.656,-1.353 z" /></g><g
           transform="translate(452.3612,446.762)"
           id="g304"><path
             id="path306"
             style="fill:#8948c6;fill-opacity:1;fill-rule:nonzero;stroke:none"
             d="m 0,0 c 0,0 6.021,-16.67 6.527,-22.732 0.505,-6.063 2.526,-23.239 2.526,-23.239 0,0 15.155,-20.207 17.681,-22.733 2.526,-2.525 13.135,-24.754 13.135,-27.785 0,-3.031 0.505,-20.207 0,-21.723 -0.505,-1.516 0.224,-12.124 0.224,-12.124 0,0 -45.105,65.166 -40.093,130.336" /></g><g
           transform="translate(453.4945,438.7982)"
           id="g308"><path
             id="path310"
             style="fill:#2b2b2b;fill-opacity:1;fill-rule:nonzero;stroke:none"
             d="m 0,0 c -0.833,-51.288 27.63,-101.481 37.146,-116.793 -0.122,3.026 -0.149,6.073 0.166,7.019 0.292,1.272 0.09,11.767 -0.006,16.812 -0.039,2.049 -0.071,3.681 -0.071,4.437 -0.066,2.686 -10.388,24.418 -12.694,26.724 -2.573,2.572 -17.2,22.066 -17.822,22.894 l -0.242,0.323 -0.047,0.402 C 6.41,-38.01 4.4,-20.911 3.899,-14.894 3.63,-11.668 1.684,-5.164 0,0 m 40.831,-127.71 -3.104,4.484 c -0.455,0.657 -45.351,66.355 -40.356,131.305 l 0.535,6.959 2.371,-6.564 c 0.249,-0.689 6.096,-16.928 6.611,-23.118 0.455,-5.455 2.167,-20.164 2.474,-22.787 5.292,-7.05 15.391,-20.34 17.3,-22.249 2.567,-2.566 13.573,-25.189 13.573,-28.845 0,-0.746 0.032,-2.357 0.07,-4.38 0.241,-12.593 0.207,-16.756 -0.147,-17.818 -0.24,-0.918 -0.034,-6.714 0.299,-11.547 z" /></g><g
           id="g312"><g
             id="g314" /><g
             id="g326"><g
               style="opacity:0.25"
               id="g324"
               clip-path="url(#clipPath318)"><g
                 id="g322"
                 transform="translate(664.3114,312.0228)"><path
                   id="path320"
                   style="fill:#ffffff;fill-opacity:1;fill-rule:nonzero;stroke:none"
                   d="m 0,0 -16.232,18.979 1.613,32.535 c -3.909,2.924 -11.6,8.767 -12.518,10.143 -0.504,0.639 -3.908,2.68 -5.941,3.9 -1.955,1.172 -3.643,2.185 -4.465,2.842 -1.036,0.75 -7.778,1.808 -13.496,2.368 l -40.328,-4.713 -7.859,6.113 -10.905,15.861 -3.503,24.913 0.098,0.32 c 1.407,4.57 3.559,12.539 3.349,14.465 -0.346,3.175 7.802,11.666 12.774,16.52 l 13.538,19.907 14.593,12.719 1.971,-2.262 -14.301,-12.464 -13.598,-19.942 c -5.675,-5.533 -11.848,-12.565 -11.992,-14.216 0.321,-2.907 -2.558,-12.631 -3.368,-15.29 l 3.311,-23.552 10.242,-14.897 6.522,-5.072 39.426,4.607 0.159,-0.015 c 3.917,-0.378 13.243,-1.43 15.239,-3.026 0.666,-0.532 2.43,-1.59 4.136,-2.613 4.179,-2.507 6.221,-3.799 6.894,-4.809 0.662,-0.861 6.857,-5.706 12.456,-9.882 l 0.642,-0.477 -1.633,-32.94 L 2.28,1.949 Z" /></g></g></g></g><g
           id="g328"><g
             id="g330" /><g
             id="g342"><g
               style="opacity:0.25"
               id="g340"
               clip-path="url(#clipPath334)"><g
                 id="g338"
                 transform="translate(658.3099,576.5067)"><path
                   id="path336"
                   style="fill:#ffffff;fill-opacity:1;fill-rule:nonzero;stroke:none"
                   d="m 0,0 -2.493,1.669 17.136,25.59 20.176,3.445 20.242,-8.642 19.4,10.608 L 75.9,30.039 55.223,18.73 34.454,27.598 16.418,24.519 Z" /></g></g></g></g><g
           id="g344"><g
             id="g346" /><g
             id="g358"><g
               style="opacity:0.25"
               id="g356"
               clip-path="url(#clipPath350)"><g
                 id="g354"
                 transform="translate(465.2177,411.4114)"><path
                   id="path352"
                   style="fill:#ffffff;fill-opacity:1;fill-rule:nonzero;stroke:none"
                   d="m 0,0 c -6.733,67.281 25.554,136.411 25.881,137.102 l 2.712,-1.284 C 28.269,135.134 -3.664,66.734 2.985,0.299 Z" /></g></g></g></g><g
           transform="translate(431.3524,570.074)"
           id="g360"><path
             id="path362"
             style="fill:#232323;fill-opacity:1;fill-rule:nonzero;stroke:none"
             d="m 0,0 -44.824,7.314 c -18.849,3.076 -31.636,20.85 -28.56,39.699 3.076,18.85 20.849,31.637 39.699,28.561 L 11.138,68.26 C 29.988,65.184 42.775,47.41 39.699,28.561 36.623,9.711 18.849,-3.076 0,0" /></g><g
           transform="translate(390.7426,433.6507)"
           id="g364"><path
             id="path366"
             style="fill:#232323;fill-opacity:1;fill-rule:nonzero;stroke:none"
             d="m 0,0 -3.575,0.428 c -30.428,3.646 -52.139,31.269 -48.493,61.697 l 7.036,58.713 c 3.647,30.428 31.269,52.139 61.698,48.492 l 3.575,-0.428 c 30.428,-3.647 52.138,-31.269 48.492,-61.697 L 61.697,48.492 C 58.051,18.063 30.428,-3.646 0,0" /></g><g
           transform="translate(391.556,623.3201)"
           id="g368"><path
             id="path370"
             style="fill:#8948c6;fill-opacity:1;fill-rule:nonzero;stroke:none"
             d="M 0,0 C 5.042,14.667 -2.76,30.646 -17.428,35.688 -32.095,40.73 -48.073,32.928 -53.115,18.261 -56.028,9.79 -54.648,0.886 -50.144,-6.1 c -2.898,-2.005 -5.215,-4.902 -6.449,-8.49 -1.511,-4.395 -1.121,-8.98 0.719,-12.874 -2.041,-1.148 -3.689,-3.01 -4.51,-5.398 -1.777,-5.169 0.972,-10.8 6.141,-12.576 5.169,-1.778 10.8,0.972 12.577,6.141 0.233,0.679 0.384,1.365 0.466,2.05 7.402,-0.346 14.451,4.165 16.982,11.526 0.793,2.306 1.056,4.663 0.87,6.948 C -12.943,-17.569 -3.633,-10.567 0,0" /></g><g
           transform="translate(364.976,659.0477)"
           id="g372"><path
             id="path374"
             style="fill:#2b2b2b;fill-opacity:1;fill-rule:nonzero;stroke:none"
             d="m 0,0 c -3.988,0 -7.954,-0.909 -11.643,-2.71 -6.38,-3.116 -11.165,-8.53 -13.474,-15.245 -2.664,-7.749 -1.639,-16.154 2.814,-23.06 l 0.786,-1.22 -1.193,-0.826 c -2.766,-1.913 -4.8,-4.591 -5.884,-7.745 -1.329,-3.865 -1.096,-8.036 0.657,-11.745 l 0.596,-1.263 -1.218,-0.686 c -1.8,-1.012 -3.16,-2.638 -3.827,-4.577 -1.505,-4.379 0.833,-9.165 5.211,-10.671 2.122,-0.728 4.4,-0.588 6.415,0.396 2.015,0.984 3.527,2.694 4.256,4.815 0.19,0.554 0.323,1.14 0.395,1.741 l 0.166,1.385 1.394,-0.065 c 6.89,-0.323 13.254,4.002 15.493,10.516 0.702,2.043 0.969,4.175 0.793,6.337 l -0.118,1.445 1.441,0.167 c 10.117,1.171 18.792,8.146 22.102,17.771 C 29.927,-21.378 22.526,-6.224 8.665,-1.458 5.832,-0.484 2.91,0 0,0 m -24.455,-83.205 c -1.226,0 -2.472,0.2 -3.695,0.621 -5.943,2.042 -9.116,8.539 -7.073,14.482 0.759,2.207 2.176,4.114 4.05,5.482 -1.601,4.104 -1.7,8.598 -0.258,12.79 1.139,3.315 3.158,6.188 5.875,8.384 -4.329,7.446 -5.211,16.284 -2.398,24.467 2.569,7.473 7.894,13.498 14.995,16.965 7.1,3.468 15.126,3.962 22.599,1.393 7.473,-2.569 13.498,-7.894 16.965,-14.995 3.468,-7.101 3.962,-15.127 1.394,-22.599 -3.531,-10.269 -12.551,-17.828 -23.21,-19.582 0.013,-2.091 -0.325,-4.15 -1.008,-6.139 -2.526,-7.347 -9.461,-12.357 -17.15,-12.551 -0.084,-0.348 -0.183,-0.69 -0.298,-1.024 -1.623,-4.721 -6.055,-7.694 -10.788,-7.694" /></g><g
           transform="translate(387.4999,634.5677)"
           id="g376"><path
             id="path378"
             style="fill:#ffffff;fill-opacity:1;fill-rule:nonzero;stroke:none"
             d="m 0,0 -105.14,-37.425 c -4.132,-1.533 -5.523,-6.681 -2.725,-10.086 l 60.957,-74.163 c -2.185,-1.593 -6.054,-8.568 -7.02,-13.614 -0.463,-2.414 -7.796,-5.709 -8.505,-8.971 4.141,-8.063 20.082,5.615 20.082,5.615 l 9.161,15.705 -48.597,72.428 70.136,23.482" /></g><g
           transform="translate(329.3798,486.2669)"
           id="g380"><path
             id="path382"
             style="fill:#2b2b2b;fill-opacity:1;fill-rule:nonzero;stroke:none"
             d="m 0,0 c -0.494,0 -0.974,0.043 -1.437,0.133 -1.858,0.365 -3.314,1.479 -4.21,3.223 l -0.246,0.479 0.114,0.525 c 0.496,2.279 2.941,4.165 5.305,5.99 1.137,0.878 3.041,2.346 3.193,2.949 0.842,4.391 3.88,10.576 6.449,13.452 l -60.071,73.086 c -1.646,2.003 -2.202,4.587 -1.526,7.089 0.676,2.502 2.457,4.454 4.887,5.356 l 105.159,37.432 1.006,-2.826 -105.14,-37.426 c -1.49,-0.553 -2.596,-1.765 -3.016,-3.318 -0.42,-1.554 -0.074,-3.158 0.947,-4.401 L 13.381,26.351 12.096,25.415 C 10.346,24.14 6.583,17.523 5.665,12.73 5.343,11.049 3.497,9.624 1.358,7.975 -0.175,6.791 -2.037,5.354 -2.659,4.204 -2.211,3.591 -1.628,3.229 -0.86,3.077 3.474,2.235 11.588,8.095 14.603,10.635 l 8.558,14.671 -49.169,73.282 72.001,24.106 0.952,-2.845 L -21.325,96.992 26.699,25.417 16.937,8.684 16.746,8.519 C 15.666,7.593 6.614,0 0,0" /></g><g
           transform="translate(336.6219,96.0657)"
           id="g384"><path
             id="path386"
             style="fill:#2b2b2b;fill-opacity:1;fill-rule:nonzero;stroke:none"
             d="m 0,0 21.774,-13.638 -36.617,0.74 1.426,13.221 z" /></g><g
           transform="translate(380.5975,107.2825)"
           id="g388"><path
             id="path390"
             style="fill:#2b2b2b;fill-opacity:1;fill-rule:nonzero;stroke:none"
             d="m 0,0 -11.04,-16.525 -6.757,-8.329 h 10.02 c 0,0 20.271,14.853 20.271,15.551 0,0.699 -2.007,7.457 -2.007,7.457 L -1.02,0" /></g><g
           transform="translate(438.5287,625.8548)"
           id="g392"><path
             id="path394"
             style="fill:#ffffff;fill-opacity:1;fill-rule:nonzero;stroke:none"
             d="m 0,0 109.906,10.509 c 5.343,0.511 8.995,-5.272 6.238,-9.876 L 77.592,-63.753 c 0,0 -1.747,-18.699 -1.573,-19.398 0.175,-0.699 3.146,-4.893 2.447,-7.515 -0.699,-2.621 -13.981,2.313 -15.029,8.409 -1.049,6.096 2.796,23.048 2.796,23.048 L 91.637,-7.74 4.717,-22.447 0,-4.569" /></g><g
           transform="translate(515.4095,532.9695)"
           id="g396"><path
             id="path398"
             style="fill:#2b2b2b;fill-opacity:1;fill-rule:nonzero;stroke:none"
             d="m 0,0 c -0.096,0 -0.195,0.002 -0.297,0.007 -4.431,0.2 -13.653,4.716 -14.626,10.367 -1.086,6.318 2.652,22.93 2.812,23.633 l 0.118,0.333 24.104,48.836 -85.376,-14.446 -5.066,19.204 2.9,0.765 4.368,-16.553 L 17.4,87.114 -9.223,33.173 c -0.395,-1.778 -3.675,-16.873 -2.743,-22.29 0.312,-1.815 2.34,-3.93 5.423,-5.658 3.042,-1.706 5.732,-2.308 6.735,-2.23 0.069,1.487 -1.259,3.906 -1.856,4.992 -0.364,0.663 -0.565,1.029 -0.653,1.383 -0.077,0.309 -0.236,0.948 1.535,19.902 l 0.032,0.339 38.726,64.678 c 0.998,1.667 0.975,3.642 -0.062,5.284 -1.038,1.643 -2.805,2.516 -4.746,2.328 l -109.906,-10.509 -0.285,2.986 109.906,10.51 c 3.035,0.287 5.938,-1.133 7.567,-3.713 1.63,-2.58 1.668,-5.809 0.1,-8.427 L 2.173,28.654 C 1.558,22.05 0.643,11.698 0.625,10.04 0.687,9.931 0.815,9.706 0.966,9.431 2.299,7.002 3.669,4.212 3.034,1.833 2.884,1.27 2.29,0 0,0" /></g><g
           transform="translate(433.3231,691.6058)"
           id="g400"><path
             id="path402"
             style="fill:#8948c6;fill-opacity:1;fill-rule:nonzero;stroke:none"
             d="M 0,0 C 0.138,-0.169 0.289,-0.325 0.434,-0.488 0.031,-0.949 -0.35,-1.428 -0.707,-1.926 -0.447,-1.296 -0.212,-0.653 0,0 m 25.721,2.269 c 1.256,2.249 1.979,4.837 1.979,7.596 0,7.776 -5.692,14.204 -13.132,15.394 0.001,0.063 0.01,0.124 0.01,0.188 0,9.473 -7.68,17.153 -17.153,17.153 -6.366,0 -11.909,-3.476 -14.869,-8.626 -2.572,0.816 -5.309,1.259 -8.151,1.259 -14.863,0 -26.912,-12.048 -26.912,-26.912 0,-5.669 1.756,-10.925 4.749,-15.262 -3.937,-3.202 -6.455,-8.08 -6.455,-13.55 0,-9.645 7.818,-17.463 17.463,-17.463 9.644,0 17.462,7.818 17.462,17.463 0,0.886 -0.087,1.75 -0.214,2.6 6.85,1.587 12.697,5.785 16.434,11.494 -0.739,-2.019 -1.163,-4.188 -1.163,-6.463 0,-10.388 8.421,-18.809 18.809,-18.809 10.388,0 18.809,8.421 18.809,18.809 0,6.212 -3.024,11.704 -7.666,15.129" /></g><g
           transform="translate(407.7284,725.3392)"
           id="g404"><path
             id="path406"
             style="fill:#2b2b2b;fill-opacity:1;fill-rule:nonzero;stroke:none"
             d="m 0,0 c -14.013,0 -25.413,-11.4 -25.413,-25.413 0,-5.175 1.551,-10.158 4.484,-14.409 l 0.787,-1.141 -1.075,-0.875 c -3.751,-3.051 -5.902,-7.566 -5.902,-12.387 0,-8.801 7.161,-15.963 15.963,-15.963 8.802,0 15.963,7.162 15.963,15.963 0,0.72 -0.063,1.476 -0.198,2.379 l -0.206,1.37 1.351,0.313 c 6.394,1.481 11.905,5.335 15.518,10.854 l 1.318,2.014 0.911,2.208 c 0.241,0.585 0.466,1.196 0.667,1.816 l 0.848,2.615 1.067,-1.305 2.348,3.587 -1.634,-4.459 c 0.062,-0.073 0.126,-0.142 0.19,-0.212 l 1.04,-1.17 -0.87,-0.994 c -0.371,-0.424 -0.724,-0.87 -1.051,-1.325 l -1.356,-1.891 -0.814,-2.222 c -0.712,-1.942 -1.073,-3.942 -1.073,-5.946 0,-9.545 7.765,-17.31 17.31,-17.31 9.544,0 17.309,7.765 17.309,17.31 0,5.538 -2.572,10.613 -7.057,13.922 l -1.064,0.784 0.645,1.154 c 1.17,2.095 1.788,4.468 1.788,6.865 0,6.962 -4.991,12.813 -11.868,13.912 l -1.273,0.204 0.019,1.483 C 38.673,0.344 31.651,7.366 23.02,7.366 17.441,7.366 12.242,4.349 9.451,-0.507 L 8.849,-1.555 7.696,-1.189 C 5.211,-0.4 2.621,0 0,0 m -11.156,-73.188 c -10.456,0 -18.963,8.507 -18.963,18.963 0,5.274 2.166,10.238 5.985,13.82 -2.803,4.499 -4.279,9.654 -4.279,14.992 C -28.413,-9.746 -15.667,3 0,3 2.536,3 5.045,2.665 7.477,2.002 c 3.441,5.188 9.292,8.364 15.543,8.364 9.934,0 18.079,-7.805 18.624,-17.605 7.692,-1.807 13.15,-8.611 13.15,-16.629 0,-2.478 -0.544,-4.936 -1.584,-7.18 4.576,-3.845 7.272,-9.565 7.272,-15.545 0,-11.199 -9.111,-20.31 -20.309,-20.31 -11.199,0 -20.31,9.111 -20.31,20.31 0,0.294 0.007,0.589 0.02,0.883 -0.356,-0.351 -0.721,-0.69 -1.094,-1.02 l -0.21,-0.293 0.069,0.169 c -3.135,-2.734 -6.844,-4.75 -10.909,-5.896 0.046,-0.513 0.068,-0.998 0.068,-1.475 0,-10.456 -8.507,-18.963 -18.963,-18.963" /></g><g
           transform="translate(443.7347,710.2322)"
           id="g408"><path
             id="path410"
             style="fill:#ffffff;fill-opacity:1;fill-rule:nonzero;stroke:none"
             d="m 0,0 c 0.307,-8.734 -8.411,-18.607 -21.448,-23.437 -11.376,-4.215 -22.756,-3.37 -29.098,1.447 -0.059,-0.786 -0.1,-1.578 -0.1,-2.379 0,-17.226 13.964,-31.19 31.19,-31.19 17.226,0 31.19,13.964 31.19,31.19 C 11.734,-14.504 7.149,-5.715 0,0" /></g><g
           transform="translate(394.5907,685.5584)"
           id="g412"><path
             id="path414"
             style="fill:#2b2b2b;fill-opacity:1;fill-rule:nonzero;stroke:none"
             d="m 0,0 c 0.165,-16.231 13.419,-29.385 29.688,-29.385 16.371,0 29.69,13.319 29.69,29.69 0,8.079 -3.233,15.673 -8.96,21.246 C 48.914,12.91 40.279,4.299 28.217,-0.17 17.839,-4.016 7.129,-3.888 0,0 m 29.688,-32.385 c -18.025,0 -32.689,14.664 -32.689,32.69 0,0.761 0.032,1.553 0.103,2.491 l 0.207,2.75 2.196,-1.668 c 6.079,-4.617 17.2,-5.113 27.67,-1.235 12.15,4.502 20.759,13.745 20.47,21.978 l -0.115,3.263 2.551,-2.038 c 7.815,-6.248 12.297,-15.557 12.297,-25.541 0,-18.026 -14.665,-32.69 -32.69,-32.69" /></g><g
           transform="translate(357.1781,261.4134)"
           id="g416"><path
             id="path418"
             style="fill:#8948c6;fill-opacity:1;fill-rule:nonzero;stroke:none"
             d="m 0,0 -9.105,43.325 36.653,150.563 13.76,-3.106 C 37.983,166.156 16.173,82.303 0,0 m 84.399,226.891 -8.909,40.423 0.129,0.286 -61.459,11.289 0.034,-0.88 -16.145,-29.669 -7.165,-12.145 c -5.191,-8.97 -9.417,-18.711 -10.882,-28.97 -4.258,-29.835 -23.637,-161.631 -22.6,-158.342 9.281,-37.021 20.564,-74.385 31.135,-106.946 -11.706,-59.047 -20.945,-104.998 -21.041,-105.76 l 12.99,-1.632 21.327,67.734 c 12.181,-35.355 21.178,-58.887 21.111,-59.423 -0.262,-2.083 10.487,-1.845 10.487,-1.845 l -20.37,96.93 75.969,241.284 c 3.495,21.669 -1.274,32.522 -4.611,47.666" /></g><g
           transform="translate(349.6112,304.7142)"
           id="g420"><path
             id="path422"
             style="fill:#2b2b2b;fill-opacity:1;fill-rule:nonzero;stroke:none"
             d="m 0,0 7.524,-35.806 c 8.102,40.476 17.427,81.035 25.002,113.99 7.143,31.072 12.841,55.857 14.669,68.139 l -10.971,2.476 z m 7.616,-50.829 -10.692,50.878 0.08,0.33 37.003,151.996 16.538,-3.732 -0.184,-1.362 C 48.757,135.397 42.885,109.853 35.45,77.512 27.43,42.622 17.448,-0.798 9.039,-43.59 Z m -30.78,-155.006 10.163,-1.276 22.317,70.881 1.482,-4.303 c 7.544,-21.896 13.819,-39.126 17.568,-49.421 2.604,-7.149 3.367,-9.244 3.566,-10.058 0.944,-0.428 3.949,-0.75 7.2,-0.788 l -20.073,95.517 0.118,0.374 75.937,241.18 c 2.768,17.266 0.255,27.271 -2.655,38.851 -0.655,2.608 -1.333,5.307 -1.958,8.145 l -8.766,39.774 -58.744,10.79 -16.057,-29.508 -7.191,-12.19 c -5.921,-10.234 -9.42,-19.534 -10.689,-28.421 -1.169,-8.193 -3.479,-24.075 -6.193,-42.737 C -23.52,77.1 -33.092,11.279 -33.554,5.859 -25.5,-26.255 -15.042,-62.174 -2.47,-100.9 l 0.121,-0.371 -0.076,-0.384 c -6.357,-32.065 -11.986,-60.267 -15.819,-79.469 -2.456,-12.306 -4.247,-21.281 -4.92,-24.711 m 12.272,-4.565 -15.72,1.974 0.187,1.489 c 0.048,0.382 1.383,7.083 5.239,26.4 3.818,19.125 9.417,47.177 15.742,79.082 -12.468,38.428 -22.855,74.093 -30.88,106.029 -0.368,0.557 -0.228,1.666 0.086,4.144 0.245,1.943 0.625,4.768 1.112,8.307 0.909,6.598 2.224,15.893 4.019,28.414 3.275,22.855 7.558,52.304 10.999,75.967 2.714,18.659 5.023,34.538 6.192,42.73 1.325,9.274 4.945,18.926 11.069,29.51 l 7.171,12.156 15.922,29.26 -0.092,2.34 65.187,-11.973 -0.712,-1.578 8.802,-39.938 c 0.616,-2.796 1.288,-5.472 1.938,-8.06 2.871,-11.429 5.583,-22.225 2.689,-40.168 l -0.05,-0.211 -75.851,-240.91 20.66,-98.314 -1.806,-0.04 c -3.591,-0.072 -9.849,0.054 -11.458,1.839 -0.354,0.392 -0.55,0.867 -0.566,1.363 -0.244,0.834 -1.6,4.555 -3.44,9.608 -3.504,9.621 -9.212,25.294 -16.101,45.174 z" /></g><g
           transform="translate(454.5599,600.6985)"
           id="g424"><path
             id="path426"
             style="fill:#f6c60c;fill-opacity:1;fill-rule:nonzero;stroke:none"
             d="m 0,0 12.15,3.568 -3.814,26.48 -29.139,-2.65 -46.091,8.111 -36.394,-13.497 4.177,-23.896 18.612,6.666 c -3.209,-8.603 -4.69,-17.77 -4.331,-26.975 l 1.482,-37.968 -0.72,-1.323 62.047,-9.515 -0.031,0.143 17.416,38.651 c 3.447,7.649 5.11,15.98 4.865,24.366 z" /></g><g
           transform="translate(372.7186,540.3904)"
           id="g428"><path
             id="path430"
             style="fill:#2b2b2b;fill-opacity:1;fill-rule:nonzero;stroke:none"
             d="M 0,0 58.832,-9.022 75.838,28.72 c 3.333,7.398 4.97,15.595 4.733,23.705 l -0.263,8.996 12.014,3.528 -3.426,23.785 -27.921,-2.54 -0.197,0.035 -45.69,8.041 -34.842,-12.922 3.655,-20.911 19.975,7.154 -1.128,-3.025 C -0.417,56.084 -1.842,47.204 -1.49,38.173 Z m 61.752,-12.505 -66.317,10.17 1.543,2.836 -1.466,37.555 c -0.326,8.373 0.81,16.621 3.382,24.564 L -18.441,56.411 -23.14,83.292 14.807,97.365 61.101,89.218 91.459,91.979 95.662,62.803 83.375,59.195 83.57,52.513 C 83.82,43.951 82.092,35.297 78.573,27.487 L 61.361,-10.712 Z" /></g><g
           transform="translate(363.7738,575.7352)"
           id="g432"><path
             id="path434"
             style="fill:#8948c6;fill-opacity:1;fill-rule:nonzero;stroke:none"
             d="m 0,0 v 0 c -3.536,1.608 -5.099,5.777 -3.491,9.313 l 24.85,54.647 c 1.608,3.536 5.777,5.099 9.313,3.491 3.536,-1.608 5.099,-5.778 3.491,-9.313 L 9.313,3.491 C 7.705,-0.045 3.536,-1.607 0,0" /></g><g
           transform="translate(364.3944,577.1009)"
           id="g436"><path
             id="path438"
             style="fill:#2b2b2b;fill-opacity:1;fill-rule:nonzero;stroke:none"
             d="m 0,0 c 2.778,-1.265 6.064,-0.031 7.327,2.746 l 24.85,54.648 c 0.612,1.344 0.662,2.847 0.144,4.231 -0.519,1.384 -1.545,2.483 -2.89,3.094 -2.778,1.264 -6.065,0.031 -7.327,-2.746 L -2.746,7.326 C -3.358,5.981 -3.409,4.478 -2.89,3.094 -2.372,1.71 -1.345,0.611 0,0 Z m 2.277,-3.496 c -1.179,0 -2.377,0.246 -3.518,0.765 h -10e-4 c -2.074,0.943 -3.657,2.638 -4.457,4.773 -0.801,2.134 -0.721,4.452 0.222,6.526 l 24.85,54.647 c 0.943,2.075 2.638,3.658 4.773,4.458 2.133,0.8 4.451,0.721 6.526,-0.223 2.075,-0.943 3.658,-2.637 4.458,-4.772 0.8,-2.134 0.721,-4.452 -0.223,-6.527 L 10.058,1.504 c -1.429,-3.141 -4.536,-5 -7.781,-5" /></g><g
           transform="translate(452.7279,560.1063)"
           id="g440"><path
             id="path442"
             style="fill:#8948c6;fill-opacity:1;fill-rule:nonzero;stroke:none"
             d="m 0,0 v 0 c -3.857,-0.453 -7.352,2.308 -7.804,6.166 l -6.993,59.623 c -0.453,3.857 2.308,7.351 6.165,7.803 3.858,0.453 7.352,-2.307 7.804,-6.165 L 6.166,7.804 C 6.618,3.946 3.857,0.453 0,0" /></g><g
           transform="translate(444.9266,632.2474)"
           id="g444"><path
             id="path446"
             style="fill:#2b2b2b;fill-opacity:1;fill-rule:nonzero;stroke:none"
             d="M 0,0 C -0.218,0 -0.437,-0.013 -0.656,-0.039 -2.124,-0.21 -3.437,-0.944 -4.353,-2.104 -5.269,-3.263 -5.679,-4.71 -5.506,-6.178 l 6.993,-59.623 c 0.172,-1.468 0.906,-2.781 2.065,-3.697 1.16,-0.916 2.608,-1.326 4.074,-1.153 3.03,0.355 5.206,3.109 4.851,6.139 L 5.484,-4.889 C 5.312,-3.421 4.578,-2.108 3.418,-1.192 2.432,-0.413 1.238,0 0,0 m 6.965,-73.69 c -1.91,0 -3.751,0.636 -5.273,1.838 -1.788,1.413 -2.919,3.438 -3.185,5.702 l -6.993,59.623 c -0.265,2.263 0.366,4.495 1.779,6.283 1.414,1.788 3.438,2.92 5.702,3.185 C 1.26,3.206 3.489,2.575 5.278,1.162 7.066,-0.251 8.198,-2.276 8.463,-4.54 l 6.994,-59.623 c 0.547,-4.672 -2.809,-8.92 -7.481,-9.468 C 7.638,-73.67 7.3,-73.69 6.965,-73.69" /></g><g
           transform="translate(355.6005,270.2864)"
           id="g448"><path
             id="path450"
             style="fill:#8948c6;fill-opacity:1;fill-rule:nonzero;stroke:none"
             d="M 0,0 14.619,-70.932" /></g><g
           transform="translate(368.7499,199.0521)"
           id="g452"><path
             id="path454"
             style="fill:#2b2b2b;fill-opacity:1;fill-rule:nonzero;stroke:none"
             d="M 0,0 -14.619,70.932 -11.68,71.537 2.938,0.605 Z" /></g><g
           transform="translate(345.7147,203.3509)"
           id="g456"><path
             id="path458"
             style="fill:#8948c6;fill-opacity:1;fill-rule:nonzero;stroke:none"
             d="M 0,0 14.562,-43.379" /></g><g
           transform="translate(358.8549,159.4944)"
           id="g460"><path
             id="path462"
             style="fill:#2b2b2b;fill-opacity:1;fill-rule:nonzero;stroke:none"
             d="m 0,0 -14.562,43.379 2.844,0.955 L 2.844,0.955 Z" /></g><g
           id="g464"><g
             id="g466" /><g
             id="g478"><g
               style="opacity:0.25"
               id="g476"
               clip-path="url(#clipPath470)"><g
                 id="g474"
                 transform="translate(371.8461,132.9066)"><path
                   id="path472"
                   style="fill:#ffffff;fill-opacity:1;fill-rule:nonzero;stroke:none"
                   d="m 0,0 -53.431,173.591 0.048,0.333 24.482,170.789 0.131,0.239 L 0.119,397.516 2.748,396.07 -26.009,343.746 -50.365,173.831 2.867,0.883 Z" /></g></g></g></g><g
           id="g480"><g
             id="g482" /><g
             id="g494"><g
               style="opacity:0.25"
               id="g492"
               clip-path="url(#clipPath486)"><g
                 id="g490"
                 transform="translate(388.9701,698.0965)"><path
                   id="path488"
                   style="fill:#ffffff;fill-opacity:1;fill-rule:nonzero;stroke:none"
                   d="m 0,0 -2.94,0.597 c 4.116,20.27 20.569,23.356 28.699,22.156 L 25.32,19.786 25.54,21.27 25.323,19.785 C 24.478,19.906 4.571,22.51 0,0" /></g></g></g></g><g
           transform="translate(877.726,701.8773)"
           id="g496"><path
             id="path498"
             style="fill:#2b2b2b;fill-opacity:1;fill-rule:nonzero;stroke:none"
             d="m 0,0 c 0,-7.087 5.745,-12.832 12.832,-12.832 7.087,0 12.832,5.745 12.832,12.832 0,7.087 -5.745,12.832 -12.832,12.832 C 5.745,12.832 0,7.087 0,0" /></g><g
           transform="translate(924.5609,711.3626)"
           id="g500"><path
             id="path502"
             style="fill:#2b2b2b;fill-opacity:1;fill-rule:nonzero;stroke:none"
             d="m 0,0 c 0,-6.573 5.329,-11.902 11.903,-11.902 6.574,0 11.903,5.329 11.903,11.902 0,6.574 -5.329,11.903 -11.903,11.903 C 5.329,11.903 0,6.574 0,0" /></g><g
           transform="translate(931.5824,701.1038)"
           id="g504"><path
             id="path506"
             style="fill:#2b2b2b;fill-opacity:1;fill-rule:nonzero;stroke:none"
             d="m 0,0 c 0,-4.881 3.957,-8.838 8.838,-8.838 4.882,0 8.839,3.957 8.839,8.838 0,4.881 -3.957,8.838 -8.839,8.838 C 3.957,8.838 0,4.881 0,0" /></g><path
           id="path508"
           style="fill:#2b2b2b;fill-opacity:1;fill-rule:nonzero;stroke:none"
           d="m 1106.856,274.697 h 4.937 v 63.843 h -4.937 z" /><path
           id="path510"
           style="fill:#2b2b2b;fill-opacity:1;fill-rule:nonzero;stroke:none"
           d="m 1071.479,274.697 h 4.937 v 63.843 h -4.937 z" /><g
           transform="translate(1129.1517,82.178)"
           id="g512"><path
             id="path514"
             style="fill:#2b2b2b;fill-opacity:1;fill-rule:nonzero;stroke:none"
             d="m 0,0 v 0 c 4.635,0 8.392,3.757 8.392,8.392 v 7.569 c 0,4.635 -3.757,8.392 -8.392,8.392 -4.635,0 -8.392,-3.757 -8.392,-8.392 V 8.392 C -8.392,3.757 -4.635,0 0,0" /></g><g
           transform="translate(1054.1195,82.178)"
           id="g516"><path
             id="path518"
             style="fill:#2b2b2b;fill-opacity:1;fill-rule:nonzero;stroke:none"
             d="m 0,0 v 0 c 4.635,0 8.392,3.757 8.392,8.392 v 7.569 c 0,4.635 -3.757,8.392 -8.392,8.392 -4.635,0 -8.393,-3.757 -8.393,-8.392 V 8.392 C -8.393,3.757 -4.635,0 0,0" /></g><g
           transform="translate(1005.558,95.9925)"
           id="g520"><path
             id="path522"
             style="fill:#f6c60c;fill-opacity:1;fill-rule:nonzero;stroke:none"
             d="M 0,0 -19.088,-12.169 15.14,-10.657 12.536,1.59 Z" /></g><g
           transform="translate(1006.0804,94.5472)"
           id="g524"><path
             id="path526"
             style="fill:#2b2b2b;fill-opacity:1;fill-rule:nonzero;stroke:none"
             d="m 0,0 -14.082,-8.978 26.863,1.186 -1.948,9.165 z m -25.139,-12.47 24.094,15.361 14.239,1.806 3.259,-15.329 z" /></g><g
           transform="translate(965.765,104.5316)"
           id="g528"><path
             id="path530"
             style="fill:#f6c60c;fill-opacity:1;fill-rule:nonzero;stroke:none"
             d="m 0,0 10.395,-15.56 6.362,-5.148 H 6.075 c 0,0 -17.84,11.292 -17.84,11.95 0,0.658 1.89,7.021 1.89,7.021 L 0.96,0" /></g><g
           transform="translate(972.2748,85.3235)"
           id="g532"><path
             id="path534"
             style="fill:#2b2b2b;fill-opacity:1;fill-rule:nonzero;stroke:none"
             d="M 0,0 H 6.009 L 2.764,2.626 -7.13,17.436 -15.214,16.14 C -15.81,14.104 -16.393,12.021 -16.648,10.972 -14.618,9.409 -6.982,4.425 0,0 M 14.485,-3 H -0.869 l -0.367,0.232 C -19.774,8.966 -19.774,9.4 -19.774,10.45 c 0,0.217 0,0.876 1.952,7.447 l 0.268,0.906 11.767,1.886 0.144,-0.902 0.38,0.254 10.269,-15.37 z" /></g><g
           transform="translate(883.5052,686.137)"
           id="g536"><path
             id="path538"
             style="fill:#ffffff;fill-opacity:1;fill-rule:nonzero;stroke:none"
             d="m 0,0 c 0,-17.911 14.52,-32.431 32.431,-32.431 17.911,0 32.43,14.52 32.43,32.431 0,17.911 -14.519,32.431 -32.43,32.431 C 14.52,32.431 0,17.911 0,0" /></g><g
           transform="translate(915.9359,717.0682)"
           id="g540"><path
             id="path542"
             style="fill:#2b2b2b;fill-opacity:1;fill-rule:nonzero;stroke:none"
             d="m 0,0 c -17.056,0 -30.931,-13.875 -30.931,-30.931 0,-17.055 13.875,-30.931 30.931,-30.931 17.056,0 30.931,13.876 30.931,30.931 C 30.931,-13.875 17.056,0 0,0 m 0,-64.862 c -18.709,0 -33.931,15.221 -33.931,33.931 C -33.931,-12.222 -18.709,3 0,3 18.709,3 33.931,-12.222 33.931,-30.931 33.931,-49.641 18.709,-64.862 0,-64.862" /></g><g
           transform="translate(943.9603,450.7523)"
           id="g544"><path
             id="path546"
             style="fill:#2b2b2b;fill-opacity:1;fill-rule:nonzero;stroke:none"
             d="M 0,0 13.51,2.245 52.428,-158.516 43.855,-199.31 C 28.627,-121.815 3.13,-23.187 0,0 m -53.076,26.993 c 5.002,-27.314 5.002,-27.314 13.122,-57.551 l 71.53,-227.183 -22.674,-90.32 c 0,0 18.676,-1.961 18.43,0 -0.063,0.503 3.347,23.452 14.816,56.742 l 15.679,-63.777 18.91,1.926 c -0.09,0.719 -11.066,43.593 -22.089,99.191 9.954,30.658 20.578,65.839 29.316,100.696 0.976,-3.097 -17.27,120.998 -21.28,149.09 -1.379,9.66 -5.679,35.958 -6.996,48.628" /></g><g
           transform="translate(843.8324,558.4066)"
           id="g548"><path
             id="path550"
             style="fill:#8948c6;fill-opacity:1;fill-rule:nonzero;stroke:none"
             d="m 0,0 c 0,0 10.947,33.797 14.1,41.987 2.241,5.823 8.767,9.861 12.355,11.711 l 102.797,16.474 c 0,0 12.469,-1.317 17.733,-8.338 5.266,-7.02 25.012,-36.553 25.012,-36.553 L 142.145,19.82 162.847,-61.025 40.614,-80.771 29.702,22.855 32.038,3.058 Z" /></g><g
           transform="translate(877.2719,560.0911)"
           id="g552"><path
             id="path554"
             style="fill:#2b2b2b;fill-opacity:1;fill-rule:nonzero;stroke:none"
             d="m 0,0 8.501,-80.723 119.046,19.232 -20.694,80.812 29.186,5.34 c -4.45,6.638 -19.285,28.712 -23.693,34.589 -4.47,5.961 -14.972,7.524 -16.505,7.723 L -6.508,50.571 C -10.007,48.74 -15.928,44.991 -17.94,39.764 -20.579,32.908 -28.834,7.626 -31.307,0.026 l 28.006,2.673 -1.928,18.315 2.981,0.333 2.516,-21.322 z m 5.849,-84.189 -8.835,83.904 -32.584,-3.11 0.704,2.173 c 0.447,1.381 10.995,33.929 14.127,42.063 2.409,6.261 9.221,10.523 13.067,12.506 l 0.213,0.11 0.237,0.038 L 95.771,70 95.97,69.979 c 0.536,-0.057 13.183,-1.471 18.776,-8.929 5.23,-6.973 24.251,-35.413 25.059,-36.62 l 1.269,-1.898 -30.516,-5.583 20.71,-80.878 z" /></g><g
           transform="translate(1004.5502,580.8548)"
           id="g556"><path
             id="path558"
             style="fill:#ffffff;fill-opacity:1;fill-rule:nonzero;stroke:none"
             d="m 0,0 c 0,0 21.502,-49.385 17.897,-55.404 -3.235,-5.402 -109.786,11.498 -109.786,11.498 l 80.242,18.462 -7.868,22.145 z" /></g><g
           transform="translate(1021.3402,526.4276)"
           id="g560"><path
             id="path562"
             style="fill:#2b2b2b;fill-opacity:1;fill-rule:nonzero;stroke:none"
             d="M 0,0 Z M -100.768,10.802 C -61.51,4.743 -5.284,-2.734 -0.108,-0.062 1.174,3.077 -4.966,23.363 -17.698,52.752 L -34.293,49.947 -26.46,27.898 Z M -5.65,-3.548 c -7.265,0 -21.436,1.118 -49.544,4.807 -26.752,3.512 -53.453,7.739 -53.72,7.781 l -7.632,1.21 86.131,19.817 -7.901,22.242 22.433,3.793 0.468,-1.076 C -15.36,54.902 -9.968,42.495 -5.086,29.51 5.019,2.636 3.18,-0.436 2.395,-1.747 1.932,-2.52 1.315,-3.548 -5.65,-3.548" /></g><g
           transform="translate(853.4984,560.0662)"
           id="g564"><path
             id="path566"
             style="fill:#ffffff;fill-opacity:1;fill-rule:nonzero;stroke:none"
             d="m 0,0 c 0,0 1.877,-58.404 7.155,-62.087 5.794,-4.042 98.77,49.729 98.77,49.729 L 24.475,-23.462 21.341,2.747 Z" /></g><g
           transform="translate(861.4515,499.263)"
           id="g568"><path
             id="path570"
             style="fill:#2b2b2b;fill-opacity:1;fill-rule:nonzero;stroke:none"
             d="M 0,0 C 5.146,-1.05 49.166,22.187 90.587,45.924 L 15.213,35.648 12.078,61.869 -6.409,59.49 C -5.235,24.781 -2.264,2.167 0,0 m 0.088,-3.042 c -0.988,0 -1.4,0.287 -1.744,0.527 -1.162,0.812 -3.883,2.71 -6.195,33.544 -1.118,14.921 -1.596,29.58 -1.601,29.726 l -0.044,1.362 24.193,3.114 3.133,-26.198 87.487,11.927 -6.594,-3.814 C 98.49,47.012 75.186,33.544 51.472,20.745 13.702,0.357 3.485,-3.042 0.088,-3.042" /></g><g
           transform="translate(985.0355,577.5555)"
           id="g572"><path
             id="path574"
             style="fill:#8948c6;fill-opacity:1;fill-rule:nonzero;stroke:none"
             d="M 0,0 -7.271,20.966" /></g><g
           transform="translate(983.6185,577.0638)"
           id="g576"><path
             id="path578"
             style="fill:#2b2b2b;fill-opacity:1;fill-rule:nonzero;stroke:none"
             d="M 0,0 -7.271,20.966 -4.437,21.949 2.834,0.983 Z" /></g><g
           transform="translate(1061.4545,89.3568)"
           id="g580"><path
             id="path582"
             style="fill:#f6c60c;fill-opacity:1;fill-rule:nonzero;stroke:none"
             d="m 0,0 h 60.362 c 18.497,0 33.492,14.995 33.492,33.492 v 129.544 c 0,18.497 -14.995,33.492 -33.492,33.492 H 0 c -18.497,0 -33.492,-14.995 -33.492,-33.492 V 33.492 C -33.492,14.995 -18.497,0 0,0" /></g><g
           transform="translate(1061.4545,284.3851)"
           id="g584"><path
             id="path586"
             style="fill:#2b2b2b;fill-opacity:1;fill-rule:nonzero;stroke:none"
             d="m 0,0 c -17.641,0 -31.992,-14.352 -31.992,-31.992 v -129.544 c 0,-17.641 14.351,-31.992 31.992,-31.992 h 60.362 c 17.641,0 31.992,14.351 31.992,31.992 V -31.992 C 92.354,-14.352 78.003,0 60.362,0 Z M 60.362,-196.528 H 0 c -19.295,0 -34.992,15.697 -34.992,34.992 V -31.992 C -34.992,-12.697 -19.295,3 0,3 h 60.362 c 19.295,0 34.992,-15.697 34.992,-34.992 v -129.544 c 0,-19.295 -15.697,-34.992 -34.992,-34.992" /></g><g
           transform="translate(1068.0345,332.6165)"
           id="g588"><path
             id="path590"
             style="fill:#2b2b2b;fill-opacity:1;fill-rule:nonzero;stroke:none"
             d="m 0,0 h 47.201 c 4.505,0 8.157,3.651 8.157,8.156 0,4.505 -3.652,8.156 -8.157,8.156 H 0 c -4.505,0 -8.156,-3.651 -8.156,-8.156 C -8.156,3.651 -4.505,0 0,0" /></g><g
           transform="translate(903.39,718.9134)"
           id="g592"><path
             id="path594"
             style="fill:#2b2b2b;fill-opacity:1;fill-rule:nonzero;stroke:none"
             d="m 0,0 c 0,-8.27 6.704,-14.974 14.974,-14.974 8.269,0 14.973,6.704 14.973,14.974 0,8.27 -6.704,14.974 -14.973,14.974 C 6.704,14.974 0,8.27 0,0" /></g><g
           transform="translate(885.8158,718.5682)"
           id="g596"><path
             id="path598"
             style="fill:#2b2b2b;fill-opacity:1;fill-rule:nonzero;stroke:none"
             d="m 0,0 c 0,-6.413 5.198,-11.612 11.611,-11.612 6.413,0 11.613,5.199 11.613,11.612 0,6.413 -5.2,11.612 -11.613,11.612 C 5.198,11.612 0,6.413 0,0" /></g><g
           transform="translate(888.8871,733.887)"
           id="g600"><path
             id="path602"
             style="fill:#2b2b2b;fill-opacity:1;fill-rule:nonzero;stroke:none"
             d="m 0,0 c 0,-7.441 6.032,-13.474 13.474,-13.474 7.441,0 13.473,6.033 13.473,13.474 0,7.441 -6.032,13.474 -13.473,13.474 C 6.032,13.474 0,7.441 0,0" /></g><path
           id="path604"
           style="fill:#2b2b2b;fill-opacity:1;fill-rule:nonzero;stroke:none"
           d="m 1127.059,224.598 h -70.847 v 3 h 70.847 z" /><path
           id="path606"
           style="fill:#2b2b2b;fill-opacity:1;fill-rule:nonzero;stroke:none"
           d="m 1127.059,186.121 h -70.847 v 3 h 70.847 z" /><path
           id="path608"
           style="fill:#2b2b2b;fill-opacity:1;fill-rule:nonzero;stroke:none"
           d="m 1127.059,147.645 h -70.847 v 3 h 70.847 z" /><g
           id="g610"><g
             id="g612" /><g
             id="g624"><g
               style="opacity:0.25"
               id="g622"
               clip-path="url(#clipPath616)"><g
                 id="g620"
                 transform="translate(882.9291,540.1356)"><path
                   id="path618"
                   style="fill:#ffffff;fill-opacity:1;fill-rule:nonzero;stroke:none"
                   d="m 0,0 c -0.472,4.217 -4.608,41.25 -4.608,42.818 h 3 -1.5 l 1.5,0.01 C -1.577,41.483 1.153,16.678 2.98,0.333 Z" /></g></g></g></g><g
           id="g626"><g
             id="g628" /><g
             id="g640"><g
               style="opacity:0.25"
               id="g638"
               clip-path="url(#clipPath632)"><g
                 id="g636"
                 transform="translate(889.0638,484.8245)"><path
                   id="path634"
                   style="fill:#ffffff;fill-opacity:1;fill-rule:nonzero;stroke:none"
                   d="M 0,0 -1.671,18.641 1.317,18.909 2.988,0.268 Z" /></g></g></g></g><g
           id="g642"><g
             id="g644" /><g
             id="g656"><g
               style="opacity:0.25"
               id="g654"
               clip-path="url(#clipPath648)"><g
                 id="g652"
                 transform="translate(1004.2054,101.4691)"><path
                   id="path650"
                   style="fill:#ffffff;fill-opacity:1;fill-rule:nonzero;stroke:none"
                   d="m 0,0 -108.582,370.485 2.879,0.844 L 2.879,0.844 Z" /></g></g></g></g><g
           id="g658"><g
             id="g660" /><g
             id="g672"><g
               style="opacity:0.25"
               id="g670"
               clip-path="url(#clipPath664)"><g
                 id="g668"
                 transform="translate(994.0599,246.1126)"><path
                   id="path666"
                   style="fill:#ffffff;fill-opacity:1;fill-rule:nonzero;stroke:none"
                   d="M 0,0 -2.926,0.664 7.25,45.556 -30.886,210.08 l 2.922,0.678 38.292,-165.195 z" /></g></g></g></g><g
           id="g674"><g
             id="g676" /><g
             id="g686"><g
               style="opacity:0.25"
               id="g684"
               clip-path="url(#clipPath680)"><path
                 id="path682"
                 style="fill:#ffffff;fill-opacity:1;fill-rule:nonzero;stroke:none"
                 d="m 1036.97,124.26 h -3 v 129.087 h 3 z" /></g></g></g></g></g></g></svg>