<?xml version="1.0" encoding="utf-8"?>
<!-- Generator: Adobe Illustrator 14.0.0, SVG Export Plug-In  -->
<!DOCTYPE svg PUBLIC "-//W3C//DTD SVG 1.1//EN" "http://www.w3.org/Graphics/SVG/1.1/DTD/svg11.dtd" [
	<!ENTITY ns_flows "http://ns.adobe.com/Flows/1.0/">
]>
<svg version="1.1"
	 xmlns="http://www.w3.org/2000/svg" xmlns:xlink="http://www.w3.org/1999/xlink" xmlns:a="http://ns.adobe.com/AdobeSVGViewerExtensions/3.0/"
	 x="0px" y="0px" width="1088px" height="686px" viewBox="136.555 99.004 1088 686"
	 enable-background="new 136.555 99.004 1088 686" xml:space="preserve">
<defs>
</defs>
<g>
	<defs>
		<rect id="SVGID_17_" width="1356.11" height="857.008"/>
	</defs>
	<clipPath id="SVGID_18_">
		<use xlink:href="#SVGID_17_"  overflow="visible"/>
	</clipPath>
	<g clip-path="url(#SVGID_18_)">
		<defs>
			<rect id="SVGID_16_" width="1356.114" height="857.008"/>
		</defs>
		<clipPath id="SVGID_19_">
			<use xlink:href="#SVGID_16_"  overflow="visible"/>
		</clipPath>
		<path clip-path="url(#SVGID_19_)" fill="#8948C6" d="M433.791,563.6c0,7.295,5.914,13.209,13.209,13.209
			s13.209-5.914,13.209-13.209c0-7.296-5.914-13.209-13.209-13.209S433.791,556.304,433.791,563.6"/>
		<path clip-path="url(#SVGID_19_)" fill="#2B2B2B" d="M447,578.309c-8.11,0-14.709-6.6-14.709-14.709
			c0-8.11,6.599-14.709,14.709-14.709c8.11,0,14.709,6.599,14.709,14.709C461.708,571.709,455.109,578.309,447,578.309 M447,551.891
			c-6.457,0-11.709,5.253-11.709,11.709s5.252,11.709,11.709,11.709s11.709-5.253,11.709-11.709S453.457,551.891,447,551.891"/>
		<path clip-path="url(#SVGID_19_)" fill="#F6C60C" d="M462.522,611.911c-0.681,5.802,3.471,11.057,9.273,11.736
			c5.802,0.682,11.057-3.47,11.737-9.271c0.681-5.803-3.471-11.059-9.273-11.737C468.458,601.958,463.203,606.108,462.522,611.911"
			/>
		<path clip-path="url(#SVGID_19_)" fill="#2B2B2B" d="M473.051,625.222c-0.475,0-0.952-0.027-1.431-0.084
			c-3.204-0.376-6.07-1.977-8.07-4.509c-2-2.531-2.894-5.688-2.518-8.893s1.977-6.069,4.508-8.069c2.531-2,5.69-2.891,8.894-2.519
			c3.203,0.376,6.069,1.977,8.069,4.508s2.894,5.689,2.518,8.894s-1.977,6.07-4.508,8.07
			C478.36,624.321,475.753,625.222,473.051,625.222 M473.021,604.066c-4.537,0-8.467,3.405-9.009,8.02
			c-0.583,4.97,2.987,9.489,7.958,10.072c4.969,0.583,9.489-2.987,10.073-7.957c0.283-2.408-0.39-4.782-1.893-6.687
			c-1.503-1.901-3.657-3.104-6.065-3.387C473.728,604.087,473.372,604.066,473.021,604.066"/>
		<path clip-path="url(#SVGID_19_)" fill="#8948C6" d="M439.122,773.078c0,0,1.243-84.021,66.253-144.835
			c-1.048-1.05-36.57,57.969-42.926,112.867c-0.064,0.374,14.615-39.632,47.12-65.764c-1.049,2.177-22.568,41.727-25.963,74.378
			c-0.251,0.149,10.235-17.332,33.303-35.33c-1.049,0.877-15.728,32.605-14.68,58.684
			C501.181,774.83,439.122,773.078,439.122,773.078"/>
		<path clip-path="url(#SVGID_19_)" fill="#2B2B2B" d="M485.973,775.366c-4.145,0-9.296-0.041-15.712-0.131
			c-15.477-0.217-31.027-0.654-31.182-0.659l-1.479-0.041l0.021-1.479c0.004-0.212,0.412-21.539,8.81-50.015
			c7.717-26.169,23.952-63.928,57.492-95.493c0.368-0.402,0.668-0.651,0.889-0.729l0.889-0.31l0.734,0.673l1.097,1.097l-1.133,1.06
			c-0.257,0.239-0.514,0.481-0.769,0.723c-4.836,6.283-31.585,53.115-40.076,100.347c6.963-14.416,20.89-38.395,43.075-56.23
			l5.169-4.156l-2.878,5.975c-0.077,0.162-0.261,0.52-0.539,1.056c-7.612,14.693-20.31,41.851-24.415,66.456
			c1.16-1.572,2.664-3.522,4.521-5.756c5.018-6.033,13.515-15.189,25.499-24.539l1.885,2.333c0.102-0.086,0.154-0.155,0.156-0.158
			c-1.031,1.394-15.333,31.919-14.299,57.63l0.018,0.447l-0.23,0.384C503.005,774.701,502.604,775.366,485.973,775.366
			 M440.68,771.62c21.337,0.585,53.94,1.129,60.013,0.341c-0.448-19.532,7.261-41.446,11.923-52.148
			c-17.914,15.131-26.554,28.719-27.548,30.35l-0.049,0.469l-1.859,1.103l-0.798-1.162c-0.266-0.391-0.372-0.702-0.229-1.188
			c2.514-23.732,14.26-50.96,22.696-68.01c-24.409,22.186-37.303,51.124-40.847,59.954c-0.424,1.061-1.081,1.473-1.942,1.229
			l-1.299-0.367l0.23-1.333c3.305-28.573,14.403-57.554,23.129-76.821c3.957-8.735,8.517-17.752,12.388-24.723
			C446.596,693.318,441.223,760.825,440.68,771.62"/>
		<path clip-path="url(#SVGID_19_)" fill="#F6C60C" d="M452.256,774.58c0,0-5.392-204.007-250.855-314.104
			c-0.104,3.146-28.796,134.015,74.676,313.415C279.868,772.006,452.256,774.58,452.256,774.58"/>
		<path clip-path="url(#SVGID_19_)" fill="#2B2B2B" d="M453.797,776.103l-1.564-0.022c-67.792-1.014-170.23-2.058-175.576-0.804
			l-1.175,0.584l-0.704-1.221c-91.212-158.141-80.533-279.449-75.087-312.861c0.119-0.729,0.198-1.189,0.212-1.377l0.17-2.118
			l1.942,0.824c56.154,25.187,104.33,57.428,143.191,95.828c31.106,30.736,56.344,65.461,75.016,103.213
			c31.809,64.316,33.52,115.878,33.533,116.392L453.797,776.103z M276.745,775.232l-0.018,0.011
			C276.733,775.238,276.739,775.235,276.745,775.232 M312.336,771.707c42.489,0,109.966,0.929,138.341,1.35
			c-0.556-9.05-4.738-56.205-33.214-113.718c-18.532-37.43-43.578-71.863-74.442-102.345
			c-38.174-37.702-85.418-69.437-140.433-94.339c-5.413,33.655-15.544,153.378,74.3,309.638
			C281.292,771.867,294.651,771.707,312.336,771.707"/>
		<line clip-path="url(#SVGID_19_)" fill="#F6C60C" x1="201.401" y1="460.477" x2="362.8" y2="774.58"/>
		
			<rect x="105.529" y="616.028" transform="matrix(0.457 0.8894 -0.8894 0.457 702.4315 84.3821)" clip-path="url(#SVGID_19_)" fill="#2B2B2B" width="353.145" height="3"/>
		<line clip-path="url(#SVGID_19_)" fill="#F6C60C" x1="321.779" y1="535.456" x2="282.101" y2="617.527"/>
		
			<rect x="300.44" y="530.912" transform="matrix(0.9001 0.4357 -0.4357 0.9001 281.3602 -73.9597)" clip-path="url(#SVGID_19_)" fill="#2B2B2B" width="3.001" height="91.16"/>
		<line clip-path="url(#SVGID_19_)" fill="#F6C60C" x1="395.041" y1="617.528" x2="345.714" y2="735.481"/>
		
			<rect x="368.877" y="612.579" transform="matrix(0.9225 0.386 -0.386 0.9225 289.8272 -90.5349)" clip-path="url(#SVGID_19_)" fill="#2B2B2B" width="3.001" height="127.851"/>
		<line clip-path="url(#SVGID_19_)" fill="#F6C60C" x1="314.541" y1="680.659" x2="223.934" y2="659.459"/>
		
			<rect x="222.71" y="668.559" transform="matrix(0.9737 0.2278 -0.2278 0.9737 159.7377 -43.718)" clip-path="url(#SVGID_19_)" fill="#2B2B2B" width="93.054" height="3.001"/>
		<path clip-path="url(#SVGID_19_)" fill="#8948C6" d="M340.088,773.078c0,0-21.354-150.374-195.727-180.907
			c0.328,1.922-0.812,84.905,84.285,180.907C230.712,771.463,340.088,773.078,340.088,773.078"/>
		<path clip-path="url(#SVGID_19_)" fill="#2B2B2B" d="M228.459,775.128l-0.936-1.055c-75.137-84.767-83.757-159.875-84.609-180.876
			c-0.017-0.422-0.026-0.698-0.039-0.821l-0.204-1.975l1.948,0.292c39.99,7.002,75.23,20.929,104.742,41.393
			c23.626,16.381,43.647,36.96,59.507,61.166c27.007,41.213,32.651,79.236,32.705,79.615l0.247,1.736l-1.754-0.025
			c-42.046-0.622-105.701-1.168-110.694-0.164L228.459,775.128z M258.323,770.858c7.121,0,15.925,0.034,26.83,0.113
			c23.267,0.171,46.607,0.488,53.154,0.58c-1.437-7.84-8.599-41.07-32.022-76.768c-15.653-23.858-35.404-44.14-58.706-60.283
			c-28.682-19.872-62.865-33.5-101.627-40.523c1.05,21.87,10.329,94.884,83.257,177.474
			C231.609,771.132,238.282,770.858,258.323,770.858"/>
		<line clip-path="url(#SVGID_19_)" fill="#F6C60C" x1="144.361" y1="592.171" x2="289.86" y2="773.294"/>
		
			<rect x="100.947" y="681.232" transform="matrix(0.6263 0.7796 -0.7796 0.6263 613.4029 85.8973)" clip-path="url(#SVGID_19_)" fill="#2B2B2B" width="232.326" height="3"/>
		<line clip-path="url(#SVGID_19_)" fill="#F6C60C" x1="226.733" y1="622.704" x2="212.859" y2="677.441"/>
		
			<rect x="218.296" y="621.838" transform="matrix(0.9694 0.2454 -0.2454 0.9694 166.2806 -34.0625)" clip-path="url(#SVGID_19_)" fill="#2B2B2B" width="3" height="56.47"/>
		<line clip-path="url(#SVGID_19_)" fill="#F6C60C" x1="281.396" y1="663.399" x2="266.129" y2="741.111"/>
		
			<rect x="272.263" y="662.657" transform="matrix(0.9812 0.1928 -0.1928 0.9812 140.5046 -39.601)" clip-path="url(#SVGID_19_)" fill="#2B2B2B" width="2.999" height="79.197"/>
		<line clip-path="url(#SVGID_19_)" fill="#F6C60C" x1="240.395" y1="711.719" x2="182.775" y2="710.119"/>
		
			<rect x="182.764" y="709.419" transform="matrix(0.9996 0.0278 -0.0278 0.9996 19.8099 -5.5978)" clip-path="url(#SVGID_19_)" fill="#2B2B2B" width="57.642" height="2.999"/>
		<rect x="192.909" y="773.33" clip-path="url(#SVGID_19_)" fill="#2B2B2B" width="352.365" height="3"/>
		<path clip-path="url(#SVGID_19_)" fill="#2B2B2B" d="M412.765,774.454c-0.117-1.162-11.274-117.161,24.98-200.672l2.752,1.194
			c-35.939,82.785-24.863,198.022-24.747,199.176L412.765,774.454z"/>
		<path clip-path="url(#SVGID_19_)" fill="#2B2B2B" d="M428.833,777.688l-3-0.049c0.016-0.937,1.964-94.309,38.627-157.41
			l2.594,1.508C430.789,684.152,428.847,776.759,428.833,777.688"/>
		<g opacity="0.25" clip-path="url(#SVGID_19_)">
			<g>
				<defs>
					<rect id="SVGID_15_" x="156.492" y="620.663" width="82.269" height="143.172"/>
				</defs>
				<clipPath id="SVGID_20_">
					<use xlink:href="#SVGID_15_"  overflow="visible"/>
				</clipPath>
				<path clip-path="url(#SVGID_20_)" fill="#FFFFFF" d="M236.533,763.835c-63.839-70.754-79.887-141.823-80.042-142.533
					l2.932-0.639c0.153,0.701,16.063,71.032,79.338,141.161L236.533,763.835z"/>
			</g>
		</g>
		<g opacity="0.25" clip-path="url(#SVGID_19_)">
			<g>
				<defs>
					<rect id="SVGID_14_" x="210.085" y="498.626" width="18.11" height="107.275"/>
				</defs>
				<clipPath id="SVGID_21_">
					<use xlink:href="#SVGID_14_"  overflow="visible"/>
				</clipPath>
				<path clip-path="url(#SVGID_21_)" fill="#FFFFFF" d="M225.271,605.902c-14.279-61.96-15.179-106.78-15.187-107.227l3-0.05
					c0.008,0.443,0.908,44.973,15.111,106.602L225.271,605.902z"/>
			</g>
		</g>
		<g opacity="0.25" clip-path="url(#SVGID_19_)">
			<g>
				<defs>
					<rect id="SVGID_13_" x="869.466" y="652.127" width="3" height="57.626"/>
				</defs>
				<clipPath id="SVGID_22_">
					<use xlink:href="#SVGID_13_"  overflow="visible"/>
				</clipPath>
				<rect x="869.466" y="652.127" clip-path="url(#SVGID_22_)" fill="#FFFFFF" width="3" height="57.626"/>
			</g>
		</g>
		<path clip-path="url(#SVGID_19_)" fill="#2B2B2B" d="M1213.227,735.481c-5.113,42.678-35.584,41.625-73.783,37.047
			c-38.198-4.577-65.021-42.886-59.904-85.564c5.113-42.678,40.226-73.563,78.425-68.986
			C1196.164,622.555,1218.341,692.803,1213.227,735.481"/>
		<polygon clip-path="url(#SVGID_19_)" fill="#8948C6" points="943.281,659.656 943.281,645.209 929.325,645.209 929.325,659.656 
			912.74,659.656 912.74,774.297 959.867,774.297 959.867,659.656 		"/>
		<path clip-path="url(#SVGID_19_)" fill="#2B2B2B" d="M961.367,775.797H911.24V658.155h16.585v-14.446h16.956v14.446h16.586
			V775.797z M914.24,772.797h44.127V661.155h-16.586v-14.446h-10.956v14.446H914.24V772.797z"/>
		<polygon clip-path="url(#SVGID_19_)" fill="#F6C60C" points="889.875,644.576 889.875,628.229 875.919,628.229 875.919,644.576 
			859.334,644.576 859.334,774.297 906.46,774.297 906.46,644.576 		"/>
		<path clip-path="url(#SVGID_19_)" fill="#2B2B2B" d="M907.96,775.797h-50.126V643.075h16.585v-16.346h16.956v16.346h16.585
			V775.797z M860.834,772.797h44.126V646.075h-16.585v-16.346h-10.956v16.346h-16.585V772.797z"/>
		<rect x="816.442" y="773.33" clip-path="url(#SVGID_19_)" fill="#2B2B2B" width="401.939" height="3"/>
		<polygon clip-path="url(#SVGID_19_)" fill="#F6C60C" points="897.579,773.078 897.579,711.719 935.305,711.719 935.305,773.855 		
			"/>
		<path clip-path="url(#SVGID_19_)" fill="#2B2B2B" d="M936.805,775.387l-40.726-0.84v-64.329h40.726V775.387z M899.079,771.608
			l34.726,0.717v-59.107h-34.726V771.608z"/>
		<path clip-path="url(#SVGID_19_)" fill="#2B2B2B" d="M931.066,739.748c0,5.926-4.804,10.729-10.729,10.729
			s-10.729-4.803-10.729-10.729s4.805-10.729,10.729-10.729S931.066,733.822,931.066,739.748"/>
		<polygon clip-path="url(#SVGID_19_)" fill="#8948C6" points="852.842,773.078 855.842,742.788 852.842,711.719 890.566,711.719 
			893.567,742.788 890.566,773.855 		"/>
		<path clip-path="url(#SVGID_19_)" fill="#2B2B2B" d="M891.926,775.384l-40.736-0.84l3.146-31.758l-3.146-32.568h40.738
			l3.145,32.57l-0.014,0.144L891.926,775.384z M854.494,771.612l34.712,0.716l2.854-29.54l-2.856-29.57h-34.71l2.855,29.572
			l-0.013,0.145L854.494,771.612z"/>
		<path clip-path="url(#SVGID_19_)" fill="#FFFFFF" d="M886.328,739.748c0,5.926-4.804,10.729-10.729,10.729
			s-10.729-4.803-10.729-10.729s4.805-10.729,10.729-10.729S886.328,733.822,886.328,739.748"/>
		<path clip-path="url(#SVGID_19_)" fill="#2B2B2B" d="M875.6,751.978c-6.742,0-12.229-5.486-12.229-12.229
			c0-6.744,5.486-12.229,12.229-12.229c6.743,0,12.229,5.484,12.229,12.229C887.829,746.491,882.343,751.978,875.6,751.978
			 M875.6,730.52c-5.089,0-9.229,4.14-9.229,9.229c0,5.088,4.14,9.229,9.229,9.229c5.09,0,9.229-4.142,9.229-9.229
			C884.829,734.659,880.689,730.52,875.6,730.52"/>
		<path clip-path="url(#SVGID_19_)" fill="#2B2B2B" d="M1189.689,620.638c0,5.563-4.511,10.073-10.074,10.073
			c-5.565,0-10.074-4.51-10.074-10.073c0-5.564,4.509-10.074,10.074-10.074C1185.179,610.563,1189.689,615.073,1189.689,620.638"/>
		<path clip-path="url(#SVGID_19_)" fill="#2B2B2B" d="M1174.195,619.529c0,3.372-2.732,6.105-6.104,6.105
			c-3.373,0-6.107-2.733-6.107-6.105s2.734-6.105,6.107-6.105C1171.463,613.424,1174.195,616.157,1174.195,619.529"/>
		<path clip-path="url(#SVGID_19_)" fill="#2B2B2B" d="M911.513,624.198c-0.187-0.225-18.596-22.646-6.435-51.413
			c11.73-27.744,13.843-34.366,3.223-55.887l2.69-1.327c11.138,22.568,8.541,30.731-3.149,58.382
			c-11.43,27.037,5.794,48.106,5.97,48.315L911.513,624.198z"/>
		<g opacity="0.25" clip-path="url(#SVGID_19_)">
			<g>
				<defs>
					<rect id="SVGID_12_" x="946.854" y="665.641" width="3" height="107.544"/>
				</defs>
				<clipPath id="SVGID_23_">
					<use xlink:href="#SVGID_12_"  overflow="visible"/>
				</clipPath>
				<rect x="946.854" y="665.641" clip-path="url(#SVGID_23_)" fill="#FFFFFF" width="3" height="107.543"/>
			</g>
		</g>
		<g opacity="0.25" clip-path="url(#SVGID_19_)">
			<g>
				<defs>
					<rect id="SVGID_11_" x="1185.26" y="665.136" width="15.57" height="91.127"/>
				</defs>
				<clipPath id="SVGID_24_">
					<use xlink:href="#SVGID_11_"  overflow="visible"/>
				</clipPath>
				<path clip-path="url(#SVGID_24_)" fill="#FFFFFF" d="M1187.195,756.263l-1.937-2.291c26.166-22.141,3.253-87.17,3.019-87.824
					l2.824-1.012c0.061,0.167,6.033,16.979,8.568,36.398C1203.112,727.932,1198.917,746.345,1187.195,756.263"/>
			</g>
		</g>
		<path clip-path="url(#SVGID_19_)" fill="#F6C60C" d="M906.479,417.097c0,125.431-101.682,227.111-227.111,227.111
			c-125.43,0-227.111-101.68-227.111-227.111c0-125.43,101.681-227.111,227.111-227.111
			C804.797,189.986,906.479,291.667,906.479,417.097"/>
		<path clip-path="url(#SVGID_19_)" fill="#2B2B2B" d="M679.367,645.709c-61.064,0-118.474-23.78-161.653-66.959
			c-43.179-43.179-66.958-100.588-66.958-161.653c0-61.064,23.779-118.473,66.958-161.653
			c43.179-43.178,100.589-66.958,161.653-66.958c61.063,0,118.474,23.78,161.653,66.958c43.179,43.18,66.959,100.589,66.959,161.653
			c0,61.065-23.78,118.474-66.959,161.653C797.841,621.929,740.431,645.709,679.367,645.709 M679.367,191.486
			c-60.263,0-116.919,23.468-159.531,66.08c-42.613,42.612-66.08,99.269-66.08,159.531c0,60.263,23.467,116.918,66.08,159.532
			c42.612,42.612,99.268,66.08,159.531,66.08c60.263,0,116.919-23.468,159.532-66.08c42.611-42.613,66.08-99.269,66.08-159.532
			c0-60.262-23.469-116.919-66.08-159.531C796.286,214.954,739.63,191.486,679.367,191.486"/>
		<path clip-path="url(#SVGID_19_)" fill="#8948C6" d="M742.303,198.822l-14.657,13.392l2.02,30.816l-16.166,9.093l-16.671-7.072
			l-22.733,2.02l-23.743,26.27c0,0-2.021,9.093,0,10.103c2.02,1.01,12.629,7.073,12.629,7.073l16.386-13.135
			c0,0,4.832,13.135,2.811,13.135c-2.021,0-16.166,6.567-16.166,6.567h-18.691l-14.651,9.093c0,0,2.526-29.3,0-29.3
			c-2.526,0-15.155,3.536-15.155,3.536v12.63l2.02,13.134l-2.02,7.073l10.103-3.536l-8.083,15.155l-2.02,6.567
			c0,0-25.764-5.051-25.764-3.031c0,2.021-5.557,23.744-5.557,23.744l12.629,6.062l16.671-6.062l8.083-12.63l20.712-6.567
			l9.599,4.041c0,0,15.661,9.094,15.155,10.609c-0.505,1.515,1.01,10.609,1.01,10.609l9.282-14.65l-12.312-12.125
			c0,0,10.48-3.536,12.312,2.526c1.833,6.062,5.369,17.176,5.874,19.702c0.505,2.527,7.577,4.547,7.577,4.547l4.547-11.619
			l3.536-4.547l7.074,16.166h23.743c0,0,2.524,14.145,3.03,15.66c0.505,1.516-6.062,6.063-2.525,10.104
			c3.535,4.042-21.219-6.568-21.219-6.568l-15.154,2.527l-26.27,2.02l-19.703-14.144l-5.557-8.589h-51.528l-12.629,15.661
			l-11.62,10.012c0,0-23.238,29.892-23.238,33.431v23.746l11.114,33.342l13.64,12.629c0,0,28.29-6.061,30.311-6.061
			c2.021,0,25.259-0.506,26.774,1.514c1.516,2.022,12.63,10.61,12.63,10.61s1.018,34.352,4.045,36.878s18.688,23.238,17.678,25.764
			c-1.011,2.526,3.031,30.312,3.031,30.312l10.103,17.681l9.599,6.062l32.836-2.525l18.691-21.723l13.641-21.219
			c0,0,12.124-10.607,12.124-12.63v-34.351l18.187-22.734l18.188-30.311c0,0,2.02-12.124,0-13.134
			c-2.021-1.012-30.312-9.6-31.827-11.62c-1.515-2.021-23.744-23.458-23.744-23.458l-9.093-24.534c0,0,10.104,4.042,10.609,5.557
			c0.506,1.516,16.166,26.775,18.186,27.785c2.021,1.01,19.198,12.629,19.198,12.629s18.186-7.071,21.722-11.619
			c3.536-4.546,11.619-22.103,11.619-22.103l-4.041-10.228l-23.744-8.083l-9.093-14.145l32.837,8.083h21.723
			c1.517,0,11.619,4.042,11.619,4.042l27.279,46.476l8.084-2.021v-44.455l7.072-14.146l11.618-3.536l2.891-0.474
			C900.78,366.325,884.268,242.01,742.303,198.822"/>
		<path clip-path="url(#SVGID_19_)" fill="#2B2B2B" d="M683.817,612.334l-10.334-6.525l-10.43-18.253l-0.041-0.281
			c-1.204-8.28-3.861-27.555-3.006-30.876c-0.351-3.129-14.153-21.738-17.179-24.264c-3.13-2.611-4.224-26.385-4.562-37.277
			c-2.399-1.865-10.536-8.245-12.245-10.326c-0.714-0.354-4.51-1.309-24.484-1.062c-0.582,0.007-0.995,0.012-1.198,0.012
			c-1.556,0.043-19.226,3.72-29.996,6.028l-0.762,0.163l-14.494-13.42l-11.312-33.938v-23.989c0-3.658,16.472-25.242,23.554-34.352
			l0.205-0.216l11.516-9.923l12.994-16.113h2.292l-9.9-4.753l0.305-1.191c2.646-10.339,5.475-22.046,5.51-23.378
			c0-0.515,0.237-1.008,0.651-1.349c0.563-0.462,2.255-1.854,25.576,2.656l1.734-5.543l6.275-11.764l-9.209,3.223l2.725-9.541
			l-1.987-13.038v-13.768l1.095-0.307c1.313-0.367,12.905-3.591,15.56-3.591c0.524,0,1.019,0.224,1.392,0.631
			c1.962,2.139,1.176,16.912,0.348,27.323l12.482-7.747h18.789c3.985-1.846,12.218-5.571,15.494-6.401
			c-0.105-1.594-1.223-5.549-2.516-9.312l-15.537,12.454l-0.886-0.506c-0.106-0.061-10.596-6.053-12.556-7.033
			c-2.537-1.268-1.832-7.101-0.794-11.771l0.086-0.386l24.403-27l23.692-2.106l16.338,6.931l14.7-8.269l-2.006-30.593l15.822-14.454
			l0.816,0.249c32.571,9.909,61.228,24.938,85.17,44.67c19.165,15.794,35.366,34.615,48.154,55.941
			c21.783,36.323,26.161,67.816,26.203,68.13l0.192,1.442l-4.229,0.693l-10.906,3.319l-6.626,13.253v45.272l-10.308,2.578
			l-27.587-47.001c-4.492-1.784-9.694-3.677-10.614-3.746l-21.877,0.001l-0.176-0.043l-29.182-7.184l6.773,10.538l23.906,8.138
			l4.531,11.469l-0.269,0.582c-0.333,0.723-8.196,17.768-11.798,22.397c-3.684,4.737-20.461,11.358-22.362,12.097l-0.732,0.284
			l-0.652-0.44c-6.871-4.648-17.609-11.822-19.027-12.53c-0.558-0.279-1.718-0.859-10.255-14.238
			c-3.139-4.921-7.888-12.598-8.613-14.236c-0.609-0.646-3.496-2.101-6.646-3.487l7.771,20.969
			c3.166,3.055,21.758,21.016,23.603,23.332c1.636,1.337,15.896,6.03,22.769,8.294c5.146,1.693,7.865,2.595,8.582,2.953
			c3.013,1.505,1.354,11.452,0.81,14.723l-0.047,0.28l-18.449,30.722l-17.857,22.322v33.824c0,2.657-9.2,10.752-12.476,13.619
			l-13.652,21.207l-19.096,22.193L683.817,612.334z M675.717,603.672l8.862,5.596l31.725-2.44l18.218-21.173l13.699-21.308
			l0.16-0.141c5.148-4.506,10.98-10.175,11.61-11.642v-34.737l18.452-23.064l17.988-29.98c0.832-5.121,1.084-10.15,0.576-11.347
			c-0.968-0.393-4.534-1.567-7.992-2.705c-17.952-5.91-23.149-7.904-24.177-9.276c-1.06-1.41-14.686-14.693-23.585-23.276
			l-0.246-0.238l-10.388-28.025l3.14,1.256c10.749,4.301,11.274,5.881,11.473,6.477c0.849,2.052,15.328,25.163,17.51,26.956
			c2.143,1.126,15.217,9.936,18.638,12.246c5.427-2.159,17.784-7.553,20.352-10.855c3.036-3.903,9.746-18.168,11.172-21.23
			l-3.549-8.984l-23.583-8.028L774.359,370l36.317,8.94h21.541c1.629,0,9.057,2.901,12.176,4.149l0.477,0.191l26.972,45.951
			l5.856-1.465v-43.639l7.52-15.038l12.43-3.769l1.415-0.232c-1.123-6.505-6.761-34.224-25.641-65.663
			c-12.616-21.01-28.595-39.551-47.489-55.109c-23.421-19.286-51.428-34.023-83.25-43.808l-13.494,12.328l2.035,31.039
			l-17.631,9.918l-17.004-7.214l-21.775,1.935l-23.08,25.536c-0.756,3.573-1.014,7.234-0.571,8.125
			c1.944,0.996,9.131,5.083,11.676,6.535l17.217-13.801l0.719,1.956c4.473,12.16,3.328,13.801,2.952,14.34
			c-0.36,0.517-0.924,0.813-1.548,0.813c-1.251,0.094-8.888,3.342-15.535,6.428l-0.3,0.139h-18.595l-16.83,10.446l0.257-2.981
			c0.999-11.584,1.516-24.492,0.775-27.607c-2.421,0.337-8.604,1.92-12.935,3.111v11.375l2.053,13.346l-1.316,4.603l10.998-3.849
			l-9.824,18.42l-2.375,7.72l-1.325-0.26c-9.95-1.951-21.104-3.668-24.096-3.486c-0.668,4.044-3.95,17.075-5.179,21.906
			l10.952,5.258l15.601-5.674l8.102-12.658l21.756-6.899l10.279,4.341c16.716,9.707,16.222,11.189,15.825,12.381
			c-0.139,0.611,0.095,3.116,0.473,5.933l6.481-10.23l-13.187-12.985l2.31-0.78c0.71-0.239,7.055-2.279,11.181-0.153
			c1.523,0.786,2.549,2.019,3.047,3.666c0.502,1.664,1.134,3.708,1.795,5.85c1.835,5.942,3.732,12.085,4.114,13.992
			c0.144,0.721,2.523,2.05,5.221,2.987l4.114-10.515l5.217-6.708l7.692,17.577h24.017l0.221,1.236
			c0.97,5.427,2.635,14.42,2.979,15.45c0.413,1.24-0.398,2.347-1.425,3.75c-2.009,2.743-2.73,4.316-1.396,5.84
			c1.133,1.294,0.649,2.268,0.39,2.626c-0.739,1.016-1.745,2.4-22.923-6.654l-14.854,2.47l-26.814,2.062l-20.377-14.629
			l-5.268-8.141h-49.995L581.11,376.02l-11.505,9.914c-10.962,14.106-22.479,30.071-22.834,32.452l0.003,23.441l10.915,32.746
			l12.786,11.839c6.107-1.305,27.883-5.931,29.863-5.931c0.197,0,0.598-0.005,1.162-0.012c24.988-0.3,26.087,1.159,26.813,2.126
			c1.015,1.354,8.112,7.051,12.347,10.323l0.561,0.434l0.021,0.708c0.477,16.09,1.936,33.885,3.551,35.812
			c1.782,1.484,6.785,7.848,10.566,13.118c8.49,11.836,7.845,13.448,7.499,14.314c-0.468,1.744,1.19,16.203,3.082,29.257
			L675.717,603.672z M762.672,424.566c0.007,0.003,0.013,0.006,0.02,0.01C762.685,424.572,762.678,424.569,762.672,424.566
			 M742.388,398.596c0.002,0.007,0.003,0.013,0.006,0.019C742.391,398.608,742.39,398.602,742.388,398.596 M711.159,375.856
			l0.404,0.173c6.744,2.89,14.548,5.905,18.336,6.967c-1.002-2.981,1.14-5.907,2.396-7.622c0.322-0.441,0.748-1.022,0.91-1.337
			c-0.559-2.119-2.157-10.906-2.773-14.326h-23.47l-6.455-14.755l-1.856,2.385l-4.965,12.688l-1.312-0.375
			c-1.864-0.534-8.001-2.519-8.636-5.696c-0.271-1.361-1.562-5.644-2.893-9.978l-11.626,18.351l-0.646-3.874
			c-0.528-3.164-1.31-8.443-1.079-10.679c-1.334-1.484-8.23-5.923-14.278-9.439l-9.001-3.79l-19.669,6.236l-8.064,12.6
			l-11.923,4.336h40.545l5.847,9.036l19.027,13.66l25.657-1.973L711.159,375.856z M669.974,332.237l10.415,10.255
			c-0.233-0.756-0.464-1.505-0.688-2.229c-0.664-2.149-1.297-4.199-1.801-5.867c-0.26-0.862-0.752-1.455-1.546-1.865
			C674.667,331.661,672.027,331.854,669.974,332.237"/>
		<path clip-path="url(#SVGID_19_)" fill="#8948C6" d="M795.844,540.582c0,0-7.578,17.682-9.094,18.187
			c-1.515,0.504-14.65-4.041-17.176,7.578c-2.526,11.619-6.567,19.196-3.031,21.216c3.536,2.022,7.072,2.527,7.072,2.527
			l17.682-24.754l7.578-15.661L795.844,540.582z"/>
		<path clip-path="url(#SVGID_19_)" fill="#2B2B2B" d="M774.307,591.704l-0.902-0.129c-0.157-0.022-3.864-0.57-7.605-2.71
			c-3.465-1.979-2.157-6.498-0.181-13.341c0.805-2.786,1.718-5.943,2.491-9.497c2.326-10.7,12.834-9.373,16.789-8.869
			c0.422,0.053,0.916,0.114,1.24,0.141c1.304-1.707,5.15-9.897,8.326-17.309l1.556-3.625l4.471,13.413l-7.973,16.43L774.307,591.704
			z M780.341,559.831c-4.816,0-8.159,1.588-9.301,6.834c-0.794,3.65-1.721,6.86-2.54,9.692c-1.41,4.88-2.628,9.095-1.213,9.903
			c2.223,1.27,4.474,1.901,5.668,2.172l17.047-23.866l7.257-14.997l-1.599-4.795c-6.482,14.767-7.786,15.2-8.436,15.416
			c-0.616,0.207-1.358,0.114-2.702-0.057C783.031,559.944,781.633,559.831,780.341,559.831"/>
		<path clip-path="url(#SVGID_19_)" fill="#8948C6" d="M631.66,198.822l10.609,2.278c0,0,11.114,12.629,8.588,16.165
			c-2.526,3.536-16.166,16.166-16.166,16.166s-21.723,13.135-24.249,12.63c-2.526-0.506-31.321,9.598-34.352,11.114
			c-3.031,1.515-10.609,4.546-10.609,4.546l4.547-15.66c0,0,19.197-7.578,23.238-10.104s16.166-15.156,18.187-18.186
			c2.02-3.032,6.567-9.094,0-7.073c-6.567,2.021-22.228,8.588-22.228,8.588s-13.135,17.682-16.166,17.682
			c-3.031,0-23.744,20.712-27.785,24.753c-4.041,4.042-15.66,20.207-15.66,20.207s-18.187,1.011-20.713,0
			c-2.526-1.01-12.424,0.47-13.358,1.769C494.61,284.997,544.769,209.174,631.66,198.822"/>
		<path clip-path="url(#SVGID_19_)" fill="#2B2B2B" d="M496.079,285.521l-2.186-0.841l0.15-1.159c0.01-0.08,0.125-0.302,0.341-0.655
			l-0.059-0.044c0.07-0.097,0.159-0.192,0.266-0.285c2.753-4.288,15.722-21.456,35.753-38.608
			c21.38-18.307,56.282-41.252,101.139-46.596l0.248-0.029l11.337,2.434l0.327,0.372c3.578,4.066,11.587,13.962,8.682,18.028
			c-2.585,3.619-15.805,15.875-16.367,16.395l-0.243,0.183c-10.138,6.129-22.771,13.331-25.319,12.816
			c-0.016,0-0.034-0.001-0.052-0.001c-2.935,0-30.049,9.343-33.335,10.986c-3.052,1.526-10.411,4.473-10.723,4.598l-2.855,1.142
			l5.609-19.32l0.685-0.27c0.191-0.076,19.115-7.556,22.994-9.981c3.73-2.332,15.735-14.749,17.734-17.747l0.512-0.759
			c0.694-1.023,2.188-3.223,2.568-4.368c-0.289,0.033-0.733,0.118-1.391,0.32c-5.859,1.804-19.286,7.369-21.711,8.38
			c-6.104,8.194-13.886,17.772-17.034,17.954c-0.654,0.187-4.778,2.278-26.814,24.317c-3.909,3.909-15.388,19.861-15.504,20.022
			l-0.418,0.582l-0.716,0.04c-4.344,0.242-18.723,0.948-21.353-0.105c-1.872-0.75-10.193,0.395-11.656,1.353L496.079,285.521z
			 M506.044,280.117c1.462,0,2.693,0.131,3.414,0.42c1.373,0.538,10.784,0.39,19.358-0.067c2.155-2.982,11.709-16.12,15.398-19.808
			c24.626-24.629,27.625-25.181,28.769-25.193c1.893-0.592,9.254-9.291,15.038-17.077l0.245-0.33l0.379-0.159
			c0.642-0.269,15.804-6.618,22.366-8.638c0.999-0.307,3.652-1.124,4.888,0.549c1.337,1.81-0.276,4.479-2.7,8.051l-0.498,0.739
			c-2.026,3.038-14.268,15.893-18.64,18.626c-3.718,2.324-19.276,8.556-22.798,9.955l-3.478,11.98
			c2.454-1.011,5.866-2.447,7.634-3.332c1.553-0.776,31.247-11.708,35.21-11.259c1.963-0.156,13.255-6.366,23.155-12.346
			c4.715-4.37,13.94-13.157,15.852-15.834c0.849-1.188-2.458-7.351-8.169-13.932l-9.877-2.12
			c-73.445,8.864-120.671,65.315-132.089,80.435C501.635,280.36,504.053,280.117,506.044,280.117 M610.735,244.59
			c0.001,0,0.001,0,0.002,0.001C610.736,244.59,610.736,244.59,610.735,244.59 M573.061,238.468h-0.002H573.061z"/>
		<path clip-path="url(#SVGID_19_)" fill="#8948C6" d="M452.361,410.246c0,0,6.021,16.67,6.527,22.732
			c0.505,6.063,2.526,23.239,2.526,23.239s15.155,20.207,17.681,22.733c2.526,2.524,13.135,24.754,13.135,27.784
			c0,3.031,0.505,20.207,0,21.724c-0.505,1.516,0.224,12.124,0.224,12.124S447.349,475.416,452.361,410.246"/>
		<path clip-path="url(#SVGID_19_)" fill="#2B2B2B" d="M494.326,545.92l-3.104-4.484c-0.455-0.657-45.351-66.354-40.356-131.305
			l0.535-6.959l2.371,6.564c0.249,0.689,6.096,16.928,6.611,23.118c0.455,5.455,2.167,20.164,2.474,22.787
			c5.292,7.05,15.391,20.34,17.3,22.249c2.567,2.566,13.573,25.189,13.573,28.845c0,0.746,0.032,2.357,0.07,4.38
			c0.241,12.594,0.207,16.757-0.147,17.818c-0.24,0.918-0.034,6.714,0.299,11.547L494.326,545.92z M453.495,418.209
			c-0.833,51.289,27.63,101.481,37.146,116.793c-0.122-3.026-0.149-6.073,0.166-7.02c0.292-1.271,0.09-11.767-0.006-16.812
			c-0.039-2.049-0.071-3.682-0.071-4.438c-0.066-2.686-10.388-24.418-12.694-26.724c-2.573-2.572-17.2-22.066-17.822-22.895
			l-0.242-0.322l-0.047-0.402c-0.02-0.172-2.03-17.271-2.531-23.288C457.125,429.878,455.179,423.374,453.495,418.209"/>
		<g opacity="0.25" clip-path="url(#SVGID_19_)">
			<g>
				<defs>
					<rect id="SVGID_10_" x="550.678" y="368.113" width="115.914" height="176.872"/>
				</defs>
				<clipPath id="SVGID_25_">
					<use xlink:href="#SVGID_10_"  overflow="visible"/>
				</clipPath>
				<path clip-path="url(#SVGID_25_)" fill="#FFFFFF" d="M664.312,544.985l-16.232-18.979l1.613-32.535
					c-3.909-2.924-11.6-8.767-12.518-10.143c-0.504-0.639-3.908-2.68-5.941-3.9c-1.955-1.172-3.643-2.185-4.465-2.842
					c-1.036-0.75-7.778-1.808-13.496-2.368l-40.328,4.713l-7.859-6.112l-10.905-15.861l-3.503-24.913l0.098-0.32
					c1.407-4.57,3.559-12.539,3.349-14.465c-0.346-3.175,7.802-11.666,12.774-16.52l13.538-19.907l14.593-12.719l1.971,2.262
					l-14.301,12.464l-13.598,19.942c-5.675,5.533-11.848,12.565-11.992,14.216c0.321,2.907-2.558,12.631-3.368,15.29l3.311,23.552
					l10.242,14.897l6.522,5.071l39.426-4.606l0.159,0.015c3.917,0.378,13.243,1.431,15.239,3.026c0.666,0.532,2.43,1.59,4.136,2.613
					c4.179,2.507,6.221,3.799,6.894,4.809c0.662,0.861,6.857,5.706,12.456,9.882l0.642,0.478l-1.633,32.939l15.456,18.073
					L664.312,544.985z"/>
			</g>
		</g>
		<g opacity="0.25" clip-path="url(#SVGID_19_)">
			<g>
				<defs>
					<rect id="SVGID_9_" x="655.817" y="247.831" width="78.393" height="32.67"/>
				</defs>
				<clipPath id="SVGID_26_">
					<use xlink:href="#SVGID_9_"  overflow="visible"/>
				</clipPath>
				<polygon clip-path="url(#SVGID_26_)" fill="#FFFFFF" points="658.31,280.501 655.817,278.832 672.953,253.242 693.129,249.797 
					713.371,258.439 732.771,247.831 734.21,250.462 713.533,261.771 692.764,252.903 674.728,255.982 				"/>
			</g>
		</g>
		<g opacity="0.25" clip-path="url(#SVGID_19_)">
			<g>
				<defs>
					<rect id="SVGID_8_" x="464.294" y="308.495" width="29.516" height="137.102"/>
				</defs>
				<clipPath id="SVGID_27_">
					<use xlink:href="#SVGID_8_"  overflow="visible"/>
				</clipPath>
				<path clip-path="url(#SVGID_27_)" fill="#FFFFFF" d="M465.218,445.597c-6.733-67.281,25.554-136.411,25.881-137.102l2.712,1.284
					c-0.324,0.684-32.257,69.084-25.608,135.52L465.218,445.597z"/>
			</g>
		</g>
		<path clip-path="url(#SVGID_19_)" fill="#232323" d="M431.353,286.934l-44.824-7.313c-18.849-3.076-31.636-20.85-28.56-39.699
			c3.076-18.85,20.849-31.637,39.699-28.561l44.823,7.314c18.85,3.076,31.637,20.85,28.561,39.699
			C467.976,277.223,450.201,290.01,431.353,286.934"/>
		<path clip-path="url(#SVGID_19_)" fill="#232323" d="M390.743,423.357l-3.575-0.428c-30.428-3.646-52.139-31.269-48.493-61.697
			l7.036-58.713c3.647-30.428,31.269-52.139,61.698-48.492l3.575,0.428c30.428,3.647,52.138,31.269,48.492,61.697l-7.036,58.713
			C448.793,405.294,421.17,427.003,390.743,423.357"/>
		<path clip-path="url(#SVGID_19_)" fill="#8948C6" d="M391.556,233.688c5.042-14.667-2.76-30.646-17.428-35.688
			c-14.667-5.042-30.645,2.76-35.687,17.427c-2.913,8.471-1.533,17.375,2.971,24.361c-2.898,2.005-5.215,4.902-6.449,8.49
			c-1.511,4.395-1.121,8.98,0.719,12.874c-2.041,1.148-3.689,3.01-4.51,5.398c-1.777,5.169,0.972,10.8,6.141,12.576
			c5.169,1.778,10.8-0.972,12.577-6.141c0.233-0.679,0.384-1.365,0.466-2.05c7.402,0.346,14.451-4.165,16.982-11.526
			c0.793-2.306,1.056-4.663,0.87-6.948C378.613,251.257,387.923,244.255,391.556,233.688"/>
		<path clip-path="url(#SVGID_19_)" fill="#2B2B2B" d="M340.521,281.165c-1.226,0-2.472-0.2-3.695-0.621
			c-5.943-2.042-9.116-8.539-7.073-14.482c0.759-2.207,2.176-4.114,4.05-5.482c-1.601-4.104-1.7-8.598-0.258-12.79
			c1.139-3.315,3.158-6.188,5.875-8.384c-4.329-7.446-5.211-16.284-2.398-24.467c2.569-7.473,7.894-13.498,14.995-16.965
			c7.1-3.468,15.126-3.962,22.599-1.393c7.473,2.569,13.498,7.894,16.965,14.995c3.468,7.101,3.962,15.127,1.394,22.599
			c-3.531,10.269-12.551,17.828-23.21,19.582c0.013,2.091-0.325,4.15-1.008,6.139c-2.526,7.347-9.461,12.357-17.15,12.551
			c-0.084,0.348-0.183,0.69-0.298,1.024C349.686,278.192,345.254,281.165,340.521,281.165 M364.976,197.96
			c-3.988,0-7.954,0.909-11.643,2.71c-6.38,3.116-11.165,8.53-13.474,15.245c-2.664,7.749-1.639,16.154,2.814,23.06l0.786,1.22
			l-1.193,0.826c-2.766,1.913-4.8,4.591-5.884,7.745c-1.329,3.865-1.096,8.036,0.657,11.745l0.596,1.263l-1.218,0.686
			c-1.8,1.012-3.16,2.638-3.827,4.577c-1.505,4.379,0.833,9.165,5.211,10.671c2.122,0.728,4.4,0.588,6.415-0.396
			c2.015-0.984,3.527-2.694,4.256-4.815c0.19-0.554,0.323-1.14,0.395-1.741l0.166-1.385l1.394,0.065
			c6.89,0.323,13.254-4.002,15.493-10.516c0.702-2.043,0.969-4.175,0.793-6.337l-0.118-1.445l1.441-0.167
			c10.117-1.171,18.792-8.146,22.102-17.771c4.765-13.862-2.636-29.016-16.497-33.782
			C370.808,198.444,367.886,197.96,364.976,197.96"/>
		<path clip-path="url(#SVGID_19_)" fill="#FFFFFF" d="M387.5,222.44l-105.14,37.425c-4.132,1.533-5.523,6.681-2.725,10.086
			l60.957,74.163c-2.185,1.593-6.054,8.568-7.02,13.614c-0.463,2.414-7.796,5.709-8.505,8.971
			c4.141,8.063,20.082-5.615,20.082-5.615l9.161-15.705l-48.597-72.428l70.136-23.482"/>
		<path clip-path="url(#SVGID_19_)" fill="#2B2B2B" d="M329.38,370.741c-0.494,0-0.974-0.043-1.437-0.133
			c-1.858-0.365-3.314-1.479-4.21-3.223l-0.246-0.479l0.114-0.525c0.496-2.279,2.941-4.165,5.305-5.99
			c1.137-0.878,3.041-2.346,3.193-2.949c0.842-4.391,3.88-10.576,6.449-13.452l-60.071-73.086c-1.646-2.003-2.202-4.587-1.526-7.089
			c0.676-2.502,2.457-4.454,4.887-5.356l105.159-37.432l1.006,2.826l-105.14,37.426c-1.49,0.553-2.596,1.765-3.016,3.318
			c-0.42,1.554-0.074,3.158,0.947,4.401l61.967,75.392l-1.285,0.936c-1.75,1.275-5.513,7.892-6.431,12.685
			c-0.322,1.681-2.168,3.106-4.307,4.755c-1.533,1.184-3.395,2.621-4.017,3.771c0.448,0.613,1.031,0.975,1.799,1.127
			c4.334,0.842,12.448-5.018,15.463-7.558l8.558-14.671l-49.169-73.282l72.001-24.106l0.952,2.845l-68.27,22.857l48.024,71.575
			l-9.762,16.733l-0.191,0.165C345.046,363.148,335.994,370.741,329.38,370.741"/>
		<polygon clip-path="url(#SVGID_19_)" fill="#2B2B2B" points="336.622,760.942 358.396,774.58 321.779,773.84 323.205,760.619 		
			"/>
		<path clip-path="url(#SVGID_19_)" fill="#2B2B2B" d="M380.598,749.726l-11.04,16.524l-6.757,8.329h10.02
			c0,0,20.271-14.853,20.271-15.551c0-0.699-2.007-7.457-2.007-7.457l-11.507-1.846"/>
		<path clip-path="url(#SVGID_19_)" fill="#FFFFFF" d="M438.529,231.153l109.906-10.509c5.343-0.511,8.995,5.272,6.238,9.876
			l-38.552,64.386c0,0-1.747,18.699-1.573,19.398c0.175,0.699,3.146,4.893,2.447,7.515c-0.699,2.621-13.981-2.313-15.029-8.409
			c-1.049-6.096,2.796-23.048,2.796-23.048l25.404-51.469l-86.92,14.707l-4.717-17.878"/>
		<path clip-path="url(#SVGID_19_)" fill="#2B2B2B" d="M515.41,324.038c-0.096,0-0.195-0.002-0.297-0.007
			c-4.431-0.2-13.653-4.716-14.626-10.367c-1.086-6.318,2.652-22.93,2.812-23.633l0.118-0.333l24.104-48.836l-85.376,14.446
			l-5.066-19.204l2.9-0.765l4.368,16.553l88.463-14.968l-26.623,53.941c-0.395,1.778-3.675,16.873-2.743,22.29
			c0.312,1.815,2.34,3.93,5.423,5.658c3.042,1.706,5.732,2.308,6.735,2.23c0.069-1.487-1.259-3.906-1.856-4.992
			c-0.364-0.663-0.565-1.029-0.653-1.383c-0.077-0.309-0.236-0.948,1.535-19.902l0.032-0.339l38.726-64.678
			c0.998-1.667,0.975-3.642-0.062-5.284c-1.038-1.643-2.805-2.516-4.746-2.328l-109.906,10.509l-0.285-2.986l109.906-10.51
			c3.035-0.287,5.938,1.133,7.567,3.713c1.63,2.58,1.668,5.809,0.1,8.427l-38.377,64.094c-0.615,6.604-1.53,16.956-1.548,18.614
			c0.062,0.109,0.19,0.334,0.341,0.609c1.333,2.429,2.703,5.219,2.068,7.598C518.293,322.769,517.699,324.038,515.41,324.038"/>
		<path clip-path="url(#SVGID_19_)" fill="#8948C6" d="M459.044,163.133c1.256-2.249,1.979-4.837,1.979-7.596
			c0-7.776-5.692-14.204-13.132-15.394c0.001-0.063,0.01-0.124,0.01-0.188c0-9.473-7.68-17.153-17.153-17.153
			c-6.366,0-11.909,3.476-14.869,8.626c-2.572-0.816-5.309-1.259-8.151-1.259c-14.863,0-26.912,12.048-26.912,26.912
			c0,5.669,1.756,10.925,4.749,15.262c-3.937,3.202-6.455,8.08-6.455,13.55c0,9.645,7.818,17.463,17.463,17.463
			c9.644,0,17.462-7.818,17.462-17.463c0-0.886-0.087-1.75-0.214-2.6c6.85-1.587,12.697-5.785,16.434-11.494
			c-0.739,2.019-1.163,4.188-1.163,6.463c0,10.388,8.421,18.809,18.809,18.809c10.388,0,18.809-8.421,18.809-18.809
			C466.71,172.05,463.686,166.558,459.044,163.133 M433.323,165.402c0.138,0.169,0.289,0.325,0.434,0.488
			c-0.403,0.461-0.784,0.94-1.141,1.438C432.876,166.698,433.111,166.055,433.323,165.402"/>
		<path clip-path="url(#SVGID_19_)" fill="#2B2B2B" d="M396.572,204.856c-10.456,0-18.963-8.507-18.963-18.963
			c0-5.274,2.166-10.238,5.985-13.82c-2.803-4.499-4.279-9.654-4.279-14.992c0-15.667,12.746-28.413,28.413-28.413
			c2.536,0,5.045,0.335,7.477,0.998c3.441-5.188,9.292-8.364,15.543-8.364c9.934,0,18.079,7.805,18.624,17.605
			c7.692,1.807,13.15,8.611,13.15,16.629c0,2.478-0.544,4.936-1.584,7.18c4.576,3.845,7.272,9.565,7.272,15.545
			c0,11.199-9.111,20.31-20.309,20.31c-11.199,0-20.31-9.111-20.31-20.31c0-0.294,0.007-0.589,0.02-0.883
			c-0.356,0.351-0.721,0.69-1.094,1.02l-0.21,0.293l0.069-0.169c-3.135,2.734-6.844,4.75-10.909,5.896
			c0.046,0.513,0.068,0.998,0.068,1.475C415.535,196.35,407.028,204.856,396.572,204.856 M407.729,131.668
			c-14.013,0-25.413,11.4-25.413,25.413c0,5.175,1.551,10.158,4.484,14.409l0.787,1.141l-1.075,0.875
			c-3.751,3.051-5.902,7.566-5.902,12.387c0,8.801,7.161,15.963,15.963,15.963c8.802,0,15.963-7.162,15.963-15.963
			c0-0.72-0.063-1.476-0.198-2.379l-0.206-1.37l1.351-0.313c6.394-1.481,11.905-5.335,15.518-10.854l1.318-2.014l0.911-2.208
			c0.241-0.585,0.466-1.196,0.667-1.816l0.848-2.615l1.067,1.305l2.348-3.587l-1.634,4.459c0.062,0.073,0.126,0.142,0.19,0.212
			l1.04,1.17l-0.87,0.994c-0.371,0.424-0.724,0.87-1.051,1.325l-1.356,1.891l-0.814,2.222c-0.712,1.942-1.073,3.942-1.073,5.946
			c0,9.545,7.765,17.31,17.31,17.31c9.544,0,17.309-7.765,17.309-17.31c0-5.538-2.572-10.613-7.057-13.922l-1.064-0.784l0.645-1.154
			c1.17-2.095,1.788-4.468,1.788-6.865c0-6.962-4.991-12.813-11.868-13.912l-1.273-0.204l0.019-1.483
			c0.001-8.613-7.021-15.635-15.652-15.635c-5.579,0-10.778,3.017-13.569,7.873l-0.602,1.048l-1.153-0.366
			C412.939,132.069,410.35,131.668,407.729,131.668"/>
		<path clip-path="url(#SVGID_19_)" fill="#FFFFFF" d="M443.735,146.775c0.307,8.734-8.411,18.607-21.448,23.438
			c-11.376,4.215-22.756,3.37-29.098-1.447c-0.059,0.786-0.1,1.578-0.1,2.379c0,17.226,13.964,31.19,31.19,31.19
			s31.19-13.964,31.19-31.19C455.469,161.28,450.884,152.491,443.735,146.775"/>
		<path clip-path="url(#SVGID_19_)" fill="#2B2B2B" d="M424.279,203.834c-18.025,0-32.689-14.664-32.689-32.69
			c0-0.761,0.032-1.553,0.103-2.491l0.207-2.75l2.196,1.668c6.079,4.617,17.2,5.113,27.67,1.235
			c12.15-4.502,20.759-13.745,20.47-21.978l-0.115-3.263l2.551,2.038c7.815,6.248,12.297,15.557,12.297,25.541
			C456.969,189.17,442.304,203.834,424.279,203.834 M394.591,171.449c0.165,16.231,13.419,29.385,29.688,29.385
			c16.371,0,29.69-13.319,29.69-29.69c0-8.079-3.233-15.673-8.96-21.246c-1.504,8.641-10.139,17.252-22.201,21.721
			C412.43,175.465,401.72,175.337,394.591,171.449"/>
		<path clip-path="url(#SVGID_19_)" fill="#8948C6" d="M441.577,368.704l-8.909-40.423l0.129-0.286l-61.459-11.289l0.034,0.88
			l-16.145,29.669l-7.165,12.145c-5.191,8.97-9.417,18.711-10.882,28.97c-4.258,29.835-23.637,161.63-22.6,158.341
			c9.281,37.021,20.564,74.386,31.135,106.946c-11.706,59.047-20.945,104.998-21.041,105.76l12.99,1.633l21.327-67.734
			c12.181,35.355,21.178,58.887,21.111,59.423c-0.262,2.083,10.487,1.845,10.487,1.845l-20.37-96.93l75.969-241.284
			C449.683,394.7,444.914,383.848,441.577,368.704 M357.178,595.595l-9.105-43.325l36.653-150.563l13.76,3.106
			C395.161,429.438,373.351,513.291,357.178,595.595"/>
		<path clip-path="url(#SVGID_19_)" fill="#2B2B2B" d="M338.719,762.693l-15.72-1.974l0.187-1.489
			c0.048-0.382,1.383-7.083,5.239-26.399c3.818-19.125,9.417-47.178,15.742-79.082c-12.468-38.429-22.855-74.094-30.88-106.029
			c-0.368-0.557-0.228-1.666,0.086-4.145c0.245-1.942,0.625-4.768,1.112-8.307c0.909-6.598,2.224-15.893,4.019-28.414
			c3.275-22.854,7.558-52.304,10.999-75.967c2.714-18.659,5.023-34.538,6.192-42.73c1.325-9.274,4.945-18.926,11.069-29.51
			l7.171-12.156l15.922-29.26l-0.092-2.34l65.187,11.973l-0.712,1.578l8.802,39.938c0.616,2.796,1.288,5.472,1.938,8.06
			c2.871,11.429,5.583,22.225,2.689,40.168l-0.05,0.211l-75.851,240.91l20.66,98.314l-1.806,0.04
			c-3.591,0.071-9.849-0.055-11.458-1.84c-0.354-0.392-0.55-0.866-0.566-1.362c-0.244-0.834-1.6-4.556-3.44-9.608
			c-3.504-9.621-9.212-25.294-16.101-45.174L338.719,762.693z M326.447,758.129l10.163,1.275l22.317-70.881l1.482,4.303
			c7.544,21.896,13.819,39.126,17.568,49.422c2.604,7.148,3.367,9.243,3.566,10.058c0.944,0.428,3.949,0.75,7.2,0.788
			l-20.073-95.518l0.118-0.374l75.937-241.18c2.768-17.266,0.255-27.271-2.655-38.851c-0.655-2.608-1.333-5.307-1.958-8.146
			l-8.766-39.774l-58.744-10.79l-16.057,29.508l-7.191,12.19c-5.921,10.234-9.42,19.534-10.689,28.421
			c-1.169,8.193-3.479,24.075-6.193,42.737c-6.381,43.875-15.953,109.696-16.415,115.116c8.054,32.114,18.512,68.033,31.084,106.759
			l0.121,0.371l-0.076,0.384c-6.357,32.065-11.986,60.268-15.819,79.47C328.911,745.724,327.12,754.698,326.447,758.129
			 M357.227,603.123l-10.692-50.879l0.08-0.329l37.003-151.997l16.538,3.732l-0.184,1.362c-1.604,11.884-7.476,37.428-14.911,69.769
			c-8.02,34.891-18.002,78.311-26.411,121.103L357.227,603.123z M349.611,552.294l7.524,35.806
			c8.102-40.476,17.427-81.035,25.002-113.99c7.143-31.071,12.841-55.857,14.669-68.139l-10.971-2.476L349.611,552.294z"/>
		<path clip-path="url(#SVGID_19_)" fill="#F6C60C" d="M454.56,256.31l12.15-3.568l-3.814-26.48l-29.139,2.65l-46.091-8.111
			l-36.394,13.497l4.177,23.896l18.612-6.666c-3.209,8.603-4.69,17.77-4.331,26.975l1.482,37.968l-0.72,1.323l62.047,9.515
			l-0.031-0.143l17.416-38.651c3.447-7.649,5.11-15.98,4.865-24.366L454.56,256.31z"/>
		<path clip-path="url(#SVGID_19_)" fill="#2B2B2B" d="M434.471,329.123l-66.317-10.17l1.543-2.836l-1.466-37.555
			c-0.326-8.373,0.81-16.621,3.382-24.564l-17.335,6.209l-4.699-26.881l37.947-14.073l46.294,8.147l30.358-2.761l4.203,29.176
			l-12.287,3.608l0.195,6.682c0.25,8.562-1.478,17.216-4.997,25.026L434.08,327.33L434.471,329.123z M372.719,316.617l58.832,9.022
			l17.006-37.742c3.333-7.398,4.97-15.595,4.733-23.705l-0.263-8.996l12.014-3.528l-3.426-23.785l-27.921,2.54l-0.197-0.035
			l-45.69-8.041l-34.842,12.922l3.655,20.911l19.975-7.154l-1.128,3.025c-3.165,8.482-4.59,17.362-4.238,26.393L372.719,316.617z"/>
		<path clip-path="url(#SVGID_19_)" fill="#8948C6" d="M363.774,281.272L363.774,281.272c-3.536-1.608-5.099-5.777-3.491-9.313
			l24.85-54.647c1.608-3.536,5.777-5.099,9.313-3.491s5.099,5.778,3.491,9.313l-24.85,54.647
			C371.479,281.317,367.31,282.88,363.774,281.272"/>
		<path clip-path="url(#SVGID_19_)" fill="#2B2B2B" d="M366.671,283.403c-1.179,0-2.377-0.246-3.518-0.765h-0.001
			c-2.074-0.943-3.657-2.638-4.457-4.773c-0.801-2.134-0.721-4.452,0.222-6.526l24.85-54.647c0.943-2.075,2.638-3.658,4.773-4.458
			c2.133-0.8,4.451-0.721,6.526,0.223c2.075,0.943,3.658,2.637,4.458,4.772c0.8,2.134,0.721,4.452-0.223,6.527l-24.849,54.647
			C373.023,281.544,369.917,283.403,366.671,283.403 M364.395,279.907c2.778,1.265,6.064,0.031,7.327-2.746l24.85-54.648
			c0.612-1.344,0.662-2.847,0.144-4.231c-0.519-1.384-1.545-2.483-2.89-3.094c-2.778-1.264-6.065-0.031-7.327,2.746l-24.85,54.647
			c-0.612,1.345-0.663,2.848-0.144,4.232C362.022,278.197,363.049,279.296,364.395,279.907z"/>
		<path clip-path="url(#SVGID_19_)" fill="#8948C6" d="M452.728,296.901L452.728,296.901c-3.857,0.453-7.352-2.308-7.804-6.166
			l-6.993-59.623c-0.453-3.857,2.308-7.351,6.165-7.803c3.858-0.453,7.352,2.307,7.804,6.165l6.994,59.623
			C459.346,292.956,456.585,296.449,452.728,296.901"/>
		<path clip-path="url(#SVGID_19_)" fill="#2B2B2B" d="M451.892,298.45c-1.91,0-3.751-0.636-5.273-1.838
			c-1.788-1.413-2.919-3.438-3.185-5.702l-6.993-59.623c-0.265-2.263,0.366-4.495,1.779-6.283c1.414-1.788,3.438-2.92,5.702-3.185
			c2.265-0.265,4.494,0.366,6.283,1.779c1.788,1.413,2.92,3.438,3.185,5.702l6.994,59.623c0.547,4.672-2.809,8.92-7.481,9.468
			C452.564,298.431,452.227,298.45,451.892,298.45 M444.927,224.76c-0.218,0-0.437,0.013-0.656,0.039
			c-1.468,0.171-2.781,0.905-3.697,2.065c-0.916,1.159-1.326,2.606-1.153,4.074l6.993,59.623c0.172,1.468,0.906,2.781,2.065,3.697
			c1.16,0.916,2.608,1.326,4.074,1.153c3.03-0.355,5.206-3.109,4.851-6.139l-6.993-59.623c-0.172-1.468-0.906-2.781-2.066-3.697
			C447.358,225.173,446.165,224.76,444.927,224.76"/>
		<line clip-path="url(#SVGID_19_)" fill="#8948C6" x1="355.601" y1="586.722" x2="370.22" y2="657.653"/>
		
			<rect x="326.698" y="620.687" transform="matrix(0.2019 0.9794 -0.9794 0.2019 899.0341 141.1555)" clip-path="url(#SVGID_19_)" fill="#2B2B2B" width="72.423" height="3"/>
		<line clip-path="url(#SVGID_19_)" fill="#8948C6" x1="345.715" y1="653.657" x2="360.277" y2="697.036"/>
		
			<rect x="330.117" y="673.847" transform="matrix(0.3182 0.948 -0.948 0.3182 880.8936 125.7803)" clip-path="url(#SVGID_19_)" fill="#2B2B2B" width="45.758" height="3"/>
		<g opacity="0.25" clip-path="url(#SVGID_19_)">
			<g>
				<defs>
					<rect id="SVGID_7_" x="318.415" y="326.586" width="56.298" height="397.515"/>
				</defs>
				<clipPath id="SVGID_28_">
					<use xlink:href="#SVGID_7_"  overflow="visible"/>
				</clipPath>
				<polygon clip-path="url(#SVGID_28_)" fill="#FFFFFF" points="371.846,724.102 318.415,550.51 318.463,550.177 342.945,379.388 
					343.076,379.149 371.965,326.585 374.594,328.031 345.837,380.355 321.481,550.271 374.713,723.218 				"/>
			</g>
		</g>
		<g opacity="0.25" clip-path="url(#SVGID_19_)">
			<g>
				<defs>
					<rect id="SVGID_6_" x="386.03" y="135.934" width="28.699" height="22.978"/>
				</defs>
				<clipPath id="SVGID_29_">
					<use xlink:href="#SVGID_6_"  overflow="visible"/>
				</clipPath>
				<path clip-path="url(#SVGID_29_)" fill="#FFFFFF" d="M388.97,158.911l-2.94-0.597c4.116-20.27,20.569-23.356,28.699-22.156
					l-0.439,2.967l0.22-1.484l-0.217,1.485C413.448,139.005,393.541,136.401,388.97,158.911"/>
			</g>
		</g>
		<path clip-path="url(#SVGID_19_)" fill="#2B2B2B" d="M877.726,155.13c0,7.087,5.745,12.832,12.832,12.832
			s12.832-5.745,12.832-12.832c0-7.087-5.745-12.832-12.832-12.832S877.726,148.043,877.726,155.13"/>
		<path clip-path="url(#SVGID_19_)" fill="#2B2B2B" d="M924.561,145.645c0,6.573,5.329,11.902,11.903,11.902
			s11.903-5.329,11.903-11.902c0-6.574-5.329-11.903-11.903-11.903S924.561,139.071,924.561,145.645"/>
		<path clip-path="url(#SVGID_19_)" fill="#2B2B2B" d="M931.582,155.904c0,4.881,3.957,8.838,8.838,8.838
			c4.883,0,8.84-3.957,8.84-8.838c0-4.881-3.957-8.838-8.84-8.838C935.539,147.066,931.582,151.023,931.582,155.904"/>
		<rect x="1106.855" y="518.468" clip-path="url(#SVGID_19_)" fill="#2B2B2B" width="4.938" height="63.843"/>
		<rect x="1071.479" y="518.468" clip-path="url(#SVGID_19_)" fill="#2B2B2B" width="4.938" height="63.843"/>
		<path clip-path="url(#SVGID_19_)" fill="#2B2B2B" d="M1129.151,774.83L1129.151,774.83c4.636,0,8.393-3.757,8.393-8.393v-7.568
			c0-4.636-3.757-8.393-8.393-8.393c-4.635,0-8.392,3.757-8.392,8.393v7.568C1120.76,771.073,1124.517,774.83,1129.151,774.83"/>
		<path clip-path="url(#SVGID_19_)" fill="#2B2B2B" d="M1054.119,774.83L1054.119,774.83c4.635,0,8.393-3.757,8.393-8.393v-7.568
			c0-4.636-3.758-8.393-8.393-8.393s-8.393,3.757-8.393,8.393v7.568C1045.727,771.073,1049.484,774.83,1054.119,774.83"/>
		<polygon clip-path="url(#SVGID_19_)" fill="#F6C60C" points="1005.558,761.016 986.47,773.185 1020.698,771.672 1018.094,759.426 
					"/>
		<path clip-path="url(#SVGID_19_)" fill="#2B2B2B" d="M980.941,774.931l24.094-15.361l14.239-1.806l3.259,15.329L980.941,774.931z
			 M1006.08,762.461l-14.082,8.978l26.863-1.186l-1.948-9.165L1006.08,762.461z"/>
		<path clip-path="url(#SVGID_19_)" fill="#F6C60C" d="M965.765,752.477l10.396,15.56l6.361,5.148H971.84
			c0,0-17.84-11.292-17.84-11.95s1.89-7.021,1.89-7.021l10.835-1.736"/>
		<path clip-path="url(#SVGID_19_)" fill="#2B2B2B" d="M986.76,774.685h-15.354l-0.367-0.232
			c-18.538-11.733-18.538-12.168-18.538-13.218c0-0.217,0-0.876,1.952-7.447l0.268-0.906l11.767-1.886l0.145,0.902l0.38-0.254
			l10.27,15.37L986.76,774.685z M972.274,771.685h6.01l-3.245-2.626l-9.895-14.811l-8.084,1.296
			c-0.596,2.036-1.179,4.119-1.434,5.168C957.656,762.275,965.293,767.26,972.274,771.685"/>
		<path clip-path="url(#SVGID_19_)" fill="#FFFFFF" d="M883.505,170.871c0,17.911,14.521,32.431,32.432,32.431
			s32.43-14.52,32.43-32.431c0-17.911-14.519-32.431-32.43-32.431S883.505,152.96,883.505,170.871"/>
		<path clip-path="url(#SVGID_19_)" fill="#2B2B2B" d="M915.936,204.802c-18.709,0-33.931-15.221-33.931-33.931
			c0-18.709,15.222-33.931,33.931-33.931s33.932,15.222,33.932,33.931C949.867,189.581,934.645,204.802,915.936,204.802
			 M915.936,139.939c-17.056,0-30.931,13.875-30.931,30.931c0,17.055,13.875,30.931,30.931,30.931
			c17.057,0,30.932-13.876,30.932-30.931C946.867,153.814,932.992,139.939,915.936,139.939"/>
		<path clip-path="url(#SVGID_19_)" fill="#2B2B2B" d="M890.885,379.263c5.002,27.314,5.002,27.314,13.121,57.551l71.53,227.183
			l-22.674,90.32c0,0,18.676,1.961,18.43,0c-0.062-0.503,3.348-23.452,14.816-56.742l15.679,63.777l18.91-1.926
			c-0.09-0.72-11.066-43.594-22.089-99.191c9.954-30.658,20.578-65.839,29.315-100.696c0.977,3.098-17.27-120.997-21.279-149.089
			c-1.379-9.66-5.68-35.958-6.996-48.628 M943.96,406.255l13.511-2.245l38.918,160.761l-8.573,40.794
			C972.587,528.07,947.09,429.442,943.96,406.255"/>
		<path clip-path="url(#SVGID_19_)" fill="#8948C6" d="M843.832,298.601c0,0,10.947-33.797,14.101-41.987
			c2.241-5.823,8.767-9.861,12.354-11.711l102.797-16.474c0,0,12.47,1.317,17.733,8.338c5.266,7.02,25.012,36.553,25.012,36.553
			l-29.852,5.461l20.702,80.845l-122.233,19.746l-10.912-103.626l2.336,19.797L843.832,298.601z"/>
		<path clip-path="url(#SVGID_19_)" fill="#2B2B2B" d="M883.121,381.105l-8.835-83.904l-32.584,3.11l0.704-2.173
			c0.446-1.381,10.994-33.929,14.127-42.063c2.408-6.261,9.221-10.523,13.066-12.506l0.213-0.11l0.237-0.038l102.993-16.505
			l0.199,0.021c0.536,0.057,13.183,1.471,18.775,8.929c5.23,6.973,24.251,35.413,25.06,36.62l1.269,1.898l-30.516,5.583
			l20.71,80.878L883.121,381.105z M877.271,296.917l8.501,80.723l119.047-19.232l-20.694-80.812l29.186-5.34
			c-4.449-6.638-19.285-28.712-23.692-34.589c-4.471-5.961-14.973-7.524-16.505-7.723l-102.35,16.402
			c-3.499,1.831-9.42,5.58-11.432,10.807c-2.639,6.856-10.895,32.138-13.367,39.738l28.006-2.673l-1.928-18.315l2.98-0.333
			l2.517,21.322L877.271,296.917z"/>
		<path clip-path="url(#SVGID_19_)" fill="#FFFFFF" d="M1004.55,276.153c0,0,21.502,49.385,17.897,55.404
			c-3.235,5.402-109.786-11.498-109.786-11.498l80.242-18.462l-7.868-22.145L1004.55,276.153z"/>
		<path clip-path="url(#SVGID_19_)" fill="#2B2B2B" d="M1015.69,334.128c-7.266,0-21.437-1.118-49.544-4.807
			c-26.752-3.512-53.453-7.739-53.721-7.781l-7.632-1.21l86.131-19.817l-7.9-22.242l22.433-3.793l0.468,1.076
			c0.056,0.124,5.447,12.531,10.329,25.516c10.105,26.874,8.267,29.946,7.481,31.257
			C1023.272,333.1,1022.655,334.128,1015.69,334.128 M920.572,319.778c39.258,6.059,95.484,13.536,100.66,10.864
			c1.281-3.139-4.858-23.425-17.59-52.814l-16.596,2.805l7.833,22.049L920.572,319.778z"/>
		<path clip-path="url(#SVGID_19_)" fill="#FFFFFF" d="M853.498,296.941c0,0,1.877,58.404,7.155,62.087
			c5.794,4.042,98.771-49.729,98.771-49.729l-81.45,11.104l-3.134-26.209L853.498,296.941z"/>
		<path clip-path="url(#SVGID_19_)" fill="#2B2B2B" d="M861.539,360.787c-0.987,0-1.399-0.287-1.743-0.527
			c-1.162-0.812-3.884-2.71-6.195-33.544c-1.118-14.921-1.596-29.58-1.602-29.726l-0.044-1.362l24.193-3.114l3.133,26.198
			l87.487-11.927l-6.594,3.814c-0.233,0.134-23.537,13.602-47.251,26.401C875.153,357.388,864.937,360.787,861.539,360.787
			 M861.451,357.745c5.146,1.05,49.166-22.187,90.587-45.924l-75.374,10.276l-3.135-26.221l-18.487,2.379
			C856.217,332.964,859.188,355.578,861.451,357.745"/>
		<line clip-path="url(#SVGID_19_)" fill="#8948C6" x1="985.035" y1="279.452" x2="977.765" y2="258.486"/>
		
			<rect x="970.305" y="267.47" transform="matrix(0.3276 0.9448 -0.9448 0.3276 913.9792 -746.385)" clip-path="url(#SVGID_19_)" fill="#2B2B2B" width="22.191" height="3"/>
		<path clip-path="url(#SVGID_19_)" fill="#F6C60C" d="M1061.454,767.651h60.362c18.497,0,33.492-14.995,33.492-33.492V604.615
			c0-18.497-14.995-33.492-33.492-33.492h-60.362c-18.497,0-33.491,14.995-33.491,33.492v129.544
			C1027.963,752.656,1042.957,767.651,1061.454,767.651"/>
		<path clip-path="url(#SVGID_19_)" fill="#2B2B2B" d="M1121.816,769.15h-60.362c-19.295,0-34.991-15.696-34.991-34.991V604.614
			c0-19.295,15.696-34.991,34.991-34.991h60.362c19.295,0,34.992,15.696,34.992,34.991v129.545
			C1156.809,753.454,1141.111,769.15,1121.816,769.15 M1061.454,572.623c-17.641,0-31.991,14.352-31.991,31.991v129.545
			c0,17.641,14.351,31.991,31.991,31.991h60.362c17.641,0,31.992-14.351,31.992-31.991V604.614c0-17.64-14.352-31.991-31.992-31.991
			H1061.454z"/>
		<path clip-path="url(#SVGID_19_)" fill="#2B2B2B" d="M1068.034,524.392h47.201c4.505,0,8.157-3.651,8.157-8.156
			s-3.652-8.156-8.157-8.156h-47.201c-4.505,0-8.155,3.651-8.155,8.156S1063.529,524.392,1068.034,524.392"/>
		<path clip-path="url(#SVGID_19_)" fill="#2B2B2B" d="M903.39,138.094c0,8.27,6.704,14.974,14.975,14.974
			c8.269,0,14.973-6.704,14.973-14.974s-6.704-14.974-14.973-14.974C910.094,123.121,903.39,129.824,903.39,138.094"/>
		<path clip-path="url(#SVGID_19_)" fill="#2B2B2B" d="M885.815,138.439c0,6.413,5.198,11.612,11.611,11.612
			s11.613-5.199,11.613-11.612c0-6.413-5.2-11.612-11.613-11.612S885.815,132.027,885.815,138.439"/>
		<path clip-path="url(#SVGID_19_)" fill="#2B2B2B" d="M888.887,123.121c0,7.441,6.032,13.474,13.475,13.474
			c7.44,0,13.473-6.033,13.473-13.474c0-7.441-6.032-13.474-13.473-13.474C894.919,109.647,888.887,115.68,888.887,123.121"/>
		<rect x="1056.212" y="629.41" clip-path="url(#SVGID_19_)" fill="#2B2B2B" width="70.847" height="3"/>
		<rect x="1056.212" y="667.887" clip-path="url(#SVGID_19_)" fill="#2B2B2B" width="70.847" height="3"/>
		<rect x="1056.212" y="706.363" clip-path="url(#SVGID_19_)" fill="#2B2B2B" width="70.847" height="3"/>
		<g opacity="0.25" clip-path="url(#SVGID_19_)">
			<g>
				<defs>
					<rect id="SVGID_5_" x="878.321" y="274.044" width="7.589" height="42.828"/>
				</defs>
				<clipPath id="SVGID_30_">
					<use xlink:href="#SVGID_5_"  overflow="visible"/>
				</clipPath>
				<path clip-path="url(#SVGID_30_)" fill="#FFFFFF" d="M882.929,316.872c-0.472-4.217-4.607-41.25-4.607-42.818h3h-1.5l1.5-0.01
					c0.03,1.345,2.761,26.15,4.588,42.495L882.929,316.872z"/>
			</g>
		</g>
		<g opacity="0.25" clip-path="url(#SVGID_19_)">
			<g>
				<defs>
					<rect id="SVGID_4_" x="887.393" y="353.275" width="4.659" height="18.908"/>
				</defs>
				<clipPath id="SVGID_31_">
					<use xlink:href="#SVGID_4_"  overflow="visible"/>
				</clipPath>
				
					<rect x="880.365" y="361.229" transform="matrix(0.0893 0.996 -0.996 0.0893 1171.5684 -555.8246)" clip-path="url(#SVGID_31_)" fill="#FFFFFF" width="18.715" height="3"/>
			</g>
		</g>
		<g opacity="0.25" clip-path="url(#SVGID_19_)">
			<g>
				<defs>
					<rect id="SVGID_3_" x="895.623" y="384.21" width="111.457" height="371.329"/>
				</defs>
				<clipPath id="SVGID_32_">
					<use xlink:href="#SVGID_3_"  overflow="visible"/>
				</clipPath>
				
					<rect x="758.319" y="568.375" transform="matrix(0.2813 0.9596 -0.9596 0.2813 1230.6564 -503.3545)" clip-path="url(#SVGID_32_)" fill="#FFFFFF" width="386.069" height="3"/>
			</g>
		</g>
		<g opacity="0.25" clip-path="url(#SVGID_19_)">
			<g>
				<defs>
					<rect id="SVGID_2_" x="963.174" y="400.138" width="41.216" height="210.757"/>
				</defs>
				<clipPath id="SVGID_33_">
					<use xlink:href="#SVGID_2_"  overflow="visible"/>
				</clipPath>
				<polygon clip-path="url(#SVGID_33_)" fill="#FFFFFF" points="994.06,610.896 991.134,610.231 1001.31,565.339 963.174,400.815 
					966.096,400.137 1004.388,565.332 				"/>
			</g>
		</g>
		<g opacity="0.25" clip-path="url(#SVGID_19_)">
			<g>
				<defs>
					<rect id="SVGID_1_" x="1033.97" y="603.661" width="3" height="129.087"/>
				</defs>
				<clipPath id="SVGID_34_">
					<use xlink:href="#SVGID_1_"  overflow="visible"/>
				</clipPath>
				<rect x="1033.97" y="603.661" clip-path="url(#SVGID_34_)" fill="#FFFFFF" width="3" height="129.087"/>
			</g>
		</g>
	</g>
</g>
</svg>
