<?xml version="1.0" encoding="utf-8"?>
<!-- Generator: Adobe Illustrator 14.0.0, SVG Export Plug-In  -->
<!DOCTYPE svg PUBLIC "-//W3C//DTD SVG 1.1//EN" "http://www.w3.org/Graphics/SVG/1.1/DTD/svg11.dtd" [
	<!ENTITY ns_flows "http://ns.adobe.com/Flows/1.0/">
]>
<svg version="1.1"
	 xmlns="http://www.w3.org/2000/svg" xmlns:xlink="http://www.w3.org/1999/xlink" xmlns:a="http://ns.adobe.com/AdobeSVGViewerExtensions/3.0/"
	 x="0px" y="0px" width="415px" height="325px" viewBox="136.553 450.002 415 325" enable-background="new 136.553 450.002 415 325"
	 xml:space="preserve">
<defs>
</defs>
<rect fill="none" width="1356.115" height="857.009"/>
<rect fill="none" width="1356.119" height="857.009"/>
<path fill="#8948C6" d="M433.792,563.601c0,7.295,5.914,13.209,13.209,13.209s13.209-5.914,13.209-13.209
	s-5.914-13.209-13.209-13.209S433.792,556.306,433.792,563.601"/>
<path fill="#2B2B2B" d="M447.001,578.31c-8.109,0-14.709-6.6-14.709-14.709s6.6-14.709,14.709-14.709s14.709,6.6,14.709,14.709
	S455.11,578.31,447.001,578.31 M447.001,551.892c-6.457,0-11.709,5.254-11.709,11.709c0,6.457,5.252,11.709,11.709,11.709
	s11.709-5.252,11.709-11.709C458.71,557.146,453.458,551.892,447.001,551.892"/>
<path fill="#F6C60C" d="M462.524,611.914c-0.682,5.801,3.471,11.057,9.271,11.736c5.803,0.682,11.059-3.471,11.738-9.271
	c0.68-5.803-3.471-11.059-9.273-11.738C468.46,601.96,463.204,606.111,462.524,611.914"/>
<path fill="#2B2B2B" d="M473.053,625.224c-0.477,0-0.953-0.027-1.432-0.084c-3.203-0.377-6.07-1.977-8.07-4.51
	c-2-2.531-2.895-5.688-2.518-8.893c0.375-3.203,1.977-6.068,4.508-8.068s5.689-2.891,8.894-2.52
	c3.203,0.377,6.068,1.977,8.068,4.508s2.895,5.689,2.518,8.895c-0.375,3.203-1.977,6.07-4.508,8.07
	C478.362,624.324,475.754,625.224,473.053,625.224 M473.022,604.068c-4.537,0-8.466,3.406-9.009,8.02
	c-0.582,4.971,2.988,9.49,7.958,10.072c4.969,0.584,9.488-2.986,10.072-7.957c0.283-2.408-0.391-4.781-1.893-6.686
	c-1.504-1.902-3.658-3.105-6.064-3.387C473.729,604.089,473.374,604.068,473.022,604.068"/>
<path fill="#8948C6" d="M439.124,773.08c0,0,1.242-84.02,66.251-144.834c-1.047-1.051-36.57,57.969-42.925,112.867
	c-0.064,0.373,14.615-39.633,47.119-65.764c-1.049,2.176-22.566,41.727-25.963,74.377c-0.25,0.15,10.236-17.332,33.303-35.33
	c-1.049,0.877-15.727,32.605-14.68,58.684C501.182,774.832,439.124,773.08,439.124,773.08"/>
<path fill="#2B2B2B" d="M485.975,775.369c-4.146,0-9.297-0.041-15.713-0.131c-15.476-0.217-31.027-0.654-31.181-0.66l-1.479-0.041
	l0.02-1.479c0.004-0.213,0.412-21.539,8.811-50.016c7.717-26.168,23.951-63.928,57.492-95.492c0.367-0.402,0.668-0.652,0.889-0.729
	l0.889-0.311l0.734,0.674l1.098,1.096l-1.133,1.061c-0.258,0.238-0.516,0.48-0.77,0.723c-4.836,6.283-31.586,53.115-40.076,100.346
	c6.962-14.416,20.89-38.395,43.074-56.23l5.17-4.156l-2.879,5.975c-0.076,0.162-0.26,0.52-0.539,1.057
	c-7.611,14.693-20.309,41.85-24.414,66.455c1.16-1.572,2.664-3.521,4.521-5.756c5.018-6.033,13.514-15.189,25.498-24.539
	l1.885,2.334c0.104-0.086,0.154-0.156,0.156-0.158c-1.031,1.393-15.332,31.918-14.299,57.629l0.018,0.447l-0.229,0.385
	C503.006,774.703,502.606,775.369,485.975,775.369 M440.683,771.623c21.336,0.584,53.939,1.129,60.011,0.34
	c-0.447-19.531,7.262-41.445,11.924-52.148c-17.914,15.131-26.555,28.719-27.549,30.35l-0.049,0.469l-1.859,1.104l-0.797-1.162
	c-0.266-0.391-0.373-0.703-0.23-1.188c2.516-23.732,14.262-50.961,22.697-68.01c-24.41,22.186-37.302,51.123-40.847,59.953
	c-0.424,1.061-1.08,1.473-1.941,1.229l-1.299-0.367l0.23-1.332c3.305-28.574,14.402-57.555,23.128-76.822
	c3.957-8.734,8.516-17.752,12.387-24.723C446.599,693.32,441.226,760.828,440.683,771.623"/>
<path fill="#F6C60C" d="M452.257,774.582c0,0-5.391-204.006-250.856-314.104c-0.104,3.146-28.796,134.014,74.676,313.414
	C279.868,772.007,452.257,774.582,452.257,774.582"/>
<path fill="#2B2B2B" d="M453.798,776.105l-1.562-0.023c-67.795-1.014-170.232-2.057-175.578-0.803l-1.176,0.584l-0.703-1.221
	c-91.212-158.141-80.534-279.449-75.087-312.861c0.119-0.729,0.198-1.189,0.212-1.377l0.17-2.119l1.942,0.824
	c56.154,25.188,104.33,57.428,143.191,95.828c31.105,30.736,56.344,65.461,75.016,103.213
	c31.811,64.316,33.521,115.879,33.535,116.393L453.798,776.105z M276.745,775.234l-0.02,0.012
	C276.733,775.24,276.739,775.238,276.745,775.234 M312.337,771.708c42.488,0,109.967,0.93,138.342,1.35
	c-0.557-9.049-4.738-56.205-33.215-113.717c-18.533-37.43-43.578-71.863-74.443-102.346
	c-38.174-37.701-85.418-69.436-140.433-94.338c-5.413,33.654-15.544,153.377,74.3,309.637
	C281.292,771.869,294.651,771.708,312.337,771.708"/>
<line fill="#F6C60C" x1="201.401" y1="460.478" x2="362.8" y2="774.582"/>
<rect x="105.53" y="616.03" transform="matrix(0.457 0.8894 -0.8894 0.457 702.4315 84.3812)" fill="#2B2B2B" width="353.144" height="3"/>
<line fill="#F6C60C" x1="321.78" y1="535.458" x2="282.101" y2="617.529"/>
<rect x="300.44" y="530.914" transform="matrix(0.9002 0.4355 -0.4355 0.9002 281.1703 -73.9536)" fill="#2B2B2B" width="3.001" height="91.16"/>
<line fill="#F6C60C" x1="395.042" y1="617.531" x2="345.714" y2="735.484"/>
<rect x="368.878" y="612.581" transform="matrix(0.9225 0.386 -0.386 0.9225 289.876 -90.54)" fill="#2B2B2B" width="3" height="127.852"/>
<line fill="#F6C60C" x1="314.54" y1="680.662" x2="223.934" y2="659.46"/>
<rect x="222.71" y="668.561" transform="matrix(0.9737 0.2278 -0.2278 0.9737 159.7463 -43.7191)" fill="#2B2B2B" width="93.054" height="3.001"/>
<path fill="#8948C6" d="M340.089,773.08c0,0-21.355-150.373-195.728-180.906c0.328,1.922-0.812,84.904,84.285,180.906
	C230.712,771.464,340.089,773.08,340.089,773.08"/>
<path fill="#2B2B2B" d="M228.459,775.13l-0.936-1.055c-75.137-84.768-83.757-159.875-84.609-180.877
	c-0.017-0.422-0.026-0.697-0.039-0.82l-0.204-1.975l1.948,0.291c39.99,7.002,75.23,20.93,104.742,41.393
	c23.626,16.381,43.647,36.961,59.507,61.166c27.008,41.213,32.65,79.236,32.705,79.615l0.248,1.736l-1.756-0.025
	c-42.045-0.621-105.7-1.168-110.693-0.164L228.459,775.13z M258.323,770.861c7.121,0,15.924,0.033,26.83,0.113
	c23.268,0.17,46.607,0.488,53.154,0.58c-1.438-7.84-8.6-41.07-32.021-76.768c-15.654-23.859-35.406-44.141-58.707-60.283
	c-28.682-19.873-62.865-33.5-101.627-40.523c1.05,21.869,10.329,94.883,83.257,177.473
	C231.609,771.134,238.282,770.861,258.323,770.861"/>
<line fill="#F6C60C" x1="144.361" y1="592.173" x2="289.86" y2="773.296"/>
<rect x="100.947" y="681.235" transform="matrix(0.6263 0.7796 -0.7796 0.6263 613.4039 85.8974)" fill="#2B2B2B" width="232.327" height="3"/>
<line fill="#F6C60C" x1="226.733" y1="622.707" x2="212.859" y2="677.443"/>
<rect x="218.296" y="621.84" transform="matrix(0.9694 0.2454 -0.2454 0.9694 166.2811 -34.0624)" fill="#2B2B2B" width="3" height="56.469"/>
<line fill="#F6C60C" x1="281.396" y1="663.402" x2="266.128" y2="741.113"/>
<rect x="272.262" y="662.659" transform="matrix(0.9813 0.1927 -0.1927 0.9813 140.4817 -39.5966)" fill="#2B2B2B" width="3" height="79.196"/>
<line fill="#F6C60C" x1="240.395" y1="711.72" x2="182.775" y2="710.121"/>
<rect x="182.764" y="709.422" transform="matrix(0.9996 0.0278 -0.0278 0.9996 19.81 -5.5978)" fill="#2B2B2B" width="57.642" height="2.999"/>
<rect x="192.909" y="773.332" fill="#2B2B2B" width="352.367" height="3"/>
<path fill="#2B2B2B" d="M412.767,774.457c-0.117-1.162-11.275-117.162,24.98-200.672l2.752,1.193
	c-35.939,82.785-24.865,198.023-24.748,199.176L412.767,774.457z"/>
<path fill="#2B2B2B" d="M428.833,777.689l-3-0.049c0.018-0.936,1.965-94.309,38.629-157.41l2.594,1.508
	C430.79,684.154,428.849,776.761,428.833,777.689"/>
<g>
	<rect x="156.492" y="620.666" fill="none" width="82.269" height="143.172"/>
	<path fill="#FFFFFF" d="M236.533,763.837c-63.839-70.754-79.887-141.824-80.042-142.533l2.932-0.639
		c0.153,0.701,16.063,71.031,79.338,141.16L236.533,763.837z"/>
</g>
<g>
	<rect x="210.085" y="498.628" fill="none" width="18.11" height="107.275"/>
	<path fill="#FFFFFF" d="M225.271,605.904c-14.279-61.959-15.179-106.779-15.187-107.227l3-0.049
		c0.008,0.443,0.908,44.973,15.111,106.602L225.271,605.904z"/>
</g>
<line fill="#8948C6" x1="355.601" y1="586.724" x2="370.22" y2="657.656"/>
<rect x="326.698" y="620.69" transform="matrix(0.2019 0.9794 -0.9794 0.2019 899.0379 141.1586)" fill="#2B2B2B" width="72.424" height="2.999"/>
<line fill="#8948C6" x1="345.716" y1="653.66" x2="360.276" y2="697.039"/>
<rect x="330.117" y="673.848" transform="matrix(0.3182 0.948 -0.948 0.3182 880.9118 125.7971)" fill="#2B2B2B" width="45.757" height="3"/>
</svg>
