<?xml version="1.0" encoding="UTF-8" standalone="no"?>
<svg
   xmlns:dc="http://purl.org/dc/elements/1.1/"
   xmlns:cc="http://creativecommons.org/ns#"
   xmlns:rdf="http://www.w3.org/1999/02/22-rdf-syntax-ns#"
   xmlns:svg="http://www.w3.org/2000/svg"
   xmlns="http://www.w3.org/2000/svg"
   viewBox="0 0 1571.96 1830.36"
   height="1830.36"
   width="1571.96"
   xml:space="preserve"
   id="svg2"
   version="1.1"><metadata
     id="metadata8"><rdf:RDF><cc:Work
         rdf:about=""><dc:format>image/svg+xml</dc:format><dc:type
           rdf:resource="http://purl.org/dc/dcmitype/StillImage" /></cc:Work></rdf:RDF></metadata><defs
     id="defs6"><clipPath
       id="clipPath18"
       clipPathUnits="userSpaceOnUse"><path
         id="path16"
         d="M 0,1372.768 H 1178.965 V 0 H 0 Z" /></clipPath></defs><g
     transform="matrix(1.3333333,0,0,-1.3333333,0,1830.36)"
     id="g10"><g
       id="g12"><g
         clip-path="url(#clipPath18)"
         id="g14"><g
           transform="translate(767.8817,929.8671)"
           id="g20"><path
             id="path22"
             style="fill:#2b2b2b;fill-opacity:1;fill-rule:nonzero;stroke:none"
             d="M 0,0 C -16.49,25.773 -8.965,60.033 16.808,76.523 42.58,93.013 76.841,85.488 93.331,59.715 109.821,33.942 102.296,-0.318 76.523,-16.808 50.751,-33.297 16.49,-25.773 0,0 m 164.993,105.244 c -42.078,65.766 -129.503,84.968 -195.268,42.89 -65.766,-42.078 -168.201,-275.446 -168.201,-275.446 0,0 254.814,-4.792 320.58,37.287 65.765,42.078 84.968,129.503 42.889,195.269" /></g><g
           transform="translate(814.4735,1006.7181)"
           id="g24"><path
             id="path26"
             style="fill:#2b2b2b;fill-opacity:1;fill-rule:nonzero;stroke:none"
             d="m 0,0 c -8.668,0 -17.435,-2.39 -25.26,-7.397 -21.834,-13.969 -28.233,-43.097 -14.264,-64.931 6.77,-10.576 17.251,-17.885 29.515,-20.578 12.264,-2.698 24.84,-0.452 35.415,6.318 10.579,6.766 17.887,17.247 20.582,29.511 2.692,12.263 0.45,24.842 -6.317,35.419 C 30.708,-7.653 15.51,0 0,0 m 0.199,-110.807 c -4.593,0 -9.219,0.498 -13.811,1.506 -16.644,3.655 -30.866,13.574 -40.048,27.928 -18.959,29.628 -10.278,69.157 19.351,88.115 29.623,18.954 69.161,10.278 88.116,-19.355 9.185,-14.353 12.228,-31.423 8.573,-48.065 -3.655,-16.643 -13.572,-30.866 -27.925,-40.05 -10.393,-6.648 -22.208,-10.079 -34.256,-10.079 m -232.347,-85.089 c 52.19,-0.258 248.487,1.123 303.136,36.089 61.764,39.517 79.861,121.913 40.347,183.677 C 71.814,85.632 -10.59,103.728 -72.344,64.213 -126.996,29.246 -210.541,-148.451 -232.148,-195.896 m 12.398,-16.851 c -14.365,0 -23.62,0.159 -25.476,0.193 l -12.588,0.237 5.061,11.528 c 4.223,9.623 104.228,236.187 171.361,279.141 69.563,44.505 162.36,24.119 206.863,-45.437 44.507,-69.558 24.122,-162.356 -45.434,-206.861 -55.269,-35.362 -232.87,-38.801 -299.787,-38.801" /></g><g
           transform="translate(382.4959,949.0887)"
           id="g28"><path
             id="path30"
             style="fill:#8948c6;fill-opacity:1;fill-rule:nonzero;stroke:none"
             d="m 0,0 v 0 c -89.922,-89.415 -90.334,-234.795 -0.919,-324.717 89.414,-89.922 234.795,-90.334 324.717,-0.919" /></g><g
           transform="translate(544.4139,548.267)"
           id="g32"><path
             id="path34"
             style="fill:#2b2b2b;fill-opacity:1;fill-rule:nonzero;stroke:none"
             d="m 0,0 c -0.232,0 -0.459,0 -0.691,0.002 -63.574,0.179 -123.272,25.105 -168.097,70.186 -92.534,93.06 -92.108,244.05 0.951,336.585 l 11.835,-11.903 c -86.496,-86.007 -86.893,-226.35 -0.886,-312.848 41.665,-41.9 97.154,-65.068 156.242,-65.237 H 0 C 58.85,16.784 114.214,39.622 155.964,81.137 L 167.798,69.233 C 122.885,24.573 63.314,0.002 0,0" /></g><g
           transform="translate(546.6268,483.8265)"
           id="g36"><path
             id="path38"
             style="fill:#2b2b2b;fill-opacity:1;fill-rule:nonzero;stroke:none"
             d="m 0,0 c -77.247,-0.003 -154.468,29.508 -213.107,88.482 -116.84,117.504 -116.302,308.155 1.203,424.996 l 11.835,-11.903 C -311.012,391.26 -311.52,211.257 -201.207,100.317 -90.888,-10.624 89.118,-11.131 200.054,99.181 L 211.889,87.277 C 153.36,29.079 76.667,0.003 0,0" /></g><g
           transform="translate(706.2938,623.4525)"
           id="g40"><path
             id="path42"
             style="fill:#8948c6;fill-opacity:1;fill-rule:nonzero;stroke:none"
             d="m 0,0 v 0 c 89.922,89.415 90.334,234.795 0.919,324.717 -89.414,89.922 -234.795,90.334 -324.717,0.919" /></g><g
           transform="translate(712.2118,617.5004)"
           id="g44"><path
             id="path46"
             style="fill:#2b2b2b;fill-opacity:1;fill-rule:nonzero;stroke:none"
             d="m 0,0 -11.834,11.904 c 86.495,86.007 86.892,226.35 0.885,312.849 -86.014,86.497 -226.356,86.892 -312.851,0.883 l -11.835,11.904 c 93.062,92.533 244.052,92.109 336.586,-0.952 C 93.485,243.527 93.059,92.534 0,0" /></g><g
           transform="translate(546.493,492.078)"
           id="g48"><path
             id="path50"
             style="fill:#2b2b2b;fill-opacity:1;fill-rule:nonzero;stroke:none"
             d="M 0,0 V -108.933" /></g><path
           id="path52"
           style="fill:#2b2b2b;fill-opacity:1;fill-rule:nonzero;stroke:none"
           d="m 554.886,383.146 h -16.785 v 108.932 h 16.785 z" /><g
           transform="translate(451.0262,383.1454)"
           id="g54"><path
             id="path56"
             style="fill:#2b2b2b;fill-opacity:1;fill-rule:nonzero;stroke:none"
             d="M 0,0 H 188.621" /></g><path
           id="path58"
           style="fill:#2b2b2b;fill-opacity:1;fill-rule:nonzero;stroke:none"
           d="M 639.646,374.753 H 451.028 v 16.785 h 188.618 z" /><g
           transform="translate(652.0946,1003.6166)"
           id="g60"><path
             id="path62"
             style="fill:#f6c60c;fill-opacity:1;fill-rule:nonzero;stroke:none"
             d="m 0,0 c -30.771,15.018 -43.54,52.138 -28.521,82.908 15.017,30.771 52.136,43.54 82.908,28.522 C 85.157,96.412 97.927,59.292 82.908,28.522 67.89,-2.249 30.771,-15.019 0,0 m 96.333,196.681 c -78.519,38.323 -173.238,5.738 -211.562,-72.781 -38.323,-78.52 -0.239,-361.173 -0.239,-361.173 0,0 246.26,143.873 284.583,222.393 38.323,78.519 5.738,173.238 -72.782,211.561" /></g><g
           transform="translate(679.3339,1112.9642)"
           id="g64"><path
             id="path66"
             style="fill:#2b2b2b;fill-opacity:1;fill-rule:nonzero;stroke:none"
             d="m 0,0 c -5.875,0 -11.766,-0.977 -17.483,-2.944 -13.539,-4.659 -24.456,-14.31 -30.735,-27.178 -6.281,-12.867 -7.176,-27.41 -2.517,-40.949 4.658,-13.539 14.309,-24.455 27.176,-30.734 12.871,-6.283 27.414,-7.174 40.951,-2.516 13.539,4.658 24.456,14.309 30.734,27.177 6.281,12.867 7.176,27.41 2.518,40.95 C 45.985,-22.655 36.334,-11.74 23.466,-5.46 16.031,-1.831 8.035,0 0,0 m -0.104,-124.059 c -10.557,0 -21.054,2.403 -30.817,7.17 -16.896,8.247 -29.571,22.579 -35.684,40.358 -6.119,17.778 -4.945,36.876 3.3,53.773 8.248,16.896 22.581,29.57 40.36,35.686 17.785,6.117 36.882,4.945 53.774,-3.304 16.897,-8.247 29.57,-22.58 35.685,-40.358 6.117,-17.779 4.944,-36.877 -3.301,-53.773 -8.248,-16.897 -22.581,-29.571 -40.359,-35.686 -7.508,-2.582 -15.249,-3.866 -22.958,-3.866 M -0.171,95.048 c -16.411,0 -32.885,-2.729 -48.859,-8.225 -37.839,-13.018 -68.344,-39.99 -85.893,-75.952 -32.252,-66.077 -7.815,-288.172 -1.058,-343.718 47.945,28.847 238.065,146.223 270.314,212.301 36.231,74.234 5.313,164.105 -68.921,200.338 C 44.635,89.934 22.289,95.048 -0.171,95.048 m -149.17,-455.266 -1.681,12.476 c -1.571,11.644 -37.977,286.091 1.012,365.976 19.52,39.989 53.441,69.986 95.518,84.461 42.087,14.479 87.278,11.699 127.267,-7.819 39.99,-19.517 69.987,-53.441 84.463,-95.519 14.474,-42.079 11.698,-87.275 -7.818,-127.266 -38.993,-79.885 -277.747,-220.031 -287.894,-225.959 z" /></g><g
           transform="translate(228.0399,226.5267)"
           id="g68"><path
             id="path70"
             style="fill:#8948c6;fill-opacity:1;fill-rule:nonzero;stroke:none"
             d="M 0,0 H 7.033 C 22.007,0.113 34.03,12.137 34.03,27.224 34.03,42.084 22.007,54.221 7.033,54.221 H 0 Z m -12.591,-6.353 v 66.926 c 0,3.517 2.723,6.24 6.239,6.24 H 7.033 c 21.893,0 39.589,-17.81 39.589,-39.589 0,-22.006 -17.696,-39.816 -39.589,-39.816 H -6.352 c -3.516,0 -6.239,2.836 -6.239,6.239" /></g><g
           transform="translate(367.7948,254.7709)"
           id="g72"><path
             id="path74"
             style="fill:#8948c6;fill-opacity:1;fill-rule:nonzero;stroke:none"
             d="m 0,0 c 0,7.714 -3.063,14.86 -7.713,19.852 -4.765,5.104 -11.116,8.053 -17.923,8.053 -7.26,0 -13.612,-2.949 -18.376,-8.053 C -48.776,14.86 -51.726,7.714 -51.726,0 c 0,-7.713 2.95,-14.859 7.714,-19.737 4.764,-5.105 11.116,-8.167 18.376,-8.167 6.807,0 13.158,3.062 17.923,8.167 C -3.063,-14.859 0,-7.713 0,0 M 1.476,28.699 C 8.508,21.213 12.932,11.23 12.932,0 c 0,-11.229 -4.424,-21.325 -11.456,-28.698 -6.694,-7.373 -16.675,-12.138 -27.112,-12.138 -10.889,0 -20.872,4.765 -27.791,12.138 -7.033,7.373 -11.23,17.469 -11.23,28.698 0,11.23 4.197,21.213 11.23,28.699 6.919,7.487 16.902,12.138 27.791,12.138 10.437,0 20.418,-4.651 27.112,-12.138" /></g><g
           transform="translate(423.0438,226.5267)"
           id="g76"><path
             id="path78"
             style="fill:#8948c6;fill-opacity:1;fill-rule:nonzero;stroke:none"
             d="m 0,0 h 14.179 c 6.466,0.113 11.683,5.218 11.683,11.797 0,6.466 -5.217,11.57 -11.683,11.683 H 0 Z m 0,36.071 h 9.755 c 4.991,0 8.961,4.198 8.961,9.189 0,4.991 -3.97,8.961 -8.961,8.961 H 0 Z M -12.592,-6.353 v 66.926 c 0,3.517 2.836,6.24 6.239,6.24 h 0.34 0.114 15.654 c 11.91,0 21.553,-9.643 21.553,-21.553 0,-4.878 -1.588,-9.302 -4.311,-12.932 6.806,-4.31 11.457,-11.91 11.457,-20.531 0,-13.499 -10.89,-24.389 -24.275,-24.389 H -5.899 c -0.114,0 -0.114,0.113 -0.114,0.113 -0.226,0 -0.226,-0.113 -0.34,-0.113 -3.403,0 -6.239,2.836 -6.239,6.239" /></g><g
           transform="translate(525.8182,268.9506)"
           id="g80"><path
             id="path82"
             style="fill:#8948c6;fill-opacity:1;fill-rule:nonzero;stroke:none"
             d="M 0,0 C 0,6.579 -5.218,11.797 -11.684,11.797 H -25.637 V -11.57 h 13.953 C -5.218,-11.57 0,-6.353 0,0 m 15.881,-45.601 c 1.134,-3.289 -0.681,-6.805 -3.971,-7.94 -0.454,-0.113 -1.361,-0.34 -2.495,-0.34 H 9.302 c -1.135,0 -2.836,0.227 -4.425,1.248 -1.475,0.907 -2.722,2.382 -3.63,3.97 -1.588,3.29 -2.382,7.373 -2.382,13.612 -0.113,2.155 -0.567,3.63 -1.361,4.877 -0.681,1.248 -2.042,2.383 -3.402,3.29 -2.383,1.588 -5.332,2.495 -6.353,2.723 h -13.386 v -24.615 c 0,-3.404 -2.835,-6.24 -6.351,-6.24 -3.517,0 -6.24,2.836 -6.24,6.24 v 66.925 c 0,3.517 2.723,6.24 6.24,6.24 h 0.113 20.191 c 13.498,0 24.275,-10.89 24.275,-24.389 0,-7.486 -3.403,-14.065 -8.848,-18.604 1.475,-1.133 2.836,-2.495 3.97,-4.196 2.268,-3.29 3.743,-7.487 3.743,-12.251 -0.113,-3.403 0.228,-5.558 0.454,-6.692 1.816,-0.568 3.29,-1.929 3.971,-3.858" /></g><g
           transform="translate(630.6346,254.7709)"
           id="g84"><path
             id="path86"
             style="fill:#8948c6;fill-opacity:1;fill-rule:nonzero;stroke:none"
             d="m 0,0 c 0,7.714 -3.063,14.86 -7.713,19.852 -4.765,5.104 -11.116,8.053 -17.923,8.053 -7.26,0 -13.612,-2.949 -18.376,-8.053 C -48.776,14.86 -51.726,7.714 -51.726,0 c 0,-7.713 2.95,-14.859 7.714,-19.737 4.764,-5.105 11.116,-8.167 18.376,-8.167 6.807,0 13.158,3.062 17.923,8.167 C -3.063,-14.859 0,-7.713 0,0 M 1.476,28.699 C 8.508,21.213 12.932,11.23 12.932,0 c 0,-11.229 -4.424,-21.325 -11.456,-28.698 -6.694,-7.373 -16.675,-12.138 -27.112,-12.138 -10.889,0 -20.872,4.765 -27.791,12.138 -7.033,7.373 -11.23,17.469 -11.23,28.698 0,11.23 4.197,21.213 11.23,28.699 6.919,7.487 16.902,12.138 27.791,12.138 10.437,0 20.418,-4.651 27.112,-12.138" /></g><g
           transform="translate(699.8348,258.2875)"
           id="g88"><path
             id="path90"
             style="fill:#000000;fill-opacity:1;fill-rule:nonzero;stroke:none"
             d="m 0,0 c -4.083,0 -7.826,-1.701 -10.662,-4.65 -2.836,-2.836 -4.538,-6.92 -4.538,-11.457 0,-4.311 1.702,-8.394 4.538,-11.23 2.836,-2.949 6.579,-4.651 10.662,-4.651 4.197,0 7.827,1.702 10.663,4.651 2.836,2.836 4.537,6.919 4.537,11.23 0,4.537 -1.701,8.621 -4.537,11.457 C 7.827,-1.701 4.197,0 0,0 m 27.564,-38.227 c 0,-3.29 -2.721,-6.126 -6.125,-6.126 -3.062,0 -5.445,2.156 -6.011,4.878 -4.311,-2.949 -9.756,-4.878 -15.428,-4.878 -15.313,0 -27.564,12.932 -27.564,28.246 0,15.541 12.251,28.471 27.564,28.471 5.559,0 11.004,-1.814 15.2,-4.763 v 21.325 c 0,3.29 2.723,6.126 6.239,6.126 3.404,0 6.125,-2.836 6.125,-6.126 v -44.92 -0.113 z" /></g><g
           transform="translate(797.1649,264.64)"
           id="g92"><path
             id="path94"
             style="fill:#000000;fill-opacity:1;fill-rule:nonzero;stroke:none"
             d="m 0,0 c 0,-3.176 -2.609,-6.012 -6.013,-6.012 -2.608,0 -4.877,-0.68 -6.805,-2.155 -2.156,-1.361 -3.857,-3.29 -5.218,-5.445 -2.723,-3.63 -4.084,-7.941 -4.651,-9.529 v -21.551 c 0,-3.29 -2.836,-6.013 -6.239,-6.013 -3.29,0 -6.012,2.723 -6.012,6.013 V 0 c 0,3.29 2.722,5.898 6.012,5.898 3.403,0 6.239,-2.608 6.239,-5.898 v -0.794 c 0.68,0.794 1.588,1.701 2.382,2.269 3.743,2.496 8.621,4.537 14.292,4.423 C -2.609,5.898 0,3.29 0,0" /></g><g
           transform="translate(845.83,213.9349)"
           id="g96"><path
             id="path98"
             style="fill:#000000;fill-opacity:1;fill-rule:nonzero;stroke:none"
             d="m 0,0 c -12.931,0 -23.594,10.663 -23.594,23.595 v 27.11 c 0,3.176 2.723,6.012 6.012,6.012 3.403,0 6.013,-2.836 6.013,-6.012 v -27.11 c 0,-6.466 5.104,-11.571 11.569,-11.571 6.58,0 11.798,5.105 11.911,11.571 v 27.11 c 0,3.176 2.495,6.012 5.899,6.012 3.175,0 6.125,-2.836 6.125,-6.012 V 23.595 C 23.935,10.663 13.045,0 0,0" /></g><g
           transform="translate(916.8436,220.1742)"
           id="g100"><path
             id="path102"
             style="fill:#000000;fill-opacity:1;fill-rule:nonzero;stroke:none"
             d="m 0,0 c 0,-3.517 -2.836,-6.239 -6.353,-6.239 -2.835,0 -5.217,2.042 -6.011,4.651 -0.114,0.453 -0.227,1.021 -0.227,1.588 v 66.926 c 0,3.516 2.835,6.239 6.238,6.239 C -2.836,73.165 0,70.442 0,66.926 V 47.188 c 3.63,1.928 7.714,3.29 12.138,3.29 13.724,0 24.728,-11.23 24.728,-24.842 V 0 c 0,-3.517 -2.722,-6.239 -6.239,-6.239 -3.517,0 -6.239,2.722 -6.239,6.239 v 25.636 c 0,6.692 -5.445,12.137 -12.25,12.251 C 5.444,37.773 0.113,32.328 0,25.636 Z" /></g></g></g></g></svg>