<?xml version="1.0" encoding="utf-8"?>
<!-- Generator: Adobe Illustrator 14.0.0, SVG Export Plug-In  -->
<!DOCTYPE svg PUBLIC "-//W3C//DTD SVG 1.1//EN" "http://www.w3.org/Graphics/SVG/1.1/DTD/svg11.dtd" [
	<!ENTITY ns_flows "http://ns.adobe.com/Flows/1.0/">
]>
<svg version="1.1"
	 xmlns="http://www.w3.org/2000/svg" xmlns:xlink="http://www.w3.org/1999/xlink" xmlns:a="http://ns.adobe.com/AdobeSVGViewerExtensions/3.0/"
	 x="0px" y="0px" width="422px" height="681px" viewBox="804.56 103.004 422 681" enable-background="new 804.56 103.004 422 681"
	 xml:space="preserve">
<defs>
</defs>
<rect x="0.005" fill="none" width="1356.11" height="857.008"/>
<rect y="4" fill="none" width="1356.114" height="857.008"/>
<g>
	<rect x="869.466" y="656.127" fill="none" width="3" height="57.626"/>
	<rect x="869.466" y="656.127" fill="#FFFFFF" width="3" height="57.626"/>
</g>
<path fill="#2B2B2B" d="M1213.227,739.481c-5.113,42.678-35.584,41.625-73.783,37.047c-38.198-4.577-65.021-42.886-59.904-85.564
	c5.113-42.678,40.226-73.563,78.425-68.986C1196.164,626.555,1218.341,696.803,1213.227,739.481"/>
<polygon fill="#8948C6" points="943.281,663.656 943.281,649.209 929.325,649.209 929.325,663.656 912.74,663.656 912.74,778.297 
	959.867,778.297 959.867,663.656 "/>
<path fill="#2B2B2B" d="M961.367,779.797H911.24V662.155h16.585v-14.446h16.956v14.446h16.586V779.797z M914.24,776.797h44.127
	V665.155h-16.586v-14.446h-10.956v14.446H914.24V776.797z"/>
<polygon fill="#F6C60C" points="889.875,648.576 889.875,632.229 875.919,632.229 875.919,648.576 859.334,648.576 859.334,778.297 
	906.46,778.297 906.46,648.576 "/>
<path fill="#2B2B2B" d="M907.96,779.797h-50.126V647.075h16.585v-16.346h16.956v16.346h16.585V779.797z M860.834,776.797h44.126
	V650.075h-16.585v-16.346h-10.956v16.346h-16.585V776.797z"/>
<rect x="816.442" y="777.33" fill="#2B2B2B" width="401.939" height="3"/>
<polygon fill="#F6C60C" points="897.579,777.078 897.579,715.719 935.305,715.719 935.305,777.855 "/>
<path fill="#2B2B2B" d="M936.805,779.387l-40.726-0.84v-64.329h40.726V779.387z M899.079,775.608l34.726,0.717v-59.107h-34.726
	V775.608z"/>
<path fill="#2B2B2B" d="M931.066,743.748c0,5.926-4.804,10.729-10.729,10.729s-10.729-4.803-10.729-10.729
	s4.805-10.729,10.729-10.729S931.066,737.822,931.066,743.748"/>
<polygon fill="#8948C6" points="852.842,777.078 855.842,746.788 852.842,715.719 890.566,715.719 893.567,746.788 890.566,777.855 
	"/>
<path fill="#2B2B2B" d="M891.926,779.384l-40.736-0.84l3.146-31.758l-3.146-32.568h40.738l3.145,32.57l-0.014,0.144L891.926,779.384
	z M854.494,775.612l34.712,0.716l2.854-29.54l-2.856-29.57h-34.71l2.855,29.572l-0.013,0.145L854.494,775.612z"/>
<path fill="#FFFFFF" d="M886.328,743.748c0,5.926-4.804,10.729-10.729,10.729s-10.729-4.803-10.729-10.729
	s4.805-10.729,10.729-10.729S886.328,737.822,886.328,743.748"/>
<path fill="#2B2B2B" d="M875.6,755.978c-6.742,0-12.229-5.486-12.229-12.229c0-6.744,5.486-12.229,12.229-12.229
	c6.743,0,12.229,5.484,12.229,12.229C887.829,750.491,882.343,755.978,875.6,755.978 M875.6,734.52c-5.089,0-9.229,4.14-9.229,9.229
	c0,5.088,4.14,9.229,9.229,9.229c5.09,0,9.229-4.142,9.229-9.229C884.829,738.659,880.689,734.52,875.6,734.52"/>
<path fill="#2B2B2B" d="M1189.689,624.638c0,5.563-4.511,10.073-10.074,10.073c-5.565,0-10.074-4.51-10.074-10.073
	c0-5.564,4.509-10.074,10.074-10.074C1185.179,614.563,1189.689,619.073,1189.689,624.638"/>
<path fill="#2B2B2B" d="M1174.195,623.529c0,3.372-2.732,6.105-6.104,6.105c-3.373,0-6.107-2.733-6.107-6.105
	s2.734-6.105,6.107-6.105C1171.463,617.424,1174.195,620.157,1174.195,623.529"/>
<path fill="#2B2B2B" d="M911.513,628.198c-0.187-0.225-18.596-22.646-6.435-51.413c11.73-27.744,13.843-34.366,3.223-55.887
	l2.69-1.327c11.138,22.568,8.541,30.731-3.149,58.382c-11.43,27.037,5.794,48.106,5.97,48.315L911.513,628.198z"/>
<g>
	<rect x="946.854" y="669.641" fill="none" width="3" height="107.544"/>
	<rect x="946.854" y="669.641" fill="#FFFFFF" width="3" height="107.543"/>
</g>
<g>
	<rect x="1185.26" y="669.136" fill="none" width="15.57" height="91.127"/>
	<path fill="#FFFFFF" d="M1187.195,760.263l-1.937-2.291c26.166-22.141,3.253-87.17,3.019-87.824l2.824-1.012
		c0.061,0.167,6.033,16.979,8.568,36.398C1203.112,731.932,1198.917,750.345,1187.195,760.263"/>
</g>
<path fill="#2B2B2B" d="M877.726,159.13c0,7.087,5.745,12.832,12.832,12.832s12.832-5.745,12.832-12.832
	c0-7.087-5.745-12.832-12.832-12.832S877.726,152.043,877.726,159.13"/>
<path fill="#2B2B2B" d="M924.561,149.645c0,6.573,5.329,11.902,11.903,11.902s11.903-5.329,11.903-11.902
	c0-6.574-5.329-11.903-11.903-11.903S924.561,143.071,924.561,149.645"/>
<path fill="#2B2B2B" d="M931.582,159.904c0,4.881,3.957,8.838,8.838,8.838c4.883,0,8.84-3.957,8.84-8.838
	c0-4.881-3.957-8.838-8.84-8.838C935.539,151.066,931.582,155.023,931.582,159.904"/>
<rect x="1106.855" y="522.468" fill="#2B2B2B" width="4.938" height="63.843"/>
<rect x="1071.479" y="522.468" fill="#2B2B2B" width="4.938" height="63.843"/>
<path fill="#2B2B2B" d="M1129.151,778.83L1129.151,778.83c4.636,0,8.393-3.757,8.393-8.393v-7.568c0-4.636-3.757-8.393-8.393-8.393
	c-4.635,0-8.392,3.757-8.392,8.393v7.568C1120.76,775.073,1124.517,778.83,1129.151,778.83"/>
<path fill="#2B2B2B" d="M1054.119,778.83L1054.119,778.83c4.635,0,8.393-3.757,8.393-8.393v-7.568c0-4.636-3.758-8.393-8.393-8.393
	s-8.393,3.757-8.393,8.393v7.568C1045.727,775.073,1049.484,778.83,1054.119,778.83"/>
<polygon fill="#F6C60C" points="1005.558,765.016 986.47,777.185 1020.698,775.672 1018.094,763.426 "/>
<path fill="#2B2B2B" d="M980.941,778.931l24.094-15.361l14.239-1.806l3.259,15.329L980.941,778.931z M1006.08,766.461l-14.082,8.978
	l26.863-1.186l-1.948-9.165L1006.08,766.461z"/>
<path fill="#F6C60C" d="M965.765,756.477l10.396,15.56l6.361,5.148H971.84c0,0-17.84-11.292-17.84-11.95s1.89-7.021,1.89-7.021
	l10.835-1.736"/>
<path fill="#2B2B2B" d="M986.76,778.685h-15.354l-0.367-0.232c-18.538-11.733-18.538-12.168-18.538-13.218
	c0-0.217,0-0.876,1.952-7.447l0.268-0.906l11.767-1.886l0.145,0.902l0.38-0.254l10.27,15.37L986.76,778.685z M972.274,775.685h6.01
	l-3.245-2.626l-9.895-14.811l-8.084,1.296c-0.596,2.036-1.179,4.119-1.434,5.168C957.656,766.275,965.293,771.26,972.274,775.685"/>
<path fill="#FFFFFF" d="M883.505,174.871c0,17.911,14.521,32.431,32.432,32.431s32.43-14.52,32.43-32.431
	c0-17.911-14.519-32.431-32.43-32.431S883.505,156.96,883.505,174.871"/>
<path fill="#2B2B2B" d="M915.936,208.802c-18.709,0-33.931-15.221-33.931-33.931c0-18.709,15.222-33.931,33.931-33.931
	s33.932,15.222,33.932,33.931C949.867,193.581,934.645,208.802,915.936,208.802 M915.936,143.939
	c-17.056,0-30.931,13.875-30.931,30.931c0,17.055,13.875,30.931,30.931,30.931c17.057,0,30.932-13.876,30.932-30.931
	C946.867,157.814,932.992,143.939,915.936,143.939"/>
<path fill="#2B2B2B" d="M890.885,383.263c5.002,27.314,5.002,27.314,13.121,57.551l71.53,227.183l-22.674,90.32
	c0,0,18.676,1.961,18.43,0c-0.062-0.503,3.348-23.452,14.816-56.742l15.679,63.777l18.91-1.926
	c-0.09-0.72-11.066-43.594-22.089-99.191c9.954-30.658,20.578-65.839,29.315-100.696c0.977,3.098-17.27-120.997-21.279-149.089
	c-1.379-9.66-5.68-35.958-6.996-48.628 M943.96,410.255l13.511-2.245l38.918,160.761l-8.573,40.794
	C972.587,532.07,947.09,433.442,943.96,410.255"/>
<path fill="#8948C6" d="M843.832,302.601c0,0,10.947-33.797,14.101-41.987c2.241-5.823,8.767-9.861,12.354-11.711l102.797-16.474
	c0,0,12.47,1.317,17.733,8.338c5.266,7.02,25.012,36.553,25.012,36.553l-29.852,5.461l20.702,80.845l-122.233,19.746
	l-10.912-103.626l2.336,19.797L843.832,302.601z"/>
<path fill="#2B2B2B" d="M883.121,385.105l-8.835-83.904l-32.584,3.11l0.704-2.173c0.446-1.381,10.994-33.929,14.127-42.063
	c2.408-6.261,9.221-10.523,13.066-12.506l0.213-0.11l0.237-0.038l102.993-16.505l0.199,0.021c0.536,0.057,13.183,1.471,18.775,8.929
	c5.23,6.973,24.251,35.413,25.06,36.62l1.269,1.898l-30.516,5.583l20.71,80.878L883.121,385.105z M877.271,300.917l8.501,80.723
	l119.047-19.232l-20.694-80.812l29.186-5.34c-4.449-6.638-19.285-28.712-23.692-34.589c-4.471-5.961-14.973-7.524-16.505-7.723
	l-102.35,16.402c-3.499,1.831-9.42,5.58-11.432,10.807c-2.639,6.856-10.895,32.138-13.367,39.738l28.006-2.673l-1.928-18.315
	l2.98-0.333l2.517,21.322L877.271,300.917z"/>
<path fill="#FFFFFF" d="M1004.55,280.153c0,0,21.502,49.385,17.897,55.404c-3.235,5.402-109.786-11.498-109.786-11.498
	l80.242-18.462l-7.868-22.145L1004.55,280.153z"/>
<path fill="#2B2B2B" d="M1015.69,338.128c-7.266,0-21.437-1.118-49.544-4.807c-26.752-3.512-53.453-7.739-53.721-7.781l-7.632-1.21
	l86.131-19.817l-7.9-22.242l22.433-3.793l0.468,1.076c0.056,0.124,5.447,12.531,10.329,25.516
	c10.105,26.874,8.267,29.946,7.481,31.257C1023.272,337.1,1022.655,338.128,1015.69,338.128 M920.572,323.778
	c39.258,6.059,95.484,13.536,100.66,10.864c1.281-3.139-4.858-23.425-17.59-52.814l-16.596,2.805l7.833,22.049L920.572,323.778z"/>
<path fill="#FFFFFF" d="M853.498,300.941c0,0,1.877,58.404,7.155,62.087c5.794,4.042,98.771-49.729,98.771-49.729l-81.45,11.104
	l-3.134-26.209L853.498,300.941z"/>
<path fill="#2B2B2B" d="M861.539,364.787c-0.987,0-1.399-0.287-1.743-0.527c-1.162-0.812-3.884-2.71-6.195-33.544
	c-1.118-14.921-1.596-29.58-1.602-29.726l-0.044-1.362l24.193-3.114l3.133,26.198l87.487-11.927l-6.594,3.814
	c-0.233,0.134-23.537,13.602-47.251,26.401C875.153,361.388,864.937,364.787,861.539,364.787 M861.451,361.745
	c5.146,1.05,49.166-22.187,90.587-45.924l-75.374,10.276l-3.135-26.221l-18.487,2.379
	C856.217,336.964,859.188,359.578,861.451,361.745"/>
<line fill="#8948C6" x1="985.035" y1="283.452" x2="977.765" y2="262.486"/>
<rect x="970.305" y="271.47" transform="matrix(0.3276 0.9448 -0.9448 0.3276 917.7584 -743.6956)" fill="#2B2B2B" width="22.191" height="3"/>
<path fill="#F6C60C" d="M1061.454,771.651h60.362c18.497,0,33.492-14.995,33.492-33.492V608.615
	c0-18.497-14.995-33.492-33.492-33.492h-60.362c-18.497,0-33.491,14.995-33.491,33.492v129.544
	C1027.963,756.656,1042.957,771.651,1061.454,771.651"/>
<path fill="#2B2B2B" d="M1121.816,773.15h-60.362c-19.295,0-34.991-15.696-34.991-34.991V608.614
	c0-19.295,15.696-34.991,34.991-34.991h60.362c19.295,0,34.992,15.696,34.992,34.991v129.545
	C1156.809,757.454,1141.111,773.15,1121.816,773.15 M1061.454,576.623c-17.641,0-31.991,14.352-31.991,31.991v129.545
	c0,17.641,14.351,31.991,31.991,31.991h60.362c17.641,0,31.992-14.351,31.992-31.991V608.614c0-17.64-14.352-31.991-31.992-31.991
	H1061.454z"/>
<path fill="#2B2B2B" d="M1068.034,528.392h47.201c4.505,0,8.157-3.651,8.157-8.156s-3.652-8.156-8.157-8.156h-47.201
	c-4.505,0-8.155,3.651-8.155,8.156S1063.529,528.392,1068.034,528.392"/>
<path fill="#2B2B2B" d="M903.39,142.094c0,8.27,6.704,14.974,14.975,14.974c8.269,0,14.973-6.704,14.973-14.974
	s-6.704-14.974-14.973-14.974C910.094,127.121,903.39,133.824,903.39,142.094"/>
<path fill="#2B2B2B" d="M885.815,142.439c0,6.413,5.198,11.612,11.611,11.612s11.613-5.199,11.613-11.612
	c0-6.413-5.2-11.612-11.613-11.612S885.815,136.027,885.815,142.439"/>
<path fill="#2B2B2B" d="M888.887,127.121c0,7.441,6.032,13.474,13.475,13.474c7.44,0,13.473-6.033,13.473-13.474
	c0-7.441-6.032-13.474-13.473-13.474C894.919,113.647,888.887,119.68,888.887,127.121"/>
<rect x="1056.212" y="633.41" fill="#2B2B2B" width="70.847" height="3"/>
<rect x="1056.212" y="671.887" fill="#2B2B2B" width="70.847" height="3"/>
<rect x="1056.212" y="710.363" fill="#2B2B2B" width="70.847" height="3"/>
<g>
	<rect x="878.321" y="278.044" fill="none" width="7.589" height="42.828"/>
	<path fill="#FFFFFF" d="M882.929,320.872c-0.472-4.217-4.607-41.25-4.607-42.818h3h-1.5l1.5-0.01
		c0.03,1.345,2.761,26.15,4.588,42.495L882.929,320.872z"/>
</g>
<g>
	<rect x="887.393" y="357.275" fill="none" width="4.659" height="18.908"/>
	
		<rect x="880.365" y="365.229" transform="matrix(0.0893 0.996 -0.996 0.0893 1175.5525 -552.1818)" fill="#FFFFFF" width="18.715" height="3"/>
</g>
<g>
	<rect x="895.623" y="388.21" fill="none" width="111.457" height="371.329"/>
	
		<rect x="758.319" y="572.375" transform="matrix(0.2813 0.9596 -0.9596 0.2813 1234.495 -500.4795)" fill="#FFFFFF" width="386.069" height="3"/>
</g>
<g>
	<rect x="963.174" y="404.138" fill="none" width="41.216" height="210.757"/>
	<polygon fill="#FFFFFF" points="994.06,614.896 991.134,614.231 1001.31,569.339 963.174,404.815 966.096,404.137 
		1004.388,569.332 	"/>
</g>
<g>
	<rect x="1033.97" y="607.661" fill="none" width="3" height="129.087"/>
	<rect x="1033.97" y="607.661" fill="#FFFFFF" width="3" height="129.087"/>
</g>
</svg>
