<?xml version="1.0" encoding="utf-8"?>
<!-- Generator: Adobe Illustrator 14.0.0, SVG Export Plug-In  -->
<!DOCTYPE svg PUBLIC "-//W3C//DTD SVG 1.1//EN" "http://www.w3.org/Graphics/SVG/1.1/DTD/svg11.dtd" [
	<!ENTITY ns_flows "http://ns.adobe.com/Flows/1.0/">
]>
<svg version="1.1"
	 xmlns="http://www.w3.org/2000/svg" xmlns:xlink="http://www.w3.org/1999/xlink" xmlns:a="http://ns.adobe.com/AdobeSVGViewerExtensions/3.0/"
	 x="0px" y="0px" width="475px" height="473px" viewBox="440.805 180.754 475 473" enable-background="new 440.805 180.754 475 473"
	 xml:space="preserve">
<defs>
</defs>
<rect fill="none" width="1356.11" height="857.008"/>
<rect fill="none" width="1356.114" height="857.008"/>
<path fill="#F6C60C" d="M906.479,417.097c0,125.431-101.682,227.111-227.111,227.111c-125.43,0-227.111-101.68-227.111-227.111
	c0-125.43,101.681-227.111,227.111-227.111C804.797,189.986,906.479,291.667,906.479,417.097"/>
<path fill="#2B2B2B" d="M679.367,645.709c-61.064,0-118.474-23.78-161.653-66.959c-43.179-43.179-66.958-100.588-66.958-161.653
	c0-61.064,23.779-118.473,66.958-161.653c43.179-43.178,100.589-66.958,161.653-66.958c61.063,0,118.474,23.78,161.653,66.958
	c43.179,43.18,66.959,100.589,66.959,161.653c0,61.065-23.78,118.474-66.959,161.653
	C797.841,621.929,740.431,645.709,679.367,645.709 M679.367,191.486c-60.263,0-116.919,23.468-159.531,66.08
	c-42.613,42.612-66.08,99.269-66.08,159.531c0,60.263,23.467,116.918,66.08,159.532c42.612,42.612,99.268,66.08,159.531,66.08
	c60.263,0,116.919-23.468,159.532-66.08c42.611-42.613,66.08-99.269,66.08-159.532c0-60.262-23.469-116.919-66.08-159.531
	C796.286,214.954,739.63,191.486,679.367,191.486"/>
<path fill="#8948C6" d="M742.303,198.822l-14.657,13.392l2.02,30.816l-16.166,9.093l-16.671-7.072l-22.733,2.02l-23.743,26.27
	c0,0-2.021,9.093,0,10.103c2.02,1.01,12.629,7.073,12.629,7.073l16.386-13.135c0,0,4.832,13.135,2.811,13.135
	c-2.021,0-16.166,6.567-16.166,6.567h-18.691l-14.651,9.093c0,0,2.526-29.3,0-29.3c-2.526,0-15.155,3.536-15.155,3.536v12.63
	l2.02,13.134l-2.02,7.073l10.103-3.536l-8.083,15.155l-2.02,6.567c0,0-25.764-5.051-25.764-3.031c0,2.021-5.557,23.744-5.557,23.744
	l12.629,6.062l16.671-6.062l8.083-12.63l20.712-6.567l9.599,4.041c0,0,15.661,9.094,15.155,10.609
	c-0.505,1.515,1.01,10.609,1.01,10.609l9.282-14.65l-12.312-12.125c0,0,10.48-3.536,12.312,2.526
	c1.833,6.062,5.369,17.176,5.874,19.702c0.505,2.527,7.577,4.547,7.577,4.547l4.547-11.619l3.536-4.547l7.074,16.166h23.743
	c0,0,2.524,14.145,3.03,15.66c0.505,1.516-6.062,6.063-2.525,10.104c3.535,4.042-21.219-6.568-21.219-6.568l-15.154,2.527
	l-26.27,2.02l-19.703-14.144l-5.557-8.589h-51.528l-12.629,15.661l-11.62,10.012c0,0-23.238,29.892-23.238,33.431v23.746
	l11.114,33.342l13.64,12.629c0,0,28.29-6.061,30.311-6.061c2.021,0,25.259-0.506,26.774,1.514c1.516,2.022,12.63,10.61,12.63,10.61
	s1.018,34.352,4.045,36.878s18.688,23.238,17.678,25.764c-1.011,2.526,3.031,30.312,3.031,30.312l10.103,17.681l9.599,6.062
	l32.836-2.525l18.691-21.723l13.641-21.219c0,0,12.124-10.607,12.124-12.63v-34.351l18.187-22.734l18.188-30.311
	c0,0,2.02-12.124,0-13.134c-2.021-1.012-30.312-9.6-31.827-11.62c-1.515-2.021-23.744-23.458-23.744-23.458l-9.093-24.534
	c0,0,10.104,4.042,10.609,5.557c0.506,1.516,16.166,26.775,18.186,27.785c2.021,1.01,19.198,12.629,19.198,12.629
	s18.186-7.071,21.722-11.619c3.536-4.546,11.619-22.103,11.619-22.103l-4.041-10.228l-23.744-8.083l-9.093-14.145l32.837,8.083
	h21.723c1.517,0,11.619,4.042,11.619,4.042l27.279,46.476l8.084-2.021v-44.455l7.072-14.146l11.618-3.536l2.891-0.474
	C900.78,366.325,884.268,242.01,742.303,198.822"/>
<path fill="#2B2B2B" d="M683.817,612.334l-10.334-6.525l-10.43-18.253l-0.041-0.281c-1.204-8.28-3.861-27.555-3.006-30.876
	c-0.351-3.129-14.153-21.738-17.179-24.264c-3.13-2.611-4.224-26.385-4.562-37.277c-2.399-1.865-10.536-8.245-12.245-10.326
	c-0.714-0.354-4.51-1.309-24.484-1.062c-0.582,0.007-0.995,0.012-1.198,0.012c-1.556,0.043-19.226,3.72-29.996,6.028l-0.762,0.163
	l-14.494-13.42l-11.312-33.938v-23.989c0-3.658,16.472-25.242,23.554-34.352l0.205-0.216l11.516-9.923l12.994-16.113h2.292
	l-9.9-4.753l0.305-1.191c2.646-10.339,5.475-22.046,5.51-23.378c0-0.515,0.237-1.008,0.651-1.349
	c0.563-0.462,2.255-1.854,25.576,2.656l1.734-5.543l6.275-11.764l-9.209,3.223l2.725-9.541l-1.987-13.038v-13.768l1.095-0.307
	c1.313-0.367,12.905-3.591,15.56-3.591c0.524,0,1.019,0.224,1.392,0.631c1.962,2.139,1.176,16.912,0.348,27.323l12.482-7.747h18.789
	c3.985-1.846,12.218-5.571,15.494-6.401c-0.105-1.594-1.223-5.549-2.516-9.312l-15.537,12.454l-0.886-0.506
	c-0.106-0.061-10.596-6.053-12.556-7.033c-2.537-1.268-1.832-7.101-0.794-11.771l0.086-0.386l24.403-27l23.692-2.106l16.338,6.931
	l14.7-8.269l-2.006-30.593l15.822-14.454l0.816,0.249c32.571,9.909,61.228,24.938,85.17,44.67
	c19.165,15.794,35.366,34.615,48.154,55.941c21.783,36.323,26.161,67.816,26.203,68.13l0.192,1.442l-4.229,0.693l-10.906,3.319
	l-6.626,13.253v45.272l-10.308,2.578l-27.587-47.001c-4.492-1.784-9.694-3.677-10.614-3.746l-21.877,0.001l-0.176-0.043
	l-29.182-7.184l6.773,10.538l23.906,8.138l4.531,11.469l-0.269,0.582c-0.333,0.723-8.196,17.768-11.798,22.397
	c-3.684,4.737-20.461,11.358-22.362,12.097l-0.732,0.284l-0.652-0.44c-6.871-4.648-17.609-11.822-19.027-12.53
	c-0.558-0.279-1.718-0.859-10.255-14.238c-3.139-4.921-7.888-12.598-8.613-14.236c-0.609-0.646-3.496-2.101-6.646-3.487
	l7.771,20.969c3.166,3.055,21.758,21.016,23.603,23.332c1.636,1.337,15.896,6.03,22.769,8.294c5.146,1.693,7.865,2.595,8.582,2.953
	c3.013,1.505,1.354,11.452,0.81,14.723l-0.047,0.28l-18.449,30.722l-17.857,22.322v33.824c0,2.657-9.2,10.752-12.476,13.619
	l-13.652,21.207l-19.096,22.193L683.817,612.334z M675.717,603.672l8.862,5.596l31.725-2.44l18.218-21.173l13.699-21.308l0.16-0.141
	c5.148-4.506,10.98-10.175,11.61-11.642v-34.737l18.452-23.064l17.988-29.98c0.832-5.121,1.084-10.15,0.576-11.347
	c-0.968-0.393-4.534-1.567-7.992-2.705c-17.952-5.91-23.149-7.904-24.177-9.276c-1.06-1.41-14.686-14.693-23.585-23.276
	l-0.246-0.238l-10.388-28.025l3.14,1.256c10.749,4.301,11.274,5.881,11.473,6.477c0.849,2.052,15.328,25.163,17.51,26.956
	c2.143,1.126,15.217,9.936,18.638,12.246c5.427-2.159,17.784-7.553,20.352-10.855c3.036-3.903,9.746-18.168,11.172-21.23
	l-3.549-8.984l-23.583-8.028L774.359,370l36.317,8.94h21.541c1.629,0,9.057,2.901,12.176,4.149l0.477,0.191l26.972,45.951
	l5.856-1.465v-43.639l7.52-15.038l12.43-3.769l1.415-0.232c-1.123-6.505-6.761-34.224-25.641-65.663
	c-12.616-21.01-28.595-39.551-47.489-55.109c-23.421-19.286-51.428-34.023-83.25-43.808l-13.494,12.328l2.035,31.039l-17.631,9.918
	l-17.004-7.214l-21.775,1.935l-23.08,25.536c-0.756,3.573-1.014,7.234-0.571,8.125c1.944,0.996,9.131,5.083,11.676,6.535
	l17.217-13.801l0.719,1.956c4.473,12.16,3.328,13.801,2.952,14.34c-0.36,0.517-0.924,0.813-1.548,0.813
	c-1.251,0.094-8.888,3.342-15.535,6.428l-0.3,0.139h-18.595l-16.83,10.446l0.257-2.981c0.999-11.584,1.516-24.492,0.775-27.607
	c-2.421,0.337-8.604,1.92-12.935,3.111v11.375l2.053,13.346l-1.316,4.603l10.998-3.849l-9.824,18.42l-2.375,7.72l-1.325-0.26
	c-9.95-1.951-21.104-3.668-24.096-3.486c-0.668,4.044-3.95,17.075-5.179,21.906l10.952,5.258l15.601-5.674l8.102-12.658
	l21.756-6.899l10.279,4.341c16.716,9.707,16.222,11.189,15.825,12.381c-0.139,0.611,0.095,3.116,0.473,5.933l6.48-10.23
	l-13.187-12.985l2.31-0.78c0.71-0.239,7.055-2.279,11.181-0.153c1.523,0.786,2.549,2.019,3.047,3.666
	c0.502,1.664,1.134,3.708,1.795,5.85c1.835,5.942,3.732,12.085,4.114,13.992c0.144,0.721,2.523,2.05,5.221,2.987l4.114-10.515
	l5.217-6.708l7.692,17.577h24.017l0.221,1.236c0.97,5.427,2.635,14.42,2.979,15.45c0.413,1.24-0.398,2.347-1.425,3.75
	c-2.009,2.743-2.73,4.316-1.396,5.84c1.133,1.294,0.649,2.268,0.39,2.626c-0.739,1.016-1.745,2.4-22.923-6.654l-14.854,2.47
	l-26.814,2.062l-20.377-14.629l-5.268-8.141h-49.995L581.11,376.02l-11.505,9.914c-10.962,14.106-22.479,30.071-22.834,32.452
	l0.003,23.441l10.915,32.746l12.786,11.839c6.107-1.305,27.883-5.931,29.863-5.931c0.197,0,0.598-0.005,1.162-0.012
	c24.988-0.3,26.087,1.159,26.813,2.126c1.015,1.354,8.112,7.051,12.347,10.323l0.561,0.434l0.021,0.708
	c0.477,16.09,1.936,33.885,3.551,35.812c1.782,1.484,6.785,7.848,10.566,13.118c8.49,11.836,7.845,13.448,7.499,14.314
	c-0.468,1.744,1.19,16.203,3.082,29.257L675.717,603.672z M762.672,424.566c0.007,0.003,0.013,0.006,0.02,0.01
	C762.685,424.572,762.678,424.569,762.672,424.566 M742.388,398.596c0.002,0.007,0.003,0.013,0.006,0.019
	C742.391,398.608,742.39,398.602,742.388,398.596 M711.159,375.856l0.404,0.173c6.744,2.89,14.548,5.905,18.336,6.967
	c-1.002-2.981,1.14-5.907,2.396-7.622c0.322-0.441,0.748-1.022,0.91-1.337c-0.559-2.119-2.157-10.906-2.773-14.326h-23.47
	l-6.455-14.755l-1.856,2.385l-4.965,12.688l-1.312-0.375c-1.864-0.534-8.001-2.519-8.636-5.696
	c-0.271-1.361-1.562-5.644-2.893-9.978l-11.626,18.351l-0.646-3.874c-0.528-3.164-1.31-8.443-1.079-10.679
	c-1.334-1.484-8.23-5.923-14.278-9.439l-9.001-3.79l-19.669,6.236l-8.064,12.6l-11.923,4.336h40.545l5.847,9.036l19.027,13.66
	l25.657-1.973L711.159,375.856z M669.974,332.237l10.415,10.255c-0.233-0.756-0.464-1.505-0.688-2.229
	c-0.664-2.149-1.297-4.199-1.801-5.867c-0.26-0.862-0.752-1.455-1.546-1.865C674.667,331.661,672.027,331.854,669.974,332.237"/>
<path fill="#8948C6" d="M795.844,540.582c0,0-7.578,17.682-9.094,18.187c-1.515,0.504-14.65-4.041-17.176,7.578
	c-2.526,11.619-6.567,19.196-3.031,21.216c3.536,2.022,7.072,2.527,7.072,2.527l17.682-24.754l7.578-15.661L795.844,540.582z"/>
<path fill="#2B2B2B" d="M774.307,591.704l-0.902-0.129c-0.157-0.022-3.864-0.57-7.605-2.71c-3.465-1.979-2.157-6.498-0.181-13.341
	c0.805-2.786,1.718-5.943,2.491-9.497c2.326-10.7,12.834-9.373,16.789-8.869c0.422,0.053,0.916,0.114,1.24,0.141
	c1.304-1.707,5.15-9.897,8.326-17.309l1.556-3.625l4.471,13.413l-7.973,16.43L774.307,591.704z M780.341,559.831
	c-4.816,0-8.159,1.588-9.301,6.834c-0.794,3.65-1.721,6.86-2.54,9.692c-1.41,4.88-2.628,9.095-1.213,9.903
	c2.223,1.27,4.474,1.901,5.668,2.172l17.047-23.866l7.257-14.997l-1.599-4.795c-6.482,14.767-7.786,15.2-8.436,15.416
	c-0.616,0.207-1.358,0.114-2.702-0.057C783.031,559.944,781.633,559.831,780.341,559.831"/>
<path fill="#8948C6" d="M631.66,198.822l10.609,2.278c0,0,11.114,12.629,8.588,16.165c-2.526,3.536-16.166,16.166-16.166,16.166
	s-21.723,13.135-24.249,12.63c-2.526-0.506-31.321,9.598-34.352,11.114c-3.031,1.515-10.609,4.546-10.609,4.546l4.547-15.66
	c0,0,19.197-7.578,23.238-10.104s16.166-15.156,18.187-18.186c2.02-3.032,6.567-9.094,0-7.073
	c-6.567,2.021-22.228,8.588-22.228,8.588s-13.135,17.682-16.166,17.682c-3.031,0-23.744,20.712-27.785,24.753
	c-4.041,4.042-15.66,20.207-15.66,20.207s-18.187,1.011-20.713,0c-2.526-1.01-12.424,0.47-13.358,1.769
	C494.61,284.997,544.769,209.174,631.66,198.822"/>
<path fill="#2B2B2B" d="M496.079,285.521l-2.186-0.841l0.15-1.159c0.01-0.08,0.125-0.302,0.341-0.655l-0.059-0.044
	c0.07-0.097,0.159-0.192,0.266-0.285c2.753-4.288,15.722-21.456,35.753-38.608c21.38-18.307,56.282-41.252,101.139-46.596
	l0.248-0.029l11.337,2.434l0.327,0.372c3.578,4.066,11.587,13.962,8.682,18.028c-2.585,3.619-15.805,15.875-16.367,16.395
	l-0.243,0.183c-10.138,6.129-22.771,13.331-25.319,12.816c-0.016,0-0.034-0.001-0.052-0.001c-2.935,0-30.049,9.343-33.335,10.986
	c-3.052,1.526-10.411,4.473-10.723,4.598l-2.855,1.142l5.609-19.32l0.685-0.27c0.191-0.076,19.115-7.556,22.994-9.981
	c3.73-2.332,15.735-14.749,17.734-17.747l0.512-0.759c0.694-1.023,2.188-3.223,2.568-4.368c-0.289,0.033-0.733,0.118-1.391,0.32
	c-5.859,1.804-19.286,7.369-21.711,8.38c-6.104,8.194-13.886,17.772-17.034,17.954c-0.654,0.187-4.778,2.278-26.814,24.317
	c-3.909,3.909-15.388,19.861-15.504,20.022l-0.418,0.582l-0.716,0.04c-4.344,0.242-18.723,0.948-21.353-0.105
	c-1.872-0.75-10.193,0.395-11.656,1.353L496.079,285.521z M506.044,280.117c1.462,0,2.693,0.131,3.414,0.42
	c1.373,0.538,10.784,0.39,19.358-0.067c2.155-2.982,11.709-16.12,15.398-19.808c24.626-24.629,27.625-25.181,28.769-25.193
	c1.893-0.592,9.254-9.291,15.038-17.077l0.245-0.33l0.379-0.159c0.642-0.269,15.804-6.618,22.366-8.638
	c0.999-0.307,3.652-1.124,4.888,0.549c1.337,1.81-0.276,4.479-2.7,8.051l-0.498,0.739c-2.026,3.038-14.268,15.893-18.64,18.626
	c-3.718,2.324-19.276,8.556-22.798,9.955l-3.478,11.98c2.454-1.011,5.866-2.447,7.634-3.332c1.553-0.776,31.247-11.708,35.21-11.259
	c1.963-0.156,13.255-6.366,23.155-12.346c4.715-4.37,13.94-13.157,15.852-15.834c0.849-1.188-2.458-7.351-8.169-13.932l-9.877-2.12
	c-73.445,8.864-120.671,65.315-132.089,80.435C501.635,280.36,504.053,280.117,506.044,280.117 M610.735,244.59
	c0.001,0,0.001,0,0.002,0.001C610.736,244.59,610.736,244.59,610.735,244.59 M573.061,238.468h-0.002H573.061z"/>
<path fill="#8948C6" d="M452.361,410.246c0,0,6.021,16.67,6.527,22.732c0.505,6.063,2.526,23.239,2.526,23.239
	s15.155,20.207,17.681,22.733c2.526,2.524,13.135,24.754,13.135,27.784c0,3.031,0.505,20.207,0,21.724
	c-0.505,1.516,0.224,12.124,0.224,12.124S447.349,475.416,452.361,410.246"/>
<path fill="#2B2B2B" d="M494.326,545.92l-3.104-4.484c-0.455-0.657-45.351-66.354-40.356-131.305l0.535-6.959l2.371,6.564
	c0.249,0.689,6.096,16.928,6.611,23.118c0.455,5.455,2.167,20.164,2.474,22.787c5.292,7.05,15.391,20.34,17.3,22.249
	c2.567,2.566,13.573,25.189,13.573,28.845c0,0.746,0.032,2.357,0.07,4.38c0.241,12.594,0.207,16.757-0.147,17.818
	c-0.24,0.918-0.034,6.714,0.299,11.547L494.326,545.92z M453.495,418.209c-0.833,51.289,27.63,101.481,37.146,116.793
	c-0.122-3.026-0.149-6.073,0.166-7.02c0.292-1.271,0.09-11.767-0.006-16.812c-0.039-2.049-0.071-3.682-0.071-4.438
	c-0.066-2.686-10.388-24.418-12.694-26.724c-2.573-2.572-17.2-22.066-17.822-22.895l-0.242-0.322l-0.047-0.402
	c-0.02-0.172-2.03-17.271-2.531-23.288C457.125,429.878,455.179,423.374,453.495,418.209"/>
<g>
	<rect x="550.678" y="368.113" fill="none" width="115.914" height="176.872"/>
	<path fill="#FFFFFF" d="M664.312,544.985l-16.232-18.979l1.613-32.535c-3.909-2.924-11.6-8.767-12.518-10.143
		c-0.504-0.639-3.908-2.68-5.941-3.9c-1.955-1.172-3.643-2.185-4.465-2.842c-1.036-0.75-7.778-1.808-13.496-2.368l-40.328,4.713
		l-7.859-6.112l-10.905-15.861l-3.503-24.913l0.098-0.32c1.407-4.57,3.559-12.539,3.349-14.465
		c-0.346-3.175,7.802-11.666,12.774-16.52l13.538-19.907l14.593-12.719l1.971,2.262l-14.301,12.464l-13.598,19.942
		c-5.675,5.533-11.848,12.565-11.992,14.216c0.321,2.907-2.558,12.631-3.368,15.29l3.311,23.552l10.242,14.897l6.522,5.071
		l39.426-4.606l0.159,0.015c3.917,0.378,13.243,1.431,15.239,3.026c0.666,0.532,2.43,1.59,4.136,2.613
		c4.179,2.507,6.221,3.799,6.894,4.809c0.662,0.861,6.857,5.706,12.456,9.882l0.642,0.478l-1.633,32.939l15.456,18.073
		L664.312,544.985z"/>
</g>
<g>
	<rect x="655.817" y="247.831" fill="none" width="78.393" height="32.67"/>
	<polygon fill="#FFFFFF" points="658.31,280.501 655.817,278.832 672.953,253.242 693.129,249.797 713.371,258.439 732.771,247.831 
		734.21,250.462 713.533,261.771 692.764,252.903 674.728,255.982 	"/>
</g>
<g>
	<rect x="464.294" y="308.495" fill="none" width="29.516" height="137.102"/>
	<path fill="#FFFFFF" d="M465.218,445.597c-6.733-67.281,25.554-136.411,25.881-137.102l2.712,1.284
		c-0.324,0.684-32.257,69.084-25.608,135.52L465.218,445.597z"/>
</g>
</svg>
