<?xml version="1.0" encoding="utf-8"?>
<!-- Generator: Adobe Illustrator 14.0.0, SVG Export Plug-In  -->
<!DOCTYPE svg PUBLIC "-//W3C//DTD SVG 1.1//EN" "http://www.w3.org/Graphics/SVG/1.1/DTD/svg11.dtd" [
	<!ENTITY ns_flows "http://ns.adobe.com/Flows/1.0/">
]>
<svg version="1.1"
	 xmlns="http://www.w3.org/2000/svg" xmlns:xlink="http://www.w3.org/1999/xlink" xmlns:a="http://ns.adobe.com/AdobeSVGViewerExtensions/3.0/"
	 x="0px" y="0px" width="426px" height="666px" viewBox="170.555 133.004 426 666" enable-background="new 170.555 133.004 426 666"
	 xml:space="preserve">
<defs>
</defs>
<rect fill="none" width="1356.11" height="857.008"/>
<rect x="35.995" y="22" fill="none" width="1356.114" height="857.008"/>
<path fill="#8948C6" d="M469.785,585.6c0,7.295,5.914,13.209,13.209,13.209s13.209-5.914,13.209-13.209
	c0-7.296-5.914-13.209-13.209-13.209S469.785,578.304,469.785,585.6"/>
<path fill="#2B2B2B" d="M482.994,600.309c-8.109,0-14.709-6.6-14.709-14.709c0-8.11,6.6-14.709,14.709-14.709
	c8.11,0,14.709,6.599,14.709,14.709C497.703,593.709,491.104,600.309,482.994,600.309 M482.994,573.891
	c-6.457,0-11.709,5.253-11.709,11.709s5.252,11.709,11.709,11.709s11.709-5.253,11.709-11.709S489.451,573.891,482.994,573.891"/>
<path fill="#F6C60C" d="M498.518,633.911c-0.682,5.802,3.471,11.057,9.272,11.736c5.802,0.682,11.058-3.47,11.737-9.271
	c0.681-5.803-3.471-11.059-9.273-11.737C504.453,623.958,499.198,628.108,498.518,633.911"/>
<path fill="#2B2B2B" d="M509.047,647.222c-0.476,0-0.952-0.027-1.432-0.084c-3.203-0.376-6.07-1.977-8.07-4.509
	c-2-2.531-2.894-5.688-2.518-8.893s1.977-6.069,4.508-8.069s5.69-2.891,8.895-2.519c3.203,0.376,6.068,1.977,8.068,4.508
	s2.895,5.689,2.519,8.894s-1.978,6.07-4.509,8.07C514.355,646.321,511.748,647.222,509.047,647.222 M509.016,626.066
	c-4.537,0-8.467,3.405-9.01,8.02c-0.582,4.97,2.988,9.489,7.959,10.072c4.969,0.583,9.488-2.987,10.072-7.957
	c0.283-2.408-0.39-4.782-1.893-6.687c-1.503-1.901-3.657-3.104-6.064-3.387C509.723,626.087,509.367,626.066,509.016,626.066"/>
<path fill="#8948C6" d="M475.117,795.078c0,0,1.242-84.021,66.252-144.835c-1.047-1.05-36.569,57.969-42.926,112.867
	c-0.064,0.374,14.615-39.632,47.12-65.764c-1.049,2.177-22.567,41.727-25.963,74.378c-0.251,0.149,10.235-17.332,33.303-35.33
	c-1.049,0.877-15.728,32.605-14.68,58.684C537.176,796.83,475.117,795.078,475.117,795.078"/>
<path fill="#2B2B2B" d="M521.969,797.366c-4.146,0-9.297-0.041-15.713-0.131c-15.477-0.217-31.027-0.654-31.182-0.659l-1.479-0.041
	l0.021-1.479c0.004-0.212,0.412-21.539,8.81-50.015c7.717-26.169,23.952-63.928,57.492-95.493c0.368-0.402,0.668-0.651,0.889-0.729
	l0.89-0.31l0.733,0.673l1.098,1.097l-1.133,1.06c-0.258,0.239-0.515,0.481-0.77,0.723c-4.836,6.283-31.585,53.115-40.076,100.347
	c6.963-14.416,20.891-38.395,43.075-56.23l5.169-4.156l-2.878,5.975c-0.077,0.162-0.261,0.52-0.539,1.056
	c-7.612,14.693-20.31,41.851-24.415,66.456c1.16-1.572,2.664-3.522,4.521-5.756c5.018-6.033,13.515-15.189,25.498-24.539
	l1.886,2.333c0.103-0.086,0.153-0.155,0.155-0.158c-1.03,1.394-15.332,31.919-14.299,57.63l0.019,0.447l-0.229,0.384
	C539,796.701,538.6,797.366,521.969,797.366 M476.676,793.62c21.336,0.585,53.939,1.129,60.012,0.341
	c-0.447-19.532,7.262-41.446,11.924-52.148c-17.914,15.131-26.555,28.719-27.549,30.35l-0.049,0.469l-1.858,1.103l-0.798-1.162
	c-0.266-0.391-0.372-0.702-0.229-1.188c2.515-23.732,14.261-50.96,22.696-68.01c-24.409,22.186-37.303,51.124-40.848,59.954
	c-0.424,1.061-1.08,1.473-1.941,1.229l-1.299-0.367l0.23-1.333c3.305-28.573,14.402-57.554,23.129-76.821
	c3.957-8.735,8.517-17.752,12.387-24.723C482.592,715.318,477.219,782.825,476.676,793.62"/>
<path fill="#F6C60C" d="M488.251,796.58c0,0-5.392-204.007-250.855-314.104c-0.104,3.146-28.796,134.015,74.676,313.415
	C315.863,794.006,488.251,796.58,488.251,796.58"/>
<path fill="#2B2B2B" d="M489.792,798.103l-1.563-0.022c-67.793-1.014-170.23-2.058-175.576-0.804l-1.176,0.584l-0.703-1.221
	c-91.212-158.141-80.534-279.449-75.087-312.861c0.119-0.729,0.198-1.189,0.212-1.377l0.17-2.118l1.942,0.824
	c56.154,25.187,104.33,57.428,143.191,95.828c31.105,30.736,56.344,65.461,75.016,103.213
	c31.809,64.316,33.52,115.878,33.533,116.392L489.792,798.103z M312.74,797.232l-0.019,0.011
	C312.729,797.238,312.734,797.235,312.74,797.232 M348.331,793.707c42.489,0,109.966,0.929,138.341,1.35
	c-0.557-9.05-4.738-56.205-33.214-113.718c-18.532-37.43-43.578-71.863-74.442-102.345c-38.174-37.702-85.418-69.437-140.433-94.339
	c-5.413,33.655-15.544,153.378,74.3,309.638C317.287,793.867,330.646,793.707,348.331,793.707"/>
<line fill="#F6C60C" x1="237.396" y1="482.477" x2="398.795" y2="796.58"/>
<rect x="141.524" y="638.028" transform="matrix(0.457 0.8894 -0.8894 0.457 741.5435 64.3115)" fill="#2B2B2B" width="353.145" height="3"/>
<line fill="#F6C60C" x1="357.774" y1="557.456" x2="318.096" y2="639.527"/>
<rect x="336.435" y="552.913" transform="matrix(0.9001 0.4357 -0.4357 0.9001 294.5427 -87.4454)" fill="#2B2B2B" width="3.001" height="91.159"/>
<line fill="#F6C60C" x1="431.035" y1="639.528" x2="381.709" y2="757.481"/>
<rect x="404.872" y="634.579" transform="matrix(0.9225 0.386 -0.386 0.9225 301.1588 -102.7303)" fill="#2B2B2B" width="3" height="127.851"/>
<line fill="#F6C60C" x1="350.535" y1="702.659" x2="259.929" y2="681.459"/>
<rect x="258.705" y="690.559" transform="matrix(0.9737 0.2278 -0.2278 0.9737 165.6974 -51.3401)" fill="#2B2B2B" width="93.054" height="3.001"/>
<path fill="#8948C6" d="M376.083,795.078c0,0-21.354-150.374-195.727-180.907c0.328,1.922-0.812,84.905,84.285,180.907
	C266.707,793.463,376.083,795.078,376.083,795.078"/>
<path fill="#2B2B2B" d="M264.454,797.128l-0.936-1.055c-75.137-84.767-83.757-159.875-84.609-180.876
	c-0.017-0.422-0.026-0.698-0.039-0.821l-0.204-1.975l1.948,0.292c39.99,7.002,75.23,20.929,104.742,41.393
	c23.626,16.381,43.647,36.96,59.507,61.166c27.007,41.213,32.65,79.236,32.705,79.615l0.247,1.736l-1.755-0.025
	c-42.045-0.622-105.7-1.168-110.693-0.164L264.454,797.128z M294.318,792.858c7.121,0,15.925,0.034,26.83,0.113
	c23.267,0.171,46.607,0.488,53.154,0.58c-1.438-7.84-8.6-41.07-32.022-76.768c-15.653-23.858-35.404-44.14-58.706-60.283
	c-28.682-19.872-62.865-33.5-101.627-40.523c1.05,21.87,10.329,94.884,83.257,177.474
	C267.604,793.132,274.277,792.858,294.318,792.858"/>
<line fill="#F6C60C" x1="180.356" y1="614.171" x2="325.855" y2="795.294"/>
<rect x="136.942" y="703.232" transform="matrix(0.6263 0.7796 -0.7796 0.6263 644.0057 66.0565)" fill="#2B2B2B" width="232.327" height="3"/>
<line fill="#F6C60C" x1="262.729" y1="644.704" x2="248.854" y2="699.441"/>
<rect x="254.292" y="643.838" transform="matrix(0.9694 0.2454 -0.2454 0.9694 172.7815 -42.2244)" fill="#2B2B2B" width="3" height="56.47"/>
<line fill="#F6C60C" x1="317.391" y1="685.399" x2="302.124" y2="763.111"/>
<rect x="308.258" y="684.657" transform="matrix(0.9812 0.1928 -0.1928 0.9812 145.4447 -46.1321)" fill="#2B2B2B" width="2.999" height="79.197"/>
<line fill="#F6C60C" x1="276.39" y1="733.719" x2="218.77" y2="732.119"/>
<rect x="218.759" y="731.419" transform="matrix(0.9996 0.0278 -0.0278 0.9996 20.4343 -6.5883)" fill="#2B2B2B" width="57.642" height="2.999"/>
<rect x="228.904" y="795.33" fill="#2B2B2B" width="352.365" height="3"/>
<path fill="#2B2B2B" d="M448.76,796.454c-0.117-1.162-11.273-117.161,24.98-200.672l2.752,1.194
	c-35.939,82.785-24.863,198.022-24.747,199.176L448.76,796.454z"/>
<path fill="#2B2B2B" d="M464.828,799.688l-3-0.049c0.016-0.937,1.963-94.309,38.627-157.41l2.594,1.508
	C466.783,706.152,464.842,798.759,464.828,799.688"/>
<g>
	<rect x="192.487" y="642.663" fill="none" width="82.269" height="143.172"/>
	<path fill="#FFFFFF" d="M272.528,785.835c-63.839-70.754-79.887-141.823-80.042-142.533l2.932-0.639
		c0.153,0.701,16.063,71.032,79.338,141.161L272.528,785.835z"/>
</g>
<g>
	<rect x="246.08" y="520.626" fill="none" width="18.11" height="107.275"/>
	<path fill="#FFFFFF" d="M261.267,627.902c-14.279-61.96-15.179-106.78-15.187-107.227l3-0.05
		c0.008,0.443,0.908,44.973,15.111,106.602L261.267,627.902z"/>
</g>
<path fill="#232323" d="M467.348,308.934l-44.824-7.313c-18.85-3.076-31.636-20.851-28.561-39.699
	c3.076-18.851,20.85-31.638,39.699-28.562l44.823,7.314c18.851,3.076,31.638,20.85,28.562,39.699S486.196,312.01,467.348,308.934"/>
<path fill="#232323" d="M426.738,445.357l-3.576-0.428c-30.428-3.646-52.139-31.27-48.492-61.697l7.035-58.713
	c3.647-30.428,31.27-52.14,61.699-48.492l3.574,0.428c30.428,3.646,52.139,31.27,48.492,61.697l-7.036,58.713
	C484.789,427.294,457.166,449.003,426.738,445.357"/>
<path fill="#8948C6" d="M427.551,255.688c5.043-14.667-2.76-30.646-17.428-35.688c-14.667-5.042-30.645,2.76-35.688,17.427
	c-2.912,8.471-1.532,17.375,2.972,24.36c-2.897,2.006-5.216,4.902-6.449,8.49c-1.511,4.396-1.121,8.98,0.72,12.875
	c-2.041,1.147-3.689,3.01-4.511,5.397c-1.776,5.169,0.972,10.8,6.142,12.576c5.168,1.778,10.799-0.972,12.576-6.142
	c0.233-0.679,0.385-1.365,0.467-2.05c7.401,0.347,14.451-4.165,16.981-11.526c0.793-2.306,1.056-4.662,0.87-6.947
	C414.607,273.257,423.918,266.255,427.551,255.688"/>
<path fill="#2B2B2B" d="M376.516,303.165c-1.226,0-2.472-0.2-3.694-0.621c-5.943-2.042-9.116-8.539-7.073-14.481
	c0.76-2.207,2.176-4.114,4.051-5.482c-1.602-4.104-1.701-8.598-0.259-12.79c1.14-3.315,3.158-6.188,5.875-8.384
	c-4.329-7.446-5.211-16.284-2.397-24.467c2.568-7.473,7.894-13.499,14.994-16.965c7.101-3.468,15.127-3.962,22.6-1.393
	s13.498,7.894,16.965,14.995c3.468,7.102,3.962,15.127,1.395,22.6c-3.531,10.269-12.552,17.827-23.211,19.582
	c0.014,2.09-0.324,4.149-1.008,6.139c-2.525,7.347-9.461,12.356-17.15,12.551c-0.084,0.348-0.183,0.689-0.297,1.023
	C385.682,300.192,381.249,303.165,376.516,303.165 M400.971,219.96c-3.988,0-7.953,0.909-11.643,2.71
	c-6.38,3.116-11.165,8.53-13.475,15.245c-2.664,7.749-1.639,16.154,2.814,23.06l0.786,1.221l-1.192,0.826
	c-2.767,1.912-4.801,4.591-5.885,7.744c-1.328,3.865-1.096,8.037,0.657,11.746l0.596,1.262l-1.218,0.687
	c-1.8,1.013-3.16,2.638-3.827,4.577c-1.505,4.379,0.833,9.165,5.211,10.671c2.122,0.728,4.4,0.588,6.415-0.396
	c2.016-0.984,3.527-2.694,4.256-4.815c0.19-0.554,0.323-1.14,0.396-1.741l0.166-1.385l1.394,0.064
	c6.891,0.324,13.254-4.002,15.493-10.516c0.702-2.043,0.97-4.175,0.793-6.337l-0.118-1.444l1.441-0.168
	c10.117-1.17,18.792-8.146,22.102-17.771c4.766-13.862-2.636-29.017-16.496-33.782C406.803,220.444,403.881,219.96,400.971,219.96"
	/>
<path fill="#FFFFFF" d="M423.495,244.439l-105.14,37.426c-4.133,1.533-5.523,6.681-2.726,10.086l60.957,74.163
	c-2.185,1.593-6.054,8.567-7.021,13.614c-0.463,2.414-7.795,5.709-8.504,8.971c4.141,8.062,20.082-5.615,20.082-5.615l9.16-15.705
	l-48.597-72.428l70.136-23.482"/>
<path fill="#2B2B2B" d="M365.375,392.74c-0.494,0-0.975-0.043-1.438-0.133c-1.857-0.364-3.313-1.479-4.209-3.223l-0.246-0.479
	l0.113-0.525c0.496-2.279,2.941-4.165,5.305-5.99c1.138-0.878,3.041-2.346,3.193-2.949c0.842-4.391,3.881-10.576,6.449-13.451
	l-60.071-73.086c-1.646-2.004-2.202-4.588-1.526-7.09c0.677-2.502,2.457-4.453,4.888-5.355l105.159-37.432l1.006,2.826
	l-105.141,37.426c-1.49,0.553-2.596,1.765-3.016,3.317c-0.42,1.554-0.074,3.158,0.947,4.401l61.967,75.393l-1.285,0.936
	c-1.75,1.275-5.513,7.892-6.431,12.685c-0.322,1.681-2.168,3.106-4.308,4.755c-1.533,1.184-3.395,2.621-4.017,3.771
	c0.448,0.613,1.031,0.975,1.799,1.127c4.335,0.842,12.448-5.018,15.464-7.559l8.558-14.67l-49.169-73.283l72-24.105l0.953,2.846
	l-68.271,22.856l48.024,71.575l-9.762,16.732l-0.191,0.165C381.041,385.148,371.988,392.74,365.375,392.74"/>
<polygon fill="#2B2B2B" points="372.617,782.942 394.391,796.58 357.773,795.84 359.2,782.619 "/>
<path fill="#2B2B2B" d="M416.593,771.726l-11.04,16.524l-6.758,8.329h10.021c0,0,20.271-14.853,20.271-15.551
	c0-0.699-2.006-7.457-2.006-7.457l-11.508-1.846"/>
<path fill="#FFFFFF" d="M474.523,253.152l109.906-10.508c5.344-0.512,8.995,5.271,6.238,9.875l-38.553,64.387
	c0,0-1.746,18.699-1.572,19.398c0.175,0.698,3.146,4.893,2.447,7.514s-13.981-2.312-15.029-8.408
	c-1.049-6.096,2.796-23.048,2.796-23.048l25.403-51.47L479.24,275.6l-4.717-17.877"/>
<path fill="#2B2B2B" d="M551.404,346.038c-0.096,0-0.195-0.002-0.297-0.007c-4.431-0.199-13.652-4.716-14.626-10.367
	c-1.086-6.318,2.652-22.93,2.812-23.633l0.119-0.333l24.104-48.836l-85.376,14.446l-5.065-19.204l2.899-0.765l4.368,16.553
	l88.463-14.969l-26.623,53.941c-0.395,1.778-3.675,16.873-2.743,22.29c0.312,1.815,2.341,3.931,5.423,5.658
	c3.043,1.706,5.732,2.308,6.735,2.229c0.069-1.486-1.259-3.906-1.856-4.992c-0.363-0.662-0.564-1.028-0.652-1.383
	c-0.077-0.309-0.236-0.947,1.535-19.901l0.031-0.339l38.727-64.678c0.998-1.668,0.975-3.643-0.062-5.285s-2.805-2.516-4.746-2.328
	l-109.906,10.51l-0.284-2.986l109.905-10.51c3.035-0.287,5.938,1.133,7.567,3.713c1.63,2.58,1.668,5.809,0.101,8.428l-38.377,64.094
	c-0.615,6.604-1.531,16.955-1.549,18.613c0.062,0.109,0.19,0.334,0.342,0.609c1.332,2.429,2.703,5.219,2.067,7.598
	C554.289,344.769,553.694,346.038,551.404,346.038"/>
<path fill="#8948C6" d="M495.039,185.133c1.256-2.249,1.979-4.837,1.979-7.596c0-7.776-5.691-14.204-13.131-15.394
	c0-0.063,0.01-0.124,0.01-0.188c0-9.473-7.68-17.153-17.153-17.153c-6.366,0-11.909,3.476-14.869,8.626
	c-2.571-0.816-5.309-1.259-8.151-1.259c-14.862,0-26.912,12.048-26.912,26.912c0,5.669,1.757,10.925,4.75,15.262
	c-3.938,3.202-6.455,8.08-6.455,13.55c0,9.645,7.818,17.462,17.463,17.462s17.462-7.817,17.462-17.462c0-0.886-0.087-1.75-0.214-2.6
	c6.85-1.587,12.697-5.785,16.434-11.494c-0.738,2.019-1.162,4.188-1.162,6.463c0,10.388,8.42,18.809,18.809,18.809
	c10.388,0,18.809-8.421,18.809-18.809C502.705,194.05,499.682,188.558,495.039,185.133 M469.318,187.402
	c0.138,0.169,0.289,0.325,0.434,0.488c-0.402,0.461-0.783,0.94-1.141,1.438C468.871,188.698,469.106,188.055,469.318,187.402"/>
<path fill="#2B2B2B" d="M432.567,226.856c-10.456,0-18.963-8.507-18.963-18.963c0-5.274,2.166-10.238,5.985-13.82
	c-2.803-4.499-4.279-9.654-4.279-14.992c0-15.667,12.746-28.413,28.413-28.413c2.536,0,5.045,0.335,7.478,0.998
	c3.44-5.188,9.291-8.364,15.543-8.364c9.934,0,18.078,7.805,18.623,17.605c7.692,1.807,13.15,8.611,13.15,16.629
	c0,2.478-0.544,4.936-1.584,7.18c4.576,3.845,7.271,9.565,7.271,15.545c0,11.199-9.11,20.31-20.309,20.31
	c-11.199,0-20.311-9.111-20.311-20.31c0-0.294,0.008-0.589,0.021-0.883c-0.356,0.351-0.721,0.69-1.094,1.02l-0.21,0.293l0.068-0.169
	c-3.135,2.734-6.844,4.75-10.908,5.896c0.045,0.513,0.067,0.998,0.067,1.475C451.53,218.35,443.023,226.856,432.567,226.856
	 M443.724,153.668c-14.013,0-25.413,11.4-25.413,25.413c0,5.175,1.551,10.158,4.484,14.409l0.787,1.141l-1.076,0.875
	c-3.75,3.051-5.901,7.566-5.901,12.387c0,8.801,7.161,15.963,15.963,15.963s15.963-7.162,15.963-15.963
	c0-0.72-0.063-1.476-0.198-2.379l-0.205-1.37l1.351-0.313c6.394-1.481,11.905-5.335,15.519-10.854l1.317-2.014l0.911-2.208
	c0.24-0.585,0.466-1.196,0.667-1.816l0.848-2.615l1.067,1.305l2.348-3.587l-1.634,4.459c0.062,0.073,0.126,0.142,0.19,0.212
	l1.039,1.17l-0.869,0.994c-0.371,0.424-0.725,0.87-1.051,1.325l-1.356,1.891l-0.813,2.222c-0.713,1.942-1.074,3.942-1.074,5.946
	c0,9.545,7.766,17.31,17.311,17.31c9.544,0,17.309-7.765,17.309-17.31c0-5.538-2.572-10.613-7.057-13.922l-1.064-0.784l0.646-1.154
	c1.17-2.095,1.788-4.468,1.788-6.865c0-6.962-4.991-12.813-11.868-13.912l-1.272-0.204l0.019-1.483
	c0.001-8.613-7.021-15.635-15.651-15.635c-5.58,0-10.779,3.017-13.57,7.873l-0.602,1.048l-1.152-0.366
	C448.935,154.069,446.345,153.668,443.724,153.668"/>
<path fill="#FFFFFF" d="M479.73,168.775c0.307,8.734-8.412,18.607-21.449,23.438c-11.375,4.215-22.756,3.37-29.098-1.447
	c-0.059,0.786-0.1,1.578-0.1,2.379c0,17.226,13.964,31.19,31.189,31.19c17.227,0,31.19-13.964,31.19-31.19
	C491.464,183.28,486.879,174.491,479.73,168.775"/>
<path fill="#2B2B2B" d="M460.273,225.834c-18.024,0-32.688-14.664-32.688-32.689c0-0.761,0.032-1.553,0.103-2.491l0.207-2.75
	l2.196,1.668c6.079,4.617,17.2,5.113,27.67,1.235c12.149-4.502,20.759-13.745,20.47-21.978l-0.115-3.263l2.552,2.038
	c7.815,6.248,12.297,15.557,12.297,25.541C492.964,211.17,478.299,225.834,460.273,225.834 M430.586,193.449
	c0.165,16.231,13.419,29.385,29.688,29.385c16.371,0,29.69-13.319,29.69-29.69c0-8.079-3.233-15.673-8.96-21.246
	c-1.504,8.641-10.139,17.252-22.201,21.721C448.425,197.465,437.715,197.337,430.586,193.449"/>
<path fill="#8948C6" d="M477.572,390.703l-8.909-40.423l0.129-0.286l-61.459-11.289l0.034,0.881l-16.145,29.668l-7.166,12.146
	c-5.19,8.97-9.416,18.711-10.881,28.97c-4.259,29.836-23.638,161.631-22.601,158.342c9.281,37.021,20.563,74.386,31.135,106.946
	c-11.706,59.047-20.944,104.998-21.041,105.76l12.99,1.633l21.327-67.734c12.181,35.355,21.178,58.887,21.111,59.423
	c-0.263,2.083,10.486,1.845,10.486,1.845l-20.369-96.93l75.969-241.284C485.678,416.7,480.909,405.848,477.572,390.703
	 M393.174,617.595l-9.105-43.325l36.652-150.562l13.761,3.105C431.156,451.438,409.346,535.291,393.174,617.595"/>
<path fill="#2B2B2B" d="M374.715,784.693l-15.721-1.974l0.188-1.489c0.048-0.382,1.383-7.083,5.238-26.399
	c3.818-19.125,9.418-47.178,15.742-79.082c-12.468-38.429-22.855-74.094-30.88-106.029c-0.368-0.557-0.228-1.666,0.086-4.145
	c0.245-1.942,0.625-4.768,1.112-8.307c0.908-6.598,2.224-15.893,4.02-28.414c3.274-22.854,7.557-52.304,10.998-75.967
	c2.715-18.659,5.023-34.538,6.192-42.729c1.325-9.274,4.944-18.927,11.069-29.511l7.17-12.155l15.923-29.261l-0.093-2.34
	l65.188,11.974l-0.712,1.577l8.802,39.938c0.616,2.796,1.288,5.472,1.938,8.06c2.871,11.429,5.584,22.226,2.689,40.168l-0.05,0.212
	l-75.851,240.909l20.66,98.314l-1.807,0.04c-3.591,0.071-9.849-0.055-11.458-1.84c-0.354-0.392-0.55-0.866-0.565-1.362
	c-0.244-0.834-1.601-4.556-3.44-9.608c-3.504-9.621-9.212-25.294-16.101-45.174L374.715,784.693z M362.442,780.129l10.163,1.275
	l22.316-70.881l1.482,4.303c7.544,21.896,13.818,39.126,17.568,49.422c2.604,7.148,3.367,9.243,3.565,10.058
	c0.944,0.428,3.949,0.75,7.2,0.788l-20.072-95.518l0.117-0.374l75.938-241.18c2.768-17.266,0.254-27.271-2.655-38.851
	c-0.655-2.608-1.333-5.307-1.958-8.146l-8.766-39.774l-58.744-10.789l-16.057,29.508l-7.191,12.189
	c-5.922,10.234-9.42,19.535-10.689,28.422c-1.169,8.192-3.479,24.074-6.193,42.736c-6.381,43.875-15.953,109.696-16.414,115.116
	c8.054,32.114,18.512,68.033,31.084,106.759l0.121,0.371l-0.076,0.384c-6.357,32.065-11.986,60.268-15.819,79.47
	C364.906,767.724,363.115,776.698,362.442,780.129 M393.223,625.123l-10.692-50.879l0.08-0.329l37.003-151.997l16.538,3.732
	l-0.185,1.362c-1.604,11.884-7.476,37.428-14.91,69.769c-8.021,34.891-18.002,78.311-26.411,121.103L393.223,625.123z
	 M385.606,574.294l7.524,35.806c8.102-40.476,17.426-81.035,25.002-113.99c7.143-31.071,12.84-55.857,14.668-68.139l-10.971-2.477
	L385.606,574.294z"/>
<path fill="#F6C60C" d="M490.555,278.31l12.15-3.568l-3.814-26.479l-29.139,2.649l-46.091-8.11l-36.394,13.496l4.176,23.896
	l18.613-6.666c-3.209,8.604-4.69,17.77-4.332,26.975l1.482,37.969l-0.721,1.322l62.048,9.516l-0.031-0.143l17.416-38.652
	c3.447-7.648,5.11-15.979,4.865-24.365L490.555,278.31z"/>
<path fill="#2B2B2B" d="M470.466,351.123l-66.317-10.17l1.543-2.837l-1.466-37.555c-0.325-8.373,0.81-16.621,3.382-24.563
	l-17.335,6.209l-4.698-26.882l37.946-14.073l46.294,8.147l30.358-2.761l4.202,29.176l-12.286,3.607l0.194,6.683
	c0.25,8.562-1.478,17.216-4.996,25.026l-17.213,38.199L470.466,351.123z M408.714,338.617l58.832,9.022l17.006-37.742
	c3.333-7.397,4.97-15.595,4.733-23.705l-0.264-8.996l12.014-3.528l-3.426-23.785l-27.921,2.541l-0.196-0.035l-45.69-8.041
	l-34.843,12.922l3.656,20.911l19.975-7.154l-1.128,3.024c-3.165,8.482-4.591,17.363-4.238,26.394L408.714,338.617z"/>
<path fill="#8948C6" d="M399.77,303.272L399.77,303.272c-3.537-1.608-5.1-5.776-3.492-9.313l24.851-54.646
	c1.608-3.536,5.776-5.099,9.313-3.49c3.535,1.607,5.099,5.777,3.49,9.312l-24.85,54.646
	C407.475,303.317,403.305,304.88,399.77,303.272"/>
<path fill="#2B2B2B" d="M402.666,305.402c-1.179,0-2.377-0.246-3.518-0.765h-0.001c-2.073-0.942-3.657-2.638-4.457-4.772
	c-0.801-2.135-0.721-4.452,0.222-6.526l24.851-54.647c0.942-2.074,2.638-3.657,4.772-4.457c2.133-0.801,4.451-0.722,6.526,0.223
	c2.075,0.943,3.658,2.637,4.458,4.771s0.721,4.453-0.223,6.527l-24.85,54.646C409.019,303.544,405.912,305.402,402.666,305.402
	 M400.39,301.906c2.778,1.266,6.063,0.031,7.327-2.745l24.85-54.648c0.612-1.344,0.662-2.847,0.145-4.231
	c-0.52-1.383-1.545-2.482-2.891-3.094c-2.777-1.264-6.064-0.031-7.326,2.746l-24.851,54.647c-0.612,1.345-0.663,2.848-0.144,4.231
	C398.018,300.197,399.045,301.296,400.39,301.906z"/>
<path fill="#8948C6" d="M488.723,318.901L488.723,318.901c-3.856,0.453-7.352-2.308-7.804-6.166l-6.993-59.623
	c-0.453-3.856,2.309-7.351,6.165-7.803c3.858-0.453,7.353,2.308,7.804,6.165l6.994,59.623
	C495.341,314.955,492.58,318.449,488.723,318.901"/>
<path fill="#2B2B2B" d="M487.887,320.45c-1.91,0-3.751-0.636-5.273-1.838c-1.787-1.413-2.918-3.438-3.185-5.702l-6.993-59.623
	c-0.265-2.263,0.366-4.494,1.779-6.283c1.414-1.787,3.438-2.92,5.701-3.185c2.266-0.265,4.494,0.366,6.283,1.779
	s2.92,3.438,3.186,5.702l6.994,59.623c0.547,4.672-2.809,8.92-7.481,9.468C488.56,320.431,488.222,320.45,487.887,320.45
	 M480.922,246.76c-0.219,0-0.438,0.014-0.656,0.039c-1.468,0.172-2.781,0.906-3.697,2.065s-1.326,2.606-1.152,4.074l6.992,59.623
	c0.172,1.468,0.906,2.78,2.065,3.696c1.16,0.916,2.608,1.326,4.074,1.154c3.03-0.355,5.206-3.109,4.851-6.14l-6.992-59.623
	c-0.172-1.468-0.906-2.78-2.066-3.696C483.354,247.174,482.16,246.76,480.922,246.76"/>
<line fill="#8948C6" x1="391.596" y1="608.722" x2="406.215" y2="679.653"/>
<rect x="362.693" y="642.688" transform="matrix(0.2019 0.9794 -0.9794 0.2019 949.3103 123.4607)" fill="#2B2B2B" width="72.423" height="3"/>
<line fill="#8948C6" x1="381.71" y1="675.657" x2="396.271" y2="719.036"/>
<rect x="366.112" y="695.847" transform="matrix(0.3182 0.948 -0.948 0.3182 926.2957 106.6609)" fill="#2B2B2B" width="45.758" height="3"/>
<g>
	<rect x="354.41" y="348.586" fill="none" width="56.298" height="397.515"/>
	<polygon fill="#FFFFFF" points="407.842,746.102 354.41,572.51 354.458,572.177 378.94,401.389 379.071,401.149 407.96,348.586 
		410.59,350.031 381.832,402.355 357.477,572.271 410.708,745.218 	"/>
</g>
<g>
	<rect x="422.025" y="157.934" fill="none" width="28.699" height="22.978"/>
	<path fill="#FFFFFF" d="M424.965,180.911l-2.939-0.597c4.115-20.27,20.568-23.356,28.699-22.156l-0.439,2.967l0.221-1.484
		l-0.218,1.485C449.443,161.005,429.536,158.401,424.965,180.911"/>
</g>
</svg>
