<?xml version="1.0" encoding="utf-8"?>
<!-- Generator: Adobe Illustrator 14.0.0, SVG Export Plug-In  -->
<!DOCTYPE svg PUBLIC "-//W3C//DTD SVG 1.1//EN" "http://www.w3.org/Graphics/SVG/1.1/DTD/svg11.dtd" [
	<!ENTITY ns_flows "http://ns.adobe.com/Flows/1.0/">
]>
<svg version="1.1"
	 xmlns="http://www.w3.org/2000/svg" xmlns:xlink="http://www.w3.org/1999/xlink" xmlns:a="http://ns.adobe.com/AdobeSVGViewerExtensions/3.0/"
	 x="0px" y="0px" width="5704px" height="968px" viewBox="-143.224 101.88 5704 968"
	 enable-background="new -143.224 101.88 5704 968" xml:space="preserve">
<defs>
</defs>
<rect x="347.819" fill="none" width="1247.834" height="1159.748"/>
<path fill="#2B2B2B" d="M686.634,346.658c-42.078-65.766-129.503-84.968-195.268-42.89
	C425.6,345.846,323.165,579.214,323.165,579.214s254.813,4.792,320.58-37.287C709.51,499.849,728.713,412.424,686.634,346.658
	 M521.641,451.902c-16.489-25.773-8.965-60.033,16.809-76.523c25.771-16.49,60.033-8.965,76.522,16.808
	c16.49,25.773,8.965,60.033-16.808,76.523C572.392,485.199,538.131,477.675,521.641,451.902"/>
<path fill="#2B2B2B" d="M348.482,587.798c-14.365,0-23.62-0.159-25.476-0.193l-12.588-0.237l5.061-11.528
	c4.223-9.623,104.229-236.187,171.361-279.141c69.562-44.505,162.36-24.119,206.863,45.438
	c44.507,69.558,24.122,162.356-45.435,206.861C593.001,584.359,415.399,587.798,348.482,587.798 M336.085,570.947
	c52.189,0.258,248.487-1.123,303.136-36.089c61.764-39.517,79.861-121.913,40.347-183.677
	c-39.521-61.762-121.925-79.858-183.679-40.343C441.236,345.805,357.691,523.502,336.085,570.947 M568.432,485.858
	c-4.593,0-9.219-0.498-13.811-1.506c-16.645-3.655-30.866-13.574-40.049-27.928c-18.959-29.628-10.277-69.157,19.352-88.115
	c29.623-18.954,69.161-10.278,88.116,19.355c9.185,14.353,12.228,31.423,8.572,48.065c-3.654,16.643-13.571,30.866-27.925,40.05
	C592.295,482.427,580.479,485.858,568.432,485.858 M568.232,375.051c-8.668,0-17.435,2.39-25.26,7.397
	c-21.834,13.969-28.232,43.097-14.264,64.931c6.77,10.576,17.251,17.885,29.515,20.578c12.264,2.698,24.84,0.452,35.415-6.318
	c10.579-6.766,17.887-17.247,20.582-29.511c2.692-12.263,0.45-24.842-6.317-35.419C598.94,382.704,583.743,375.051,568.232,375.051"
	/>
<path fill="#8948C6" d="M145.256,432.68L145.256,432.68c-89.922,89.415-90.334,234.795-0.919,324.717
	c89.414,89.922,234.795,90.334,324.717,0.918"/>
<path fill="#2B2B2B" d="M298.173,833.503c-0.232,0-0.459,0-0.691-0.002c-63.574-0.18-123.272-25.105-168.097-70.188
	c-92.534-93.06-92.108-244.049,0.951-336.584l11.835,11.903c-86.496,86.007-86.893,226.35-0.886,312.848
	c41.665,41.9,97.154,65.068,156.242,65.238h0.646c58.85,0,114.213-22.838,155.963-64.354l11.834,11.904
	C421.059,808.929,361.487,833.501,298.173,833.503"/>
<path fill="#2B2B2B" d="M300.386,897.942c-77.247,0.004-154.468-29.508-213.107-88.482
	c-116.84-117.504-116.302-308.154,1.203-424.996l11.835,11.903C-10.626,506.683-11.134,686.686,99.179,797.626
	c110.319,110.941,290.325,111.447,401.261,1.135l11.835,11.904C453.746,868.864,377.053,897.94,300.386,897.942"/>
<path fill="#8948C6" d="M460.053,758.317L460.053,758.317c89.922-89.416,90.334-234.796,0.919-324.718
	c-89.414-89.922-234.794-90.334-324.717-0.919"/>
<path fill="#2B2B2B" d="M465.971,764.269l-11.834-11.904c86.495-86.006,86.893-226.35,0.886-312.849
	c-86.015-86.497-226.356-86.892-312.852-0.883l-11.835-11.904c93.062-92.533,244.052-92.109,336.586,0.952
	S559.03,671.735,465.971,764.269"/>
<rect x="291.86" y="889.69" fill="#2B2B2B" width="16.785" height="108.932"/>
<rect x="204.787" y="990.231" fill="#2B2B2B" width="188.618" height="16.785"/>
<path fill="#F6C60C" d="M502.187,181.472c-78.519-38.323-173.238-5.738-211.562,72.781c-38.323,78.52-0.239,361.173-0.239,361.173
	s246.26-143.873,284.583-222.393C613.292,314.514,580.707,219.794,502.187,181.472 M405.854,378.152
	c-30.771-15.018-43.54-52.138-28.521-82.908c15.017-30.771,52.136-43.54,82.908-28.522c30.77,15.018,43.54,52.138,28.521,82.908
	C473.744,380.401,436.625,393.171,405.854,378.152"/>
<path fill="#2B2B2B" d="M283.752,629.022l-1.681-12.476c-1.571-11.644-37.977-286.091,1.012-365.976
	c19.52-39.989,53.441-69.986,95.519-84.461c42.087-14.479,87.277-11.699,127.267,7.819c39.99,19.517,69.987,53.441,84.463,95.519
	c14.474,42.079,11.698,87.275-7.817,127.266c-38.993,79.885-277.748,220.031-287.895,225.959L283.752,629.022z M432.922,173.757
	c-16.411,0-32.885,2.729-48.858,8.225c-37.839,13.018-68.344,39.99-85.894,75.952c-32.252,66.077-7.815,288.172-1.058,343.718
	c47.945-28.847,238.064-146.223,270.313-212.301c36.231-74.234,5.313-164.105-68.921-200.338
	C477.729,178.871,455.382,173.757,432.922,173.757 M432.989,392.864c-10.557,0-21.054-2.403-30.817-7.17
	c-16.896-8.247-29.57-22.579-35.684-40.358c-6.119-17.778-4.945-36.876,3.3-53.773c8.248-16.896,22.581-29.57,40.36-35.686
	c17.785-6.117,36.882-4.945,53.773,3.304c16.897,8.247,29.57,22.58,35.686,40.357c6.117,17.779,4.943,36.877-3.301,53.773
	c-8.248,16.897-22.581,29.571-40.359,35.686C448.439,391.58,440.698,392.864,432.989,392.864 M433.093,268.805
	c-5.875,0-11.766,0.977-17.482,2.944c-13.539,4.659-24.456,14.31-30.735,27.178c-6.281,12.867-7.176,27.41-2.517,40.949
	c4.658,13.539,14.309,24.455,27.176,30.734c12.871,6.283,27.414,7.174,40.951,2.516c13.539-4.658,24.456-14.309,30.733-27.177
	c6.281-12.867,7.177-27.41,2.519-40.95c-4.659-13.539-14.311-24.454-27.178-30.734C449.124,270.636,441.128,268.805,433.093,268.805
	"/>
<path fill="#8948C6" d="M913.604,800.856V432.348c0-19.366,16.538-34.356,37.892-34.356h81.281
	c132.954,0,240.413,98.064,240.413,217.982c0,121.172-107.459,219.238-240.413,219.238h-81.281
	C930.142,835.212,913.604,819.603,913.604,800.856 M990.076,765.88h42.7c90.936-0.625,163.948-66.836,163.948-149.906
	c0-81.815-73.013-148.652-163.948-148.652h-42.7V765.88z"/>
<path fill="#8948C6" d="M1847.727,452.338c42.701,41.212,69.564,96.182,69.564,158.024c0,61.828-26.863,117.412-69.564,158.016
	c-40.654,40.594-101.264,66.834-164.644,66.834c-66.124,0-126.753-26.24-168.767-66.834
	c-42.705-40.604-68.201-96.188-68.201-158.016c0-61.842,25.496-116.812,68.201-158.024c42.014-41.231,102.643-66.835,168.767-66.835
	C1746.463,385.503,1807.072,411.107,1847.727,452.338 M1838.757,610.362c0-42.483-18.593-81.827-46.837-109.316
	c-28.934-28.1-67.5-44.34-108.837-44.34c-44.086,0-82.667,16.24-111.593,44.34c-28.934,27.489-46.843,66.833-46.843,109.316
	c0,42.469,17.909,81.811,46.843,108.674c28.926,28.107,67.507,44.969,111.593,44.969c41.337,0,79.903-16.861,108.837-44.969
	C1820.164,692.173,1838.757,652.831,1838.757,610.362"/>
<path fill="#8948C6" d="M2097.8,800.856V432.348c0-19.366,17.227-34.356,37.892-34.356h2.067h0.688h95.062
	c72.328,0,130.88,53.095,130.88,118.673c0,26.863-9.64,51.22-26.17,71.207c41.329,23.733,69.574,65.583,69.574,113.053
	c0,74.33-66.129,134.287-147.425,134.287h-121.922c-0.688,0-0.688-0.623-0.688-0.623c-1.378,0-1.378,0.623-2.067,0.623
	C2115.026,835.212,2097.8,819.603,2097.8,800.856 M2174.274,567.26h59.235c30.31,0,54.415-23.114,54.415-50.596
	c0-27.478-24.105-49.343-54.415-49.343h-59.235V567.26z M2174.274,765.88h86.095c39.277-0.625,70.953-28.734,70.953-64.955
	c0-35.607-31.676-63.709-70.953-64.332h-86.095V765.88z"/>
<path fill="#8948C6" d="M2894.827,783.378c6.891,18.104-4.127,37.463-24.11,43.721c-2.763,0.617-8.269,1.869-15.156,1.869h-0.678
	c-6.884,0-17.22-1.252-26.881-6.877c-8.95-4.992-16.523-13.115-22.035-21.852c-9.647-18.123-14.471-40.609-14.471-74.953
	c-0.682-11.869-3.438-19.992-8.264-26.855c-4.133-6.877-12.395-13.125-20.656-18.117c-14.477-8.746-32.379-13.738-38.587-14.996
	h-81.281v135.539c0,18.746-17.22,34.355-38.573,34.355c-21.354,0-37.892-15.609-37.892-34.355V432.348
	c0-19.364,16.537-34.356,37.892-34.356h0.688h122.618c81.963,0,147.417,59.965,147.417,134.294
	c0,41.219-20.672,77.444-53.739,102.432c8.965,6.244,17.219,13.74,24.109,23.109c13.774,18.113,22.726,41.217,22.726,67.459
	c-0.675,18.734,1.392,30.6,2.763,36.844C2881.749,765.255,2890.7,772.747,2894.827,783.378 M2798.387,532.286
	c0-36.229-31.683-64.964-70.945-64.964h-84.733v128.667h84.733C2766.704,595.989,2798.387,567.26,2798.387,532.286"/>
<path fill="#8948C6" d="M3443.877,452.338c42.708,41.212,69.567,96.182,69.567,158.024c0,61.828-26.859,117.412-69.567,158.016
	c-40.647,40.594-101.257,66.834-164.646,66.834c-66.119,0-126.743-26.24-168.762-66.834
	c-42.715-40.604-68.196-96.188-68.196-158.016c0-61.842,25.481-116.812,68.196-158.024c42.019-41.231,102.643-66.835,168.762-66.835
	C3342.62,385.503,3403.229,411.107,3443.877,452.338 M3434.912,610.362c0-42.483-18.598-81.827-46.843-109.316
	c-28.934-28.1-67.507-44.34-108.839-44.34c-44.091,0-82.664,16.24-111.598,44.34c-28.919,27.489-46.835,66.833-46.835,109.316
	c0,42.469,17.916,81.811,46.835,108.674c28.934,28.107,67.507,44.969,111.598,44.969c41.332,0,79.905-16.861,108.839-44.969
	C3416.314,692.173,3434.912,652.831,3434.912,610.362"/>
<path d="M4022.534,801.481c0,18.121-16.523,33.73-37.195,33.73c-18.598,0-33.067-11.869-36.499-26.855
	c-26.185,16.238-59.252,26.855-93.698,26.855c-92.988,0-167.386-71.199-167.386-155.531c0-85.57,74.397-156.767,167.386-156.767
	c33.764,0,66.825,9.988,92.307,26.225V431.72c0-18.117,16.537-33.729,37.891-33.729c20.672,0,37.195,15.611,37.195,33.729v247.337
	v0.623V801.481z M3855.142,590.997c-24.792,0-47.524,9.357-64.744,25.6c-17.227,15.619-27.555,38.104-27.555,63.084
	c0,23.742,10.328,46.223,27.555,61.848c17.22,16.227,39.952,25.602,64.744,25.602c25.495,0,47.531-9.375,64.758-25.602
	c17.22-15.625,27.549-38.105,27.549-61.848c0-24.98-10.329-47.465-27.549-63.084
	C3902.673,600.354,3880.637,590.997,3855.142,590.997"/>
<path d="M4446.202,556.015c0,17.494-15.841,33.107-36.516,33.107c-15.839,0-29.615,3.742-41.32,11.865
	c-13.092,7.49-23.428,18.111-31.689,29.98c-16.537,19.982-24.807,43.721-28.252,52.467v118.664
	c0,18.123-17.219,33.113-37.877,33.113c-19.982,0-36.514-14.99-36.514-33.113V556.015c0-18.109,16.531-32.474,36.514-32.474
	c20.658,0,37.877,14.364,37.877,32.474v4.378c4.135-4.378,9.647-9.37,14.471-12.497c22.732-13.749,52.354-24.985,86.791-24.354
	C4430.361,523.542,4446.202,537.906,4446.202,556.015"/>
<path d="M4741.733,835.212c-78.532,0-143.281-58.711-143.281-129.924V556.015c0-17.483,16.543-33.104,36.504-33.104
	c20.672,0,36.523,15.621,36.523,33.104v149.273c0,35.611,30.991,63.717,70.254,63.717c39.951,0,71.648-28.105,72.33-63.717V556.015
	c0-17.483,15.152-33.104,35.824-33.104c19.279,0,37.195,15.621,37.195,33.104v149.273
	C4887.083,776.501,4820.949,835.212,4741.733,835.212"/>
<path d="M5172.974,800.856c0,19.365-17.22,34.352-38.573,34.352c-17.22,0-31.683-11.246-36.499-25.604
	c-0.696-2.498-1.386-5.625-1.386-8.748V432.343c0-19.359,17.213-34.352,37.885-34.352c21.354,0,38.573,14.992,38.573,34.352v108.685
	c22.05-10.614,46.85-18.117,73.716-18.117c83.341,0,150.166,61.839,150.166,136.788v141.158c0,19.365-16.53,34.352-37.892,34.352
	c-21.354,0-37.884-14.986-37.884-34.352V659.698c0-36.85-33.068-66.83-74.391-67.459c-40.655,0.629-73.026,30.609-73.716,67.459
	V800.856z"/>
</svg>
