<?xml version="1.0" encoding="utf-8"?>
<!-- Generator: Adobe Illustrator 14.0.0, SVG Export Plug-In  -->
<!DOCTYPE svg PUBLIC "-//W3C//DTD SVG 1.1//EN" "http://www.w3.org/Graphics/SVG/1.1/DTD/svg11.dtd" [
	<!ENTITY ns_flows "http://ns.adobe.com/Flows/1.0/">
]>
<svg version="1.1"
	 xmlns="http://www.w3.org/2000/svg" xmlns:xlink="http://www.w3.org/1999/xlink" xmlns:a="http://ns.adobe.com/AdobeSVGViewerExtensions/3.0/"
	 x="0px" y="0px" width="788px" height="894px" viewBox="189.985 130.883 788 894" enable-background="new 189.985 130.883 788 894"
	 xml:space="preserve">
<defs>
</defs>
<rect fill="none" width="1178.965" height="1372.768"/>
<path fill="#2B2B2B" d="M932.875,337.657c-42.078-65.766-129.503-84.968-195.268-42.89
	c-65.767,42.078-168.201,275.446-168.201,275.446s254.813,4.792,320.58-37.287C955.75,490.848,974.954,403.423,932.875,337.657
	 M767.881,442.901c-16.489-25.773-8.965-60.033,16.809-76.523c25.771-16.49,60.033-8.965,76.522,16.808
	c16.49,25.773,8.965,60.033-16.808,76.523C818.632,476.198,784.372,468.674,767.881,442.901"/>
<path fill="#2B2B2B" d="M594.723,578.797c-14.365,0-23.62-0.159-25.476-0.193l-12.588-0.237l5.061-11.528
	c4.223-9.623,104.229-236.187,171.361-279.141c69.562-44.505,162.36-24.119,206.863,45.438
	c44.507,69.558,24.122,162.356-45.435,206.861C839.242,575.358,661.64,578.797,594.723,578.797 M582.326,561.946
	c52.189,0.258,248.487-1.123,303.136-36.089c61.764-39.517,79.861-121.913,40.347-183.677
	c-39.521-61.762-121.925-79.858-183.679-40.343C687.477,336.804,603.932,514.501,582.326,561.946 M814.672,476.857
	c-4.593,0-9.219-0.498-13.811-1.506c-16.645-3.655-30.866-13.574-40.049-27.928c-18.959-29.628-10.277-69.157,19.352-88.115
	c29.623-18.954,69.161-10.278,88.116,19.355c9.185,14.353,12.228,31.423,8.572,48.065c-3.654,16.643-13.571,30.866-27.925,40.05
	C838.536,473.426,826.72,476.857,814.672,476.857 M814.473,366.05c-8.668,0-17.435,2.39-25.26,7.397
	c-21.834,13.969-28.232,43.097-14.264,64.931c6.77,10.576,17.251,17.885,29.515,20.578c12.264,2.698,24.84,0.452,35.415-6.318
	c10.579-6.766,17.887-17.247,20.582-29.511c2.692-12.263,0.45-24.842-6.317-35.419C845.181,373.703,829.984,366.05,814.473,366.05"
	/>
<path fill="#8948C6" d="M382.496,423.679L382.496,423.679c-89.922,89.415-90.334,234.795-0.919,324.717
	c89.414,89.923,234.795,90.334,324.717,0.919"/>
<path fill="#2B2B2B" d="M544.414,824.501c-0.232,0-0.459,0-0.691-0.002c-63.574-0.18-123.272-25.105-168.097-70.187
	c-92.534-93.06-92.108-244.05,0.951-336.585l11.835,11.903c-86.496,86.007-86.893,226.35-0.886,312.848
	c41.665,41.9,97.154,65.068,156.242,65.237h0.646c58.85,0.001,114.213-22.837,155.963-64.353l11.834,11.904
	C667.299,799.928,607.728,824.5,544.414,824.501"/>
<path fill="#2B2B2B" d="M546.627,888.942c-77.247,0.003-154.468-29.508-213.107-88.482
	c-116.84-117.504-116.302-308.155,1.203-424.996l11.835,11.903c-110.943,110.315-111.451,290.318-1.138,401.258
	c110.319,110.941,290.325,111.448,401.261,1.136l11.835,11.904C699.987,859.863,623.293,888.939,546.627,888.942"/>
<path fill="#8948C6" d="M706.293,749.316L706.293,749.316c89.922-89.416,90.334-234.795,0.919-324.717
	c-89.414-89.922-234.794-90.334-324.717-0.919"/>
<path fill="#2B2B2B" d="M712.211,755.268l-11.834-11.904c86.495-86.007,86.893-226.35,0.886-312.849
	c-86.015-86.497-226.356-86.892-312.852-0.883l-11.835-11.904c93.062-92.533,244.052-92.109,336.586,0.952
	S805.271,662.734,712.211,755.268"/>
<rect x="538.101" y="880.69" fill="#2B2B2B" width="16.785" height="108.932"/>
<rect x="451.028" y="981.23" fill="#2B2B2B" width="188.618" height="16.785"/>
<path fill="#F6C60C" d="M748.427,172.471c-78.519-38.323-173.238-5.738-211.562,72.781c-38.323,78.52-0.239,361.173-0.239,361.173
	s246.26-143.873,284.583-222.393C859.533,305.513,826.948,210.793,748.427,172.471 M652.094,369.151
	c-30.771-15.018-43.54-52.138-28.521-82.908c15.017-30.771,52.136-43.54,82.908-28.522c30.77,15.018,43.54,52.138,28.521,82.908
	C719.985,371.4,682.866,384.17,652.094,369.151"/>
<path fill="#2B2B2B" d="M529.993,620.022l-1.681-12.476c-1.571-11.644-37.977-286.091,1.012-365.976
	c19.52-39.989,53.441-69.986,95.519-84.461c42.087-14.479,87.277-11.699,127.267,7.819c39.99,19.517,69.987,53.441,84.463,95.519
	c14.474,42.079,11.698,87.275-7.817,127.266c-38.993,79.885-277.748,220.031-287.895,225.959L529.993,620.022z M679.163,164.756
	c-16.411,0-32.885,2.729-48.858,8.225c-37.839,13.018-68.344,39.99-85.894,75.952c-32.252,66.077-7.815,288.172-1.058,343.718
	c47.945-28.847,238.064-146.223,270.313-212.301c36.231-74.234,5.313-164.105-68.921-200.338
	C723.969,169.87,701.623,164.756,679.163,164.756 M679.23,383.863c-10.557,0-21.054-2.403-30.817-7.17
	c-16.896-8.247-29.57-22.579-35.684-40.358c-6.119-17.778-4.945-36.876,3.3-53.773c8.248-16.896,22.581-29.57,40.36-35.686
	c17.785-6.117,36.882-4.945,53.773,3.304c16.897,8.247,29.57,22.58,35.686,40.357c6.117,17.779,4.943,36.877-3.301,53.773
	c-8.248,16.897-22.581,29.571-40.359,35.686C694.68,382.579,686.939,383.863,679.23,383.863 M679.333,259.804
	c-5.875,0-11.766,0.977-17.482,2.944c-13.539,4.659-24.456,14.31-30.735,27.178c-6.281,12.867-7.176,27.41-2.517,40.949
	c4.658,13.539,14.309,24.455,27.176,30.734c12.871,6.283,27.414,7.174,40.951,2.516c13.539-4.658,24.456-14.309,30.733-27.177
	c6.281-12.867,7.177-27.41,2.519-40.95c-4.659-13.539-14.311-24.454-27.178-30.734C695.365,261.635,687.369,259.804,679.333,259.804
	"/>
</svg>
